<mxfile host="app.diagrams.net" modified="2021-01-13T02:52:45.491Z" agent="5.0 (Macintosh; Intel Mac OS X 10_14_6) AppleWebKit/537.36 (KHTML, like Gecko) Chrome/87.0.4280.141 Safari/537.36" etag="Dus-E5GahGoYTkIbgmQA" version="14.1.9" type="github">
  <diagram id="hJwrMbKoRCgH0E1bqEPB" name="Page-1">
    <mxGraphModel dx="946" dy="544" grid="1" gridSize="10" guides="1" tooltips="1" connect="1" arrows="1" fold="1" page="1" pageScale="1" pageWidth="827" pageHeight="1169" math="0" shadow="0">
      <root>
        <mxCell id="0" />
        <mxCell id="1" parent="0" />
        <mxCell id="VdugXz_NpYzOVKXepFqS-1" value="" style="rounded=0;whiteSpace=wrap;html=1;dashed=1;" vertex="1" parent="1">
          <mxGeometry x="50" y="60" width="120" height="420" as="geometry" />
        </mxCell>
        <mxCell id="VdugXz_NpYzOVKXepFqS-2" value="" style="rounded=1;whiteSpace=wrap;html=1;" vertex="1" parent="1">
          <mxGeometry x="70" y="80" width="80" height="80" as="geometry" />
        </mxCell>
        <mxCell id="VdugXz_NpYzOVKXepFqS-3" value="" style="rounded=1;whiteSpace=wrap;html=1;" vertex="1" parent="1">
          <mxGeometry x="70" y="180" width="80" height="80" as="geometry" />
        </mxCell>
        <mxCell id="VdugXz_NpYzOVKXepFqS-4" value="" style="rounded=1;whiteSpace=wrap;html=1;" vertex="1" parent="1">
          <mxGeometry x="70" y="280" width="80" height="80" as="geometry" />
        </mxCell>
        <mxCell id="VdugXz_NpYzOVKXepFqS-5" value="" style="rounded=1;whiteSpace=wrap;html=1;" vertex="1" parent="1">
          <mxGeometry x="70" y="380" width="80" height="80" as="geometry" />
        </mxCell>
        <mxCell id="VdugXz_NpYzOVKXepFqS-6" value="还呗业务VPC&lt;br&gt;（10.1.0.0/16）" style="text;html=1;strokeColor=none;fillColor=none;align=center;verticalAlign=middle;whiteSpace=wrap;rounded=0;fontStyle=1" vertex="1" parent="1">
          <mxGeometry x="69" y="24" width="80" height="20" as="geometry" />
        </mxCell>
        <mxCell id="VdugXz_NpYzOVKXepFqS-11" value="" style="shape=image;verticalLabelPosition=bottom;labelBackgroundColor=#ffffff;verticalAlign=top;aspect=fixed;imageAspect=0;image=data:image/png,iVBORw0KGgoAAAANSUhEUgAAASQAAADeCAYAAACUh30nAAAgAElEQVR4Ae1dh3sVx7V//9F7L35x4pi4xUnc7bjGdhzXuMR2HMcNTDMYDKaKDgKBBEJ0iSaqkGgWiCYBAiQhOkK99zrv+117xO5qy5ndvffu3nvm+/Tt3t3ZmTO/2fPTzOyZc/5LcGIEGAFGICAI/FdA5GAxGAFGgBEQTEj8EjACjEBgEGBCCkxXsCCMACPAhMTvACPACAQGASakwHQFC8IIMAJMSPwOMAKMQGAQYEIKTFewIIwAI8CExO8AI8AIBAYBJqTAdAULwggwAkxI/A4wAoxAYBBgQgpMV7AgjAAjwITE7wAjwAgEBgEmpMB0BQvCCDACTEj8DjACjEBgEGBCCkxXsCCMACPAhMTvACPACAQGASakwHQFC8IIMAJMSPwOMAKMQGAQYEIKTFewIIwAI8CExO8AI8AIBAYBJqTAdAULwggwAkxI/A6EEoHNx86K1+etFX+cvFT895ezxMMTF4vnZ6aLd5dsEGsOnRK3GlpC2a5kF5oJKdnfgBC2/+MVWyIkBCKy+/s0LVvsO1sewhYmr8hMSMnb96Fs+Quz0m1JyIyg3liQJbKLzoWyvckmNBNSsvV4iNu7Iu+4MhlpCer9pRvFwQuVIUYg8UVnQkr8Pk6YFr4+L1NHSNNz8sWhC1fEycqbYk9JmcAUTUtAVuejM3eKczfuJAwuidQQJqRE6s0EbwsWriXJLNlbaNraC7dqxIyt+eLBiYuG88pnjEcsjHMKFgJMSMHqD5bGAoHWzm4dwWw7WWqR8+fLda3tYlXBCfHS7Azdc0ZSsiI228L5ZtQQYEKKGrRcsJ8IlFfV6YhFZXQDYrIbMX28IlucunJLYHR1tbZRVDe3iZbOLtHT3+9nE7gsAgJMSASQOEv8Eejq7dMR0ouzMpSEulbXKCZu2KMrwzhaMvt9/7gF4p/Lt4jU/cdE0eUboqePSUoJeMXMTEiKgHH2+CEwc1uBjlDS8ouUhck7VyEenOC8vmRGTrgGgvokLVvknr4oBgeHlOvnB+wRYEKyx4fvBgiB0pvVOkIaNW6BqLhTryxhyfUq8de5a3RlWRGQ3fW/zFwllu0/Jm7WNyvLwA+YI8CEZI4LXw0oAv9etVVHJGPW5rqWdP1PxZGtJthugsXv342dryvbjoy09+4dnRL5soeFd07eEGBC8oYfPx1jBMqq6sSo8Qt1xLGxsMQ3KZraOyM2SntLykT6wZNiWs6BiH3TvWNSdHVqCUmevzg7Q+w/V+GbLMlYEBNSMvZ6yNucefi0jhzu+3a+KLlWFdVW3WxoFsvzjgvK1pUfsvNEQ3tnVOVJ1MKZkBK1ZxO8Xf/J2KYjpTcXZAl8iYtF2l18SRinjnKUJI/PzVglkI+TGgJMSGp4ce6AIFDb0i4wRZIEgOOULftjKh0W2b/N2qWTQSsPzidv2idqWtpjKleYK2NCCnPvJbns2MP2mzHzdITg53oSFd6DpZWRxXEjGcnfT01bIXacukAtLqnzMSEldfeHv/H4UiYVH8dYrCdZoQZZQD5aebTn49fvER3dvVaP83UhBBMSvwahR8Bogf1h6ua4tQlf6aZm51mS0juL1osrNQ1xky/oFTMhBb2HWD5HBEACxk20mxR38lc1tUb2sxWUXhZlVbWOdTplgEM4K4vwByYsFIXl152KSMr7TEhJ2e2J1+j80su6UcnT09NEU0cXuaGfaQwuR41fIJy8CVAKvni7VnywbJNOLu0ULqfoPKWYpMrDhJRU3Z3YjZ1h2OsGeyVqauvqiexT0xJG/vnL1Mdt86XsPGxJSnN2HLJ9NtluMiElW48ncHtBKi/PWT2s/P9YulGptZiqaQnp8ampSs/bZd5TXCZQnrZ8eY7oKbxR92f0mJDs3iK+FzoE5u86olP6i7drlNqQefiU7nmYFviVbtQ3ic/T9QadkpRwhC+mZE9MSMn+BiRY+49VXNcRihuPkI9pRjIYdfmdvlq9QyejlpRgbJnMiQkpmXs/Ads+MDgk/jzl7tQIbkZUExa0QRLvLF6v+ig5vx0pJbM7EyYk8ivEGcOCwPj1u3UjkBOXbyiJjlERRkl+fP63q9iKlH49OkU0d9K/ENrVEbZ7TEhh6zGW1xEBbGrVToPgaVI1RWOqZiaDFSk9NiVVDA4ln0dKJiSzt4SvhRqB7r5+3bTtyR9WiL6BgcC2aYKFr2/EoUu2xISUbD2eJO2FYzXtKGlvSXmgWz535yGdvFL2T9NyAi2338IxIfmNKJcXCASMX9tGe3B1G6sGTTeQqCSl7zbujZUIca+HCSnuXcACRAuBV+beNZKEmxLEWwt6+ih1s+lIacGuI0EX3Rf5mJB8gZELCSICsEGSowwcs46cCaKYI2R64oflOrllGw74tJVlRIUBusCEFKDOYFH8RaDijj7arepWEn+loZcGzwOShLRHBMdsVtgwTK8xODmZkILTFyxJFBD418ocnXKfD4kl9LFyvcW5JCYEEEjkxISUyL3LbRNbT5zXEVKYFoiN3jAlKSFEU6ImJqRE7VluVwSB9u4e8ejkpTpSOnP1dmjQ+XFrvk52kNJzM1aK+raO0LRBRVAmJBW0OG8oEZiWrbdJGp25M1TteHPhuhGkhGgmiZiYkBKxV7lNOgQQ5NE4SgqTC1k4ipPTNe0x9/RFXTsT4QcTUiL0IrfBEQHjegwCPYYpGTcMg5gQ4SQMtlUqODMhqaDFeUONgPGLmxtfSfECoLKmQYwat2DESAn74BIpMSElUm9yW2wROHv9jrjnm7k6pQ4TKS3PO66TXU7fwjT9tO0gjsvmBA/fTzQEjNbbUOqwWEDDY8FrKZkjSGls1q6E6SYeISVMV3JDqAgYSQlrMWFJsEGSIyPtsfxOXViaYCsnE5ItPHwzURF4ZnqaTrHD1E6YLWjJCOdzdhwMUxMsZWVCsoSGbyQyAlO27B9W6vvHLQhVUxEIwEhIj3y3RDS0dYaqHWbCMiGZocLXEh4BrV0SXH6ELRm/GIKgMg6eDFszRsjLhDQCEr6Q6AgcunBFN8KAt8awJRhFGkdJL83OCFszRsjLhDQCEr6Q6AjM2n5Qp8yF5ddC1+T+gUHx7I8rde0AQe04dSF0bdEKzISkRYPPkwKBNxdkDSvyi7PSQ9vmRXt+Gm6HHC19GMLpp7YDmJC0aPB5wiPQ2tmtU2KE3g5rqqxu0LVFktKRS1fD2iTBhBTarmPB3SBw8EKlTolLrle5KSYwz5jtcfty9fbAyKcqCBOSKmKcP9QILNh9dJiQsAYT9nTi8s3h9sgREo6nr9wKZdOYkELZbSy0WwQ+WLZpWIG/zcp1W0ygnjMzAcDIKYyJCSmMvcYyu0bgd2Pv7pjPPHzadTlBenD/2fJhktWOki7eqgmSmCRZmJBIMHGmREDgam2jTnHLqhJj/xf6xsyrZBgDAjAhJYKmcRtICGw7WTpMSA9MWER6JiyZNh8/O9w2OUpCcMxrdY1haUJETiakUHUXC+sFgama/WvvL93opajAPdvbPyCem7FqBCmlhMwKnQkpcK8WCxQtBN5dsmFYYT9bmROtauJW7sr8ouH2yVHSQxMXi5qW4IcQl6AxIUkk+JjwCGgJKWyRRyidU9/aIbDrX5KRPC7bd4zyeCDyMCEFohtYiFggoCWkSRv3KlfZ2dOr/EysH8BGYUlE8vj41OWitas71qK4qo8JyRVs/FAYEdAS0oyt+UpNgEX37O3Bd4KGYAD3fD1nBCmtPnRKqb3xysyEFC/kud6YI6AlpAUKe9jgyxqbVjHiqGpqjbncqhVO3LBnBCE9PzNdoB1BT0xIQe8hls83BLSEhBDV1AT3sHL6A9OBoKeiyzeG5ZVy47jp2Nmgi86bawPfQyygbwhoCenTtGxSuYcv6p25hSXAJLxgaskI52/MX0tqczwz8Qgpnuhz3TFFQEtIsNlxSv2Dg+LvGt9JUsGxoTXoCY7apLza457iskCLzoQU6O5h4fxEYOa2gmEl/b9v5joWbQyXJBV77Lrgx0EbHBoSL8xMH26vlP2fy7c4tjueGZiQ4ok+1x1TBIyjhupme4NBrWcAqdDyeCEEG1fTDow0lIT8eecqYoq7SmVMSCpocd5QI3Dxdo1uxHCy0nrq1dzRpcsriUgew7BxFW0w87v92rzMwPYjE1Jgu4YF8xuBnr5+cc83c4eJxo5UCkr1niUlEcnjb8fME9frmvwW0ffycorOD7dXyo5jUO2SmJB8fwW4wCAj8Pq8tcMK+sQPyy1FnZ6TP5xPKvLqgyd118Lij/uzVVt1csv2TN68TwRt6smEZPlK8o1ERGDCer3RoNW07WlDqG0oMfJKZcbxD5OWhGbjqlZu4zmI6VRAXN4yISWi1nGbLBHYWFiiIxUzi+327h5dHqnAuL7P4J0RMd7CkLCQLdthdcQifnbRORHPPXtMSGF4m1hG3xDo6OkV2GwqlfK1lJELvBV36obvy3xyetfe3au7979fzRbnbtzxTb5oFnS84oZ4xmTkJ9soj49PTRUrDhwX3X390RTHtGwmJFNY+GIiI6CNPAIl3Hn6oq65xlDbyKP1n2S0T/omc6fu+SD/qGvtEJD/0clLdcQqyUh7RGjurSdiu1WGCSnIbw/LFhUE4FtbuyP+/WWbdPWs/6l4hLJqp3a3G1tG3D9w/rKujKD/aOnsFrmnLwpEXoE7Xy0RGc9hTGm11uZ3O5mQ/EaUywsFAsYAi1pCwdczo1LuLr6ka9f0nAO6PG8vWq+7H6Yfkpww0oMfbmPb5W+MrKKdmJCijTCXH0gEjlVc1ykevpiVVdVGZB23brfuHhTycnW9rh1YZzJOe9YdLdblCeMPWK+jHW+Y7OEDDtgPGM3REhNSGN8altkXBCZt2jeCeDAKwBROjgrk0azCvSX6eGhPTVshGts7zbKG8hq+KMIrgsRAe4zWaIkJKZSvCgvtBwLYWvHy7NWmCqdVvq9W77Csbtn+Y7rnw2IGYNkgkxuw6r5v7HxdO4FPNEZLTEgmHcCXkgcBuHyFN0UtARnPNzs4Nhu9Nlf3/NGyqwkHYOnNGvHxCvPREmyX/EpMSH4hyeWEFgGQEr4kGYkIv+flHia1669z1ww/jyiyA4ODpOfCliktv0jAdYsRK3gW8CMxIfmBIpeREAjAOySmIZiiYS+b0T7JqZHaL1TRWmNxkiEW94uvVZmus83aXuC5eiYkzxByAYzAXQTkHrhffT1HQHETOS3dVzhipISvc4ii6zYxIblFjp9jBCwQwAgLU5qge2e0EF/p8pmrt8UnJl/i3EbLZUJSgp8zMwI0BKS3xqD6HaK1gp5rQ2GJeGxKqm7EVOJihMiERMecczICSggcvXRVYOoGI8xkSHBYpw2kgFGi0aDUCQcmJCeE+D4j4AGB+rYO8fvxCwX2zyVLejXl7hfHUeMWCCff5VpcmJC0aPA5IxAFBNq6esR9384Xnb19USg99kXCpAH737DJ+NLt2shWErj8RRCFrKNnRKrBWPTFWRkCvqQoiQmJghLnYQQ8IlBWVRfxMOCxmLg8Dn9Pa4+cEWOzdonnflypWycy2iNZ/cbCNyUxIVFQ4jyMgA8I5JdeFjALCHqCE7qjZdfE7O0HBXwiWZGMynVqxF8mpKC/HSxfQiHQ1N4ZWfjt7Y+9N0YnIG81NIvP07eJ+8ct8ERC945OEc/NWCm+XrNDYCqnkpiQVNDivIyATwhE04WHWxERFkpl1IN1sbcWrhPTcg5EfHFjatfQ1uG2+shzTEie4OOHGYHEQcDMda+WoEaNXygw9co8fFpgTSwaiQkpGqhymYxASBEw2hFJQiq9WR2TFjEhxQRmroQRCAcCcOovSUh7hN+oWCQmpFigzHUwAiFCAL61tWQkz2PhwYAJKUQvCovKCMQCAWz3eGD8QlNSenF2BvvUjkUncB2MACNwFwFjhF45SsIRfp8yDp68m9nHMx4h+QgmF8UIJBICdqQEYnpvyUZRWO7vxmEmpER6g7gtjIDPCMC6/OU59oEQZmzLFw1t/kRbYULyuQO5OEYg0RDA5uAZ2wpM15TkVO6Z6WnCGEzTDQ5MSG5Q42cYgSREgDJayjpyxhMyTEie4OOHGYHkQoAyWkohRmoxQ44JyQwVvsYIMAK2CGDf2th1uyyncXDS5iYxIblBjZ9hBBiBCAJFl2+I/2RsMyUmbL5VTUxIqohxfkaAERiBwMELlabBNt9ckDUir90FJiQ7dPgeI8AIKCGwp7hMvL1ovW7ENGXLfnIZTEhkqDgjI8AIUBHIKTovsCFXmgVsLCwhPcqERIKJM41AYHBADHa3iIHWKtFXXy56b58RfXXlYqDlthjsahZDA70jHgnqBcjb33g10obuygOi8/wW0X5iReSI32gb7iMfJzoCzR1dYtKmfcOkVFh+zfFhW0JCAdjh6+bPseYoZnAjr98m8FFsXlyKHurtED03j0cUtX7ze+LOovsc/2pWPSUad3wu2goXis6LO0Rf7cW4yG5Wac+NQtGcN9mxDWbtbMr9UnRe2Cr6m5wVzKxu1WsgR+qfatmxyL/l+Dnx0MRFEWJacaDItkpbQrLyjSKHYVbHP36/zLbSaN+0ksvuOkK4cBqJAEik9WiKqFn5pCvlNSp0056xovvq4ZEVxeAKSKj18BxRm/6ML21B2+o3vh3BByPFaCWQkRFHq9/RksFrueVVdeLjFdkRUrJzY2JLSMvzjg8Pt+yU2exec2eX1za4ej676JwrmVcVnHBVX6I+hGlK0+4xZEWwUhCr6w1bPhCdF7bFBL7eWyej2ha0sTbj2cioKRoNSgRCkriAjP7ny9niwq0aeUl3tCUkVaffWmJamW8/NNNJ4eOP1+etdUVIs7Yf9FGKcBelogBWhEO93pDzkei6nBcVwPpqSkVz3qSokapZGzEC7G9Qi7Th1HiV/nAqKwj3Nx87KyZv3mcqii0hwaG3lmRUzp+atsK0wmhfVJFRm3fM2txoixb48vtbbomGnI9jqsBSqRt3fikG2mt9w6itKDUu7UB7alb8SXSV7/WtLYlGSACm2yKKry0hvT4v0zUhQdk7umP7pcXtmhdk/cfSjb69QGEsaLCrSVAXqyWJ+HlsPZLiG2woy0/Z3JbVWZrjS5sSkZCsgLElJCxOa0cRqucIlxLL9PcFWa7lfX5meixFDVRd+ETfuOM/cVXivhp/Piq05E+LazuM5NVRss5zXzMhCSHau3sii0+qJKTNH2sl19atev7ghEWeX5ywFtCS/4MrJa5e+oCoXfOCaMj+UDTvHS9aj86PfOJvOTBF4NN4w+Z/iLrMl0TN8j/alt+0a7Qv0DXvm2Bbj5EstL+rlz0U+fpWv/5vkWlr/fo3RG3Gc6I69Q+uy5Tlt59c6al9TEhCiCs1Da5HG1oy6O6LTchgfLbX1uvmvK7VW9RNT29dnB7uuV6orHB16/8mOkrWC0zzqAlGhTA4NFuj8sMMoP10hnI7qpc9LFoPz44Ydtq1AwagsKNq2vW1ch2SlGDD5TYxIQkR8ZXrRqmNz1BNxt12lnzurUXrPBOS1adIWUciHhu2fqKkZPiK5DXBsrv91KrICArrVl5TX8NlUb38UaV2tBya5WoRHQSOUaEkGuoROLtNTEhCiK0nzntWcJDTq3Pd+UVR7TwjEbr5jVDCyZS6KvYpKVbz/kn+wjM44IuRZPO+8eR21Kx8QvTc8h4xo3H7v8l1StJyu57EhCSESN1/zBdCAjH0DQz4+yIbSss9c9EXWWHinkypJX8qWamwphLE1FW2m9yG2tXP+9oErJlJsqEcQYb9zTeVZWBCEkJ8v3m/L0oOQtp2slS5E1QeeHfxBl9kBQknU8KiLUWRkAeW20FLg92toi7rNXIb+pv9DdkDPLCYT8UQ+bBmpZqYkIQQn6b9vO/EburzDpEI3lzo/dOnXSfayahyb1r2AbtqEuoe1l2oioSF6CCm9jNryG3oOBsdOzPsYcMmYiqWWH8Sg2ofepiQhHCMxQRFL752mzwyGRoaiso7DYdQdqTzwbJN4rdj5tnmkc9/kbE9KjIGsdCea0fJSgTFD2Kq3/AmqQ3YABvN1HZsCUkOSVrdVw8picOEJIR4aOJiRyVGDHCpzE5HP2I2mfUiLKzt6l5z6JR44ofltnnk829FeSRnJn+8rnWV7SIrUfeVgniJaVlvd2U+WX64ColmwroQTAgk4TgdYfelkpKekPoHBkkKXNPSJr5avYOUN1pbMySZWB2v1TWKN4gW3PHaf6fycvqVt+PsBrICQfmDlpr2fEuSP9qjI4lL66FZJHlAVjWrnhTwL0VNSU9I9a0dJJLp7OkVP5VdI+UFYfidnGKPwzYJ6fN02iZhSpSEk5U3hcqf3232q26Vl7z9VLC21cCOyWkUIu/DgDMWqbf6PFkmyNZVQd98q9JXsWhrNOsw3ctWQZiKjRq3YFguq9GJ8XreuYrhZ/w4+TB1sy0ZSu90UxS+GDpZaze2d4rfj19oW69sN0ZmfqdJm/aS6p64YY9t1bA8lkrrdGzeN9G2rFjfbCtcRJa9r97fd86urfCJ5ISlvN9ycIZdUbp7SU9IJypvOr70j01JHQbt/aWbHPNDST9ZkT38jB8nUvGtjvBShwSnUFZ5jNcp1tpfr6FNU1G23+ndJTQTB6c1OxgHSuVwOtakPSb6m2/43RTX5WHripPMuF+37nXXdbh5EFbsFLmQp2HL++Qqkp6QnKZCULQXZ2UMA7rrzCWywg8/5PHEScbXUjKHa8D2FSPxWP2mWGureKU8Vu6v7cufiB4YnEZ6WIilKg/ywYgyCGmwo54st58uTShtx149KqbVqY8IMTRIKTbiT5taLqnAAGcynbJRFFiuz8i2WSm48XpBqT/e9P65fIstySze+5MUTeSfv2ybVysjvNk5pTtNreLe0SmkMv10/HajvolUJ9rjlOByhPqSy3yIwBHvpGKuEGtjTkRckVhRjojSQklJP0KibBv5JE0//Xpl7hqSsiDsrh9JSyJm54g9LtPZ63dIsqEcOwfksjwc/7Uyh1ym9jkv5xi9mbXVeO2VuatJ1TRu+5eSAkHJ4k1KKsoZj2lmzYo/kzHturST1E8qbSYVGOBMpiOkH7fmO774xv/8644WOz4jFccrHk7Ttedm6P3P3G5sIctm5evXKPO6o2fIZV6tbTQ+7up3xsGTpDrn7qQZ3sHJPuU/uTFPPEmpKZfuAmSor9MVzl4eqt/0DhnT1iNzSVUlPSGBbCR5WB2nbtE7Zu/p63d8RpZ1+OJVUkdYZXLa1pJiUEgV2TDyoSTYN8n2OB0X7bk7faSUbZVnsibonl2dlHUw1DHQVk1WHiMptZ9cZSVmVK9Tv2TBsVo8ksreNuqWnKQnpI8cPqdDGebljoyt9fjUVJKSGkdXqi+OnTLi3qkrt0YU+X/fzCXJ9tq8u4vhIwoxXMC2FCdZcF/7RdJQhNJP6hc2pwVtbaVNu0e7JiW4ve2ru6QtLqrnKgvadWtfiaosVoW3HV9KxpPqCyrpCenVFOf1oDSTCJTLFFyWWHWo03Wn6dofJi0xLeLPxK9Tf55CD3KZXnCCREggJRWSMG2AEIL6hc3qebPrgz1tonbNi2QlMo6U4BgNztZULI/N5KBcUzFVoI4+KPWq5FGx76rf8HdS0UlPSI8RRjobfioZAWZtSztZQSlxvkdUIIT4zCE0E9a/zBKFZEEc93xDm9ejjrKqOnJ7t3t0wQIf55TRGEZtqgmLv0aiUf1dl/VqxEWtat0q+bsrC8hyNu78QqVo3/Liyx4VO+ooLukJ6bffOu+Ozz1tHqf9d2PnkxTHyZLY6g1xUkpsZTFLMMp0elbeVxnNUF3nvrfEm/uL8zeqSfJTvxIaMeq9U0JWJDuFg8FfV8V+Y/G+/FYZffjhateN0H21F8g41q7+C6mKpCYk6gKw1cLpjG0FJMWB8qsmp+kabIOs0oQNe8hyUay1ZT1L99GtwL0EPKDYhgFTq36R8tod+xuvkpXJjpRwD4EfvTi2N5MTLmCd6pX3mw98b1ZE1K/1N14hy1iz8kmSPElNSNXNbSTFPW2ycAx0Kfvg5Eik6LLadgTYMMlnzY7fW4TnhVxYhDd7xuyailKr2Dh5MQodv343SX6V0Z2ZNoCU6jJfJiuVJACrI0JZ99Waj6bN6re71la0nCwXnPjHIw200o0jsf5GSUlNSJdu15JefLlPzAxQMyU3uzZli9rQ3qwM7TU7hYdfJG1eu3OKtba23dT1qe820nd4a8vH+V9mrHKU/8GJ/sSWAyk17vicrPxWZDR8ffHvBGxuYMnsJaGM4TIX3Wd73lq40EtVrp8d7GywlUsrf/WSB0j1JDUhHa+44fjiQ5mrGlsswRy3jvbfXGUB2Wm6Bpngx8kqqey3U12HoY6+7vl6jpV4ttc7enpJfUK1obKtTHMTlsRw7q9VIi/n2KTbfiJNDPa0amqhnzbnfU+WBUocj4SvjWSMlowiiZjUhAQXIXajB3mvpbPbEkzYAcl8TkczmyGzgp0cwX2blWv22PA1KtFCXqq1tiyc4h1B4kBtrywbx2MV10l4qhKptg6r86H+bgF/SDUrH6crmsPoBVPCjnPqi/xNu74hy9AWpxES/GVTCQkETUlJTUg5xHhsgw4+sqUCOh2n5dA2bDqVs6ekzLZvVdztuhlpPD/TeUqFNizcc9RWTrOby/OOkwhJZe3LrB67a5huIWIGVdko+bDwrZLMot5a1eMmuoeKLFZ5hxQICfZflJTUhERZa9E6Z7MC9NM02uZTmAk4Jcp0Dd4r7VJTRxdJqUEab8xfa1eU6b0Z25z3/6HsZ3/U77MzLcxwkbqRt7c/uvHvIBbMA5p2j/GNmOCon5pURkjxcpcCQ1MrkjRer9/4FqnpSU1IcNvhNBqhbIU4oODyo+RalW3HOE3XsLeNkv7ny9mObUPbjZtzKWUfuXSVVDbKt/sgYFbXI98tcSwb3jNjmZDIO5EAAA9wSURBVLov54mGLf8gK59RGbW/a9IeJ4mOT/na5+zOm/dNIJXpd6aB9lqyjNTw2klNSJT/9FrnbHYd6kRs8v7MbfZRLWQ+qyPVChrbSqzK0F632n5i19aBwSHxJDG6CXbtU1NVUytJ5qwj8QnkiGABiAhrRw6Ue3Db4ZTgcI1SFvI07fraqbio3Fexesc+QkpKakKasN7ZgNDonM0KVASI1Cq61TlCLlklynQN0zFKeml2BkkeOwNLu3pgB2XVRu31j5bTRzN7S+zjzslyr9c12YkW1Xv41A0/19VLHyAThhmxNO//zlZOFcWEr6d4pL66MjIGLQemkERUaTepwABnGuEP6fN0e+NDKAB1v1RO0XmSgqLM8zerTWFymq6pxFJziuEmlRvH3n616KIQnvqFEuXD6yQlzSD4pnp+ZjCigkAZm3K/JCukGSm1HbP+59Rxdj25bOrGVUofqORR2YLTetR6Z4G2zqQmJIrSUtdsAKpWye3O5+wwdypm9wzubSK4nJWd6+RHSVtXQxs9bpYsv7O3T1CnhfDLTUkvzEp3xDDFxBUMpexo5Wk/vVrcWTyKTB5GYuqtNsem61IuuUyqFbTfGHSV7yHLCKKhpKQmpL8SXNF+oeCG9jmChTGIAO5BjIkyXatpbjM+Zvn7y9XbHZVbktI1l14eqUahiFzilKjeE45X+BtIwEkuyv3eqmKBUYqRbCi/rUZJCEFNeV7mGey2Nt6ltMFNHhXy6LlRSKpCpUxSgQHONGLKhuitUimtjqPX2hshatubTnS7irqwbUWbnKZrGD2oJCpZQBatT26VOuAFwQo37XWYO7R19dgWTbEuhwnGwKC1hbptBVG+CY+UKrZDkkjq1r1mKpmKaw+U5dceOlNhLC5iHUy2w+k42ElzbZzUhPTQxEWOCoWFb2qCRbdWEe3OjV4o7fLiXubh01QxIvm+VwgYaeXGxKlCLLCPGkcLJLn/rH3UCex9c8Lg26xdTiLF9T4svd14pcSueWMa7G4lKzvIAKYJsU7wAulERLhfl/kSWbSkJqR7vnZ29QrFVkmPfLfYUbGgeBidyUSZrt2ob5bZSUeYFzgpuLy/p9je8tuuQqeRnazDCcfHpy53lBcfDoKe+hsqRfWyh0iKKpXZikzgQ0jmcTq2n14Tc2ioUUecvihqBU9aQurq7XNUACiTlVdGLYja8/m7jpDKRdkVd+ojjzopNdy5qiYVOTYVjvSISa2PGkjySQ0BG8umel241RD7dRKjrJTfKuGvQTQdxebW8ipRR5pyv6KI5lselbhsVu0zEyZpCamuleaCdo4hqocZiNprN+ubyYS06Je9XnIUYXV0s5GUEm9O1rcyv0jbBKVz+JT6NTGQJDbmmqW1R047YvbO4vVmjwby2kBHnahe9jB5dNN62NwzQtvxZeQyUJ8Yiv52Ggm4SuTanpv09ytpCQnxw6RC2h0X7lbfIArXG3ZlynvY60WZrmGzrGparbDAblzPUq2Luv9ssUWIpC8ynL8IaqPzqsoXj/zYt+Y0zZL3rSytVT6ro6yemydi1lSV0Rt1QRvCJy0hUb0fIrqIalJZUHaarlE25JrJh8AEkvicjlMU18mM9VEDSb69aOQoB65u4WzNScaTFqMroyxB+Y39ZZJwnI5wEGeWVCyhUUfbMfMoNGZle7k22NUsqpc+SGpf0y7alhEpT9ISUmE5ze/OqgL1/zqwxHZSMOp97Ldzk7adLCXL8E0mLcyxlRzYykFtT0ObPsLqUcJGXbg7CVsCOTgRkbyPgItmCV/tVHwz1W9826wY36+pBCDoKlP7Mpq0hETdob9W8XO77H2qgjrlK7XYZiLrsTrCZ5JT2fL+P5dvsSqGfJ0aSHLHqQu6MqfnOLsyCdt0DQ1s3j+JTEgtB2foMNH+wD1JXJRjV9lu7eNROcfeOYostenPiKFe/T8gJ4GSlpB2Eo36EAHDTXKaikkycDq6qRvPHLxQSSYklT1yVvKkF5wk1TdWY0uE6drT09Mcn3OzhmYlZ6yuqxhJWllrQ1aVgJEgCaqbD7c4qMjTelg9+EDSEhI+dTuRAe5vPeHO9gXGhpTy7fIg+obbRHUFi/rhuN9rKr9DCyT56OSlw1VRpmuIvhK21N98kzSCkKOM7qsjQ7Vr24z4bzIv5YhtJ9FKLQemkmUBeammpCUk+OmxIwN5L/eM+7A2sgy3xzNX3UeuKL52m9Q+yObXGg1GWpS2gryQKNO13cWXVN/puOdXUSqKr2mVGG0grPpN70YFA9gTUQjRiwwq2EWlkTEsVLeXjRr00GnLg5387y/dRFJQKyW2K9vp3kViiCfUDWdrfiR8kbRqi/b6oYtXRGN7p+N07ZnpaaI/oHvXrPDqvLCVrLRQXCsbJG35A201ojr1EaVym/eO0xbh+VzF1Qja5XaUlrSENHfnIZLyYC3GbaJsGNUqqvb836u2uq028hzVzgp1Pjrp7jTKS6VUUwqs34Hote01O1+w64gXcUY823LwR9FdSQu0MOJhwgVVpYXiUnfBq3iQRLkRUrjmD35K4Y5Askdovo/MIE1aQpq6Jc9RIaAkMA/wkswUjXLNa1QNOEWj1IM8vx/vX6BByiL1uqPFYnrOAUf5jB4RvPRDJHT24vsjitqQ85HovOTN1MEoCz5vSyKgHpv2jDUWY/l7sKfdlYsTmB8M9dt7WrCsFIvqN48rtQtuWCCr25S0hER1z+Emtpi2M14h+FwyIw5tGW7OMSUyK9fsGrZ++JUou/ZT8445Ttc+W5njl0iRclqPzhuhWNiFjikTdZRiJhD8SuNrEpWEtPngR0klqfpIknXVZf1VwB84Ql9TExzHqZCDrMvtVE3KpVKnfCasR90aEmW7ApQX0xAvaf3RYjIxSLJ4b8kGL1VGnkWoJFke5ei5wl8KoJhTYG+ek0xGeyUv8g203BLwqiiVxuwIckK0WChuX32FaXUYaWA3f/eVAtF+Zo1oyP7QtkyzeuS1loJppnU4XXQzdZN14tiQ/YGAZwBMXfvqLgmEMoKrk76aCwJbVUAI8NGkfYZ67mWqJtutQkhUuaj5YKphTPBLhetmf7iHJO91GVzAoI/lPWO5+K0jJDifd1IK3Pc6bejp6yfVo5UFSu01wZHZr4h76lC3XWhuFVngiE3bFrNzp+AKT/ywXAA3v1Lb8aXKCla95PeiZtVTom7d65GXCkZ+1BfbKR+2igwN9Llqntupm5NMXu/DENSPFERCgkz4A7kAJ/lbEhKuNe74j6jf9I4OAlyXz+hu/PJDR0iIJmKmLMZrlTUNZmUpXXt8aiqpLlm3U6RcauXYByfLdDp2OASfpNaJfE7YwhWJnTz44OBXQuwwEItXhfPr+YbN7wnsBfOSMPWiOkfzS267cloOzfTSHN2zQSMkrXBW5AJspGcGjDqRuivzI++c1TPIoyOkV+astlUKqTBwJ+I1UT+Ho07I5Vd6mOgsDvVizcmvlHagiIStxFh7/NVXc8TFWzV+iSIQf76jZH3Ea6GdUsXiHhZ8VdZx7EDADvrG7Z/FnWgx+vQzhZmQEAS0Jf+HCBwgosadX9BHSLBx0SqC1Tn8/XhNVAf2kAFfoPxKKiMzaqgiimwXbtWQsDXDHF/fopEi8dSOLVa25/GLqDCKwFqNn2mor8uVy1y/2oRy4DWypWC6UPF5ZIdBaAmpKHV4lDTYUR/5R4F1OvIICVsYzBTCeM2vkQN1+gRPln4lahQUtNnP4ItYvzLiSPkNjNxGQKFihkVpbFhVNTR0q8S1a16ILBZT5XOTr/P8ZlGX9WpcR0twENecN1n0XFP3H6Ztc5gJCf/08J7INqBdZEK6f9wCktK0dbu34dACPYPg4xqLuX4mSpgnSRTlVT9v5/CrfkqMNVm3PHp1FKciO6ZOeHFq17wYFUWGg7aO4iyh4pxMRX5jXoyW8OWvNuO5qLSHTMiLRwm4U3FLTFKZyfX9YgTqR36Qh12yIhfU3Vb0s+7CE0Jt+tMRbw8oy+oZ3NOtIWGtQiqC3dGvrz3YsW5XD+7BPsfPRA3vjbrdhkKykhcRQpzaq72PoJN+TI+t5LG6DkXuLM2OTH2wr8zLiw3TAqwbdFWoBYawks3NdRBg57nNAh4dVYMNeGm72bNNu75RJqbQEtIvgTB7rhdG3qHe6p835ZMJCR4IKX9DQ0Nu3gvTZ5zqq3cRQda0ol8uOtVnvG9Xluo9jHa0hON07sYzp6pMlPz4lAulwItUv/EtUZf5sqhZ9eTPPrIXjxI1K/4oajOejUyRsIkVio/otXhuaKCXUkXM8sBuCjZTsIfBJ2lEMaleah4RBWQK+yMQKtyhdFXsjdhcQVhVn0xGckLIceqICTjG88+uc6RcxjzG6/gtk/GevI6jboSkvcHn/iMAL5ROJCTvwwwAMe04xQYB7E3rb7klYI2NLTX47ZT6Gy6Lhi0feBpBqhCTkzyJcJ8JKYa9+PzMdDIhrT50KoaScVVeEIA1d3XqH1wRE54baPfRpMNLQwLwLBNSjDoBfpzk6Mfp+OKsDNHb759VdoyamNzVDA2ItsKFyqSEbTmc7iLAhHQXi6ieUTbYSqLyEqQyqo3gwh0RwJ6/xu3/JhETPCxw0iPAhKTHIyq/VFz3Yk8bp/AjgGlc7aqnbYnJi0eF8CNk3gImJHNcfLt6q6E54n1Sjn7sjn+bZx4+2jdhuKCYIoDNwvg6Z/zCht9+7nWLaaOiXBkTUhQBxi7/X4+eS1o7gkV2favzl50oistFRwkBBLdszP1ymJhgItHfdC1KtYW7WCakKPVffullEhHJEZNXp3dRagYX6yMC8KBZu/p50XEm08dSE6soJiSf+hNW54gGAkdrL8+meU2QZJRddM4nKbiYoCOAyLtBMxYNEmZMSAq9ASvue76eIx6euFg88+NK8fq8teK1lEzxmzHzlEZDkohwROgpTowAI/AzAkxICm8CCElLJl7Pj5bxOoIC/Jw1CRBgQlLoZD8JideMFIDnrEmDABOSQlf7QUjP/rhSlN6sVqiVszICyYMAE5JCX3shpHtHp4ip2Xmistq7P3IFkTkrIxAqBJiQFLrLDSE9OGGRmLPjkEDUXE6MACNgjwATkj0+pncPX7wixqzNtVzgfmxKqkDYb5gAxMPBmqnQfJERCAECTEgeOwkhofadLY+QT0FppfAzMIBH0fhxRiB0CDAhha7LWGBGIHERYEJK3L7lljECoUOACSl0XcYCMwKJiwATUuL2LbeMEQgdAkxIoesyFpgRSFwEmJASt2+5ZYxA6BD4fxcdQ2DwGRpLAAAAAElFTkSuQmCC;" vertex="1" parent="1">
          <mxGeometry x="83" y="100.24000000000004" width="52" height="39.53" as="geometry" />
        </mxCell>
        <mxCell id="VdugXz_NpYzOVKXepFqS-12" value="" style="shape=image;verticalLabelPosition=bottom;labelBackgroundColor=#ffffff;verticalAlign=top;aspect=fixed;imageAspect=0;image=data:image/png,iVBORw0KGgoAAAANSUhEUgAAAEIAAAA+CAYAAACftM1SAAAGg0lEQVR4Ae2biVMURxSH9w9JotHERKvMnVQl0UpSVoIS73iVIkYEwQu8r4jRKAoYNZRHPGIwqETUkoBnFAQkGE9A8EJBRAIqeLGHu8uy+1K/Mb1Z15nZnZneZd1lqrZ62Wa63/vm9evXr6d1JHPZHEZqsV2nO5ZiuvVkP1UZt1GFfjVd1KcExOeSYR1Vm3ZSvfkINVsvkLGtgexkk9FIukrnXmV1tNAdy0m6ZvwlIJRVCh0Pqsa0h+5bS6nNYXFXT/JvJwg7tVGjJZ8q9D++kADEgFUa1lKT9QwROSQBsAoBBCBUmzKDBoA7lDrzAXKQneksWgogGi0nghYCg/LUMkQZCD/q4BOCaTgwxd1LDJM2h1mShO6upTjorYFBwcwidemqjL+GDIga024pDqS7qE8NGRBwAXZqFYWhY2YTKqXRVt8BAg+7yXquAwRA1JsPd4AAiGrTrsADUd6SQvnVCyjr70m0PS+Kth6JpIyCaMq+EE8lDUt84sSvGDYEBojzD5Io/fh4mrv2Cxoa9zp9Ofolyc+ohB60eFNf+qMsgQCNl0Nvczw/c/ht1jjXvJxWZQ6lQTFdJRWXgzJu3juUWTyRCwyLvfk5q/ALiN0lcTRsyhuqALjDmbr8Yyq6tUgTEIOt1r8gyluSKWn7APpqzMtcIDAosKq9Z6aohvGo9bL/QJQ9Thb8ABOed9k3shNlnJigCoZYLOGzoZG4MYyrFYiBBIzM4ljFMBothf6xiI25o30OgYEZMKELFdxcqAhGvfmo70Hk3ZhP4eM6+w0EgEQvel/R9FpnzvU9iGlJn/gVArMMBGPexhk3TXt9CyKnLKFdIADGyPjuVPZ4pVcwxMJsrs5yzurP2w0EYOwsivEKRJUx3XcWgcixX2SndgUxI7W3VyCuGTfzBQFTPHp1jhDcpO4a0q4QYBH9o7pQ6SPPw+Oq4Wc+ILA6nL36M/p6/Kvtrjxzlqw8WDnTo1VoBoGl8fSU3gGnPIOAEitbT7OHJhDHqubRsMl8Fk4QGOsPX8Qba/cM9wii0vCTuqGB1d43k7txswRAQAKmqC6R+/BKzhjkGxBIiMR+/yE3CLCGZdv6O4XlvSZBzsPT0FBlEdvzo7hCQDhc+nCFU9g/r83l2v66/SOdbUsBuWxYr3xoRC18j5ugyCOIJVXilnzErY/f//K8GlXsLAtrv+MmIPzC7lNxok8LEaGr59fyvaDWc/ZKMQg4NC1Cud674reBohBgvgjMhk99U3NfI6Z1l+zDdZhcNSiMLNdnj9IsHGDEJH5AyFi5CuP+fU3WMM19Ld0aLtsH6xMb3+6X7KKLV9gMJZkQUuWpxiXUb5z6tQqG3pErczz2g/5vGHe4c8BuuPR+waaDEZqfEiwCQo6d/RYlJPeizYcinMIiucs2cvB9ZHwP1f3Fr/zU2a6cTqirMWUpA4EdKNdxzuM7stpMUOaMw7/tTENi5Td75PoOi3jFa2tA37eeZCsDcaZpGSFBKieE0rp9Z/9Pw/OaLeQcMYPuWt42H1IGAjfzTLbAq2MIMKF4RJVwxK4BGmtbrmywHFcOAg4oLILPBs2Ww2OdELAHOnjia5qsbdT0Hk4fI6e4e909a4lyEGgkKX2AJoExfPDkXK1hQ462lH/k3LepuH6xE6y7snJ/P2gtVwcCWR94ZaX+gP2/+5OD7xmswTkiKYQ25JSVq3tsu64OBBq98HCFqi288QvepZO3E58RekFaH1VQh07qJrxHIaekN3Ume6N6EKwDZICGe7GzPTC6K6XtGyEAZPeiPFQ5k7A7xazFmxIWhSj3/P2kZ4C6tqvkO16ydb9kAyqpxuGlsQ6Zn9aHxszqSVAan4hZPWl6Si/amDuGTt/9QVJoOEq867B0S7iQ68ALIywDjjwoZhdsFCGyPVAxQ7IdKfnkfscrhmLvZasCIddRoNfh+IXYFXIgak37xDjIrzUC/emqkQ8nEcSukLOIh60VYhxCzyLM9qYOEJWGNaIzBsjosCGqZqy9iPfgpKLUpWuw5IUMiAcS/kGwCIv9PoXCmY1LhjQSe+OWWYhwuO0fy7Ggt4pm63mms2j533FHW5Afd8zxePZTAAFETw/AFgbUkWetDhmngu9ZT0nOFK6m4QTBfsR58CbracFCKvSrXsAhk0rXjekCAOji7fUcCNcb2xxWMtjqqMl6lnCa9oYxg7CTrPVJ8bq/Qr+GsFmDrPRdawnpbTWkRHlXXf8FpX8rhBrVE9kAAAAASUVORK5CYII=;" vertex="1" parent="1">
          <mxGeometry x="92" y="201" width="42.58" height="40" as="geometry" />
        </mxCell>
        <mxCell id="VdugXz_NpYzOVKXepFqS-13" value="" style="shape=image;verticalLabelPosition=bottom;labelBackgroundColor=#ffffff;verticalAlign=top;aspect=fixed;imageAspect=0;image=data:image/png,iVBORw0KGgoAAAANSUhEUgAAASgAAACCCAYAAAD191UlAAAgAElEQVR4Ae3dCfR21fQH8PzNMkVkyhASSchQSRR6M2RoEKU0SKWIFCUaJM2olDIXDUoqJVIqEUrGUskUMmSeZ+5/fa61X8d1z51+z/P2G+5Z6677PHc4wz57f8/e++xz7lLFmEYKjBQYKTBLKbDUkqrXv/71r+Kf//xn8Ze//KX4/e9/X/z2t78tfvOb35TH7373u+JPf/pT8fe//31JVWcsZ6TASIE5QIGpAtQ//vGP4q9//Wvxi1/8orjuuuuKz372s8UHPvCB4sADDyxe97rXFXvssUd57L333sUxxxxTnHvuucWVV15Z3HDDDcUf/vCHErAA25hGCowUWJgUmBpA0ZZ+8pOfFOeff36xzz77FOuss06xzDLLFLe4xS2Km9/85v9zuH7b2962WHHFFYttt922OP7444urr766BLgRpBYmc46tHikwUYAKM+5Xv/pVcd555xW77rprsdJKK5XAc8tb3rK42c1uViy11FLZw33gdetb37q4+93vXmy00UbFcccdV1x//fUjUI28OlJgAVJgogBFa/rRj35UvOUtbyke/ehHF7e5zW2yYNQEVHEPYC277LLFNttsU5qHTMYxjRQYKbBwKDARgKI5cXBfe+21xctf/vLivve9b0Fj+r//+78ZARSgolEtvfTSpYl4yimnFH/84x8XTu+MLR0psMApMBGAAk7f//73i+222664053uNBFgCi0qzsw+WtnJJ588Os8XONOOzV84FJgxQNGehAvssssuxR3ucIcSnNp8TQE6fc60sVvd6lbF6quvXnziE58ofVILp5vGlo4UWJgUmBFAASdxTSeddFLpCO9j0gGxOPoAFU1q0003LWf4+LzUYUwjBUYKzE8KzAigmHbilvichAl01Zw8RxsSVsCRzs/UFaSA4O1ud7vi8MMPL4M9gdSYRgqMFJifFBgMUIBBRPjWW29dhgW0aU/h7H7wgx9crLfeesVWW21V7LzzzsUOO+xQhhOsttpq5YwdoGvLC8A98pGPLD7/+c+Ppt785MuxVSMFSgoMBijak8jwe9zjHq2aE0BZbrnlii222KI0B4UieB/IOSxz+cxnPlO8/vWvLwBVl/AE2pcIdP6vMY0UGCkwPykwGKAsRdlpp52K29/+9o3mGY2ICcgk+/a3v136rIBS6jvy/29/+1vxy1/+svj4xz9ebLDBBmVoQZMmJd+HPvSh5exhmtf87KaxVSMFFiYFBgEUQPjmN79ZPO5xjyt9STn/Ec0JgB199NHFr3/96/8CpRy5BWN++tOfLtZaa63GvJVJizrrrLPGsIMcMcfrIwXmOAUGA9RHPvKR4gEPeEDpHK8DKOBkxm2zzTYrFwv3iQKnnVlUfP/7379ROxMM+tKXvrT485//XJqKc7wvxuqPFBgpUKHAYIB605veVNzlLnfJOrSZZ3e7292KK664ojTfKuU2/mXy0bie+tSnNs4OMvPWXHPN0lnfBwAbCx9vjhQYKTBrKDAYoLbffvtSQ6Ip1WlQAOrpT396ceONNxZ9wYMJyYluTd+d73znLAiaGaRl2VuqbxmzpgfGiowUGCmQpcAggKLhbLLJJo2zd8DDnk/Aw/N9k3cuuuiicpYwFyflOgAzkwfQxjRSYKTA/KLAIICirWy88ca1mlNoU8DjyCOPLEMIhgLUV77yleLe97531s+lDGv/bO8yAtT8YsyxNSMFUGCqAHXwwQeXO2MOBagvfOELxb3uda9WgBKeMALUyNAjBeYfBQYBFB/Ri170osYlKrQbM2y0myH+Ie98+MMfLh3t8grNLD27bmM7Jt6QMuZfd44tGikwvygwGKBe/epXlzFOTU7yRz3qUWUgZV/tBgDay9zeUtbd5cowi/ewhz2s8NGFEaDmF2OOrRkpgAKDAcpHDu55z3tmtSigcsc73rF4xzveUUaPA52uCaB9/etfLx7zmMdkZ/BoUgDqGc94xmAzsq4+6ulglgK99HDN0actdWWM10YKjBToRoHBAGUdHu0FSKRmV/wGUO498IEPLPcUt5Slq2DzKVlGA+Aiv7qzQM1DDjlkYvuVqx9AsoWMYFGaGfPRYTbS4mhBoQB0iF+tW5eMT40UGCkQFBgMUEDkyU9+chkLVQcecc22KosWLSp+/OMfl0CSM8WAA8EHAkcdddTiLVwin+pZnJVlNFdddVUJKl3BLxruHIAEPG0l/NOf/rRcAO2zWE972tNKDVEYg0PQ6RprrFHstttu5XrBH/zgB2VdmaLaNKT8tC7j75ECIwX+lwKDAEo2tAxAQnir4JH+BySWvAAzWpdv5FUFmjYCIKzv22+//crQAu/lfE/ypz0BPoGgQ8FBPdTHbKFv9NmZQV2BqvxpgOnhmnue0e4Xv/jF5e6ewLevn+1/u2K8MlJgpECVAoMBinB/73vfK1ZdddVSiJvAxD2Czdx7zWteU1jHB6y+/OUvF1/84heLT37yk+WHOwGOrVZyZmMAn/xoNNbr9f2IAjADiEy2Sy+9tNhrr72Ku971riXo5GYLo9z0DEC1SRyWPbFsQ1wHvlWCj/9HCowU6E6BwQClCKbREUccUZpaBDYV4OpvoOLwHBB60IMeVO4vbqaPNgIc2rSmyNNzAkW/853vlNpY9+YWJTj9/Oc/L9773veWm94Bmahb5N/1HO8BVFvKHHrooSVoA+8xjRQYKTBzCswIoAiirwdb9hKC3lW4gQxQCmDq+h4weMhDHlKcfvrppcO6q3kXmhOtz0Jn2py81KNr2bnnAJW8mIg77rhjIQKeyde1bjPvxjGHkQLzkwIzAigCCKSYaT4JRUhzQjyJ64AACPBTcWj3Scw6YLrvvvuWzu9JAFO1TernyzZ8U9dcc01v7a5Pe8ZnRwosBArMCKAQCEjZsvfMM88sP3NO8AlqVXhn+p+mxRQUfmAGra9T2vYtnPr3uc99OpuSfeus3Q7b0Lzyla8sfvjDH45a1EKQorGNU6PAjAFKzWgn4oY+9KEPlaaT2a4Q1r5CXn1ePsCJM9qHFoBTH9PJs8DskksuaVx4XC3Xf2UD3Dj8r3uues3zQOqDH/zg4MXSU+vxBZ4xfsCvNH98kR6uud+HvxY4Oafe/IkAVHS60AMzcj6uySdFUKvC2/c/s3GZZZYpLK2hqfXVnDCdmC17UwVwttUhgMnzHPqOaE8XkPIMULVn+re+9a3eG/ZNvdcXaAH4FP8IthWE6+Mdvojt+NnPflYOshHXtkBJNOuaPRGAilYZmTAAJ/GWW25ZLL/88uW+4X2c0SHcAAEwmeU74YQTynAC+fdNGO6UU05p/QgD0AIq9jlX7yc84QnlJ7GOO+644t3vfncJkOuuu245+8jP1OZv0w7Atueee/Zy5lfbh57XXXdd6dPi10qPa6+9trxnQXZX2qAHoK8+nwovATbYhEaR1sl7cS+9nv72nmeEgNCsI/peGe5VQSCumxXWXs/Ec95ND8/0SdEuAcAGCx/lEOpi8LBSIQ4ar1g9myT6nBkfp7pUk/CUtA/S3/pDGfpjTJOhwEQBSpWC2TDVySefXM7w+Rbe0ksv3apREWpaizV+a6+9dvGGN7yhZBRMWRWoLs1XF9qTjzsAFPnntCf3xEM9+9nPLs4+++xSiENgMKqD0Anq3G677cqwgjYN0X3hB8zSofUXEkGI0KV6CBgFlgC0i+ASerFnF1988X89j05A4+qrry4/QsGfKK7LV3jk634kvrzLLrus9K/FtfSsDDOlgICJe/zxxxdnnHHG4i9B6w/m9vXXX7/4NbSxnOj8888vPwSLzrSbT33qU6VvU30cPpBh8OuT1Af90ci3FA18eMFgVHe4h6Y+gYb21XTaaaeVeVT7wn/9Yf8y61THNBkKTBygolrB9EYcIQGvetWryuUjOjIHErbv5QQXW2VkMtJjsFRAIv+2s3cI13nnnde4I0JoTgI/mZGi2QlrLsmTOfDWt761WGGFFRo1KaCHacVHEbq+7fC8suzoUEczAEjjo+U11Vlb0JHTfvfddy+j5gWVRlIOgDDDaf+tFVdcsdQUacGXX375YjADJL5fCMRthVPtG/31uc99rtxmBxjQSJ7ylKcUBqiXvOQl5fNmfO01//73vz+KL8Fff+t/fUDrEsxrZvh+97tfWRd1ovXYpbVrQpOvfvWrJU8ZINsGqaAxzfcVr3hFCZLVsmjjuYFOf9j+x2TMmCZDgakBVLV6BBRTY5RghOr5uc997iBNo1qW/4SOwAA8IFEtK/2PIbfddtvihhtu6AwigBfwMA3SvKq/AXJ82KGvFjVJgKLR0mqAql0ifNorknrRjGgNj3/84wsbDToe/vCHFy984QtLU01dAMdBBx1UasIEWNhGtMl9YGAN45Oe9KTisMMOKy644IKyHAL75je/uQQo5hPz+V3velcUXwLglVdeWYKjfNWFpvKIRzyiBFPv00qOPfbYchvoxS82/FAf2tYLXvCC0tSu9kvTf/xgqx9aXDWNAFWlyHT/z1uAIjgEyEie09qMhNR8I/zXvva1xZpCF5LTHuRvuxf550ZVo7bYLRqCd/qkSQIUc2WXXXYp28qv51uFAAedAqB8qZl2xNTjRAZOaOM5miPzkFZEy/IFaCBHS/E+vwsNDMAxx7zvnveAI41NewKggI1ByyF/eaNTFaAsiWIWGhAc8mpL6Kx8IGP2Vx83AVL13ghQbRRecvfnNUB96UtfKh3eQKLKhP6HCfba17621USq6xJ+KaYIEyznjyIcdl1g0tQ5XevyjWuTACh5ABDaBLARROqLPGY1gbI6pQD1nOc8p+DspT0A35VXXrkEEE5mfhzAtM8++5QLtU0AAB4gxJG/yiqrlKYcQMmlACg7sgJJB5Oe6cY8SgHKOk8Obfc9p3xA1pbU58QTTyxNw7p+b7s2AlQbhZfc/XkNUBy9HO45gAIqHNBmXvqChy4yUpvtWXbZZRvLwPC77rpr7zImAVDAh6nLNGNqAgizooCG89q9ACggYeYUkNnri//Hgmxajql47/Ml2UFihx12KH1CgMl9g4EgWO1sWsAdAGXyAKA5lOUjsPyAtJ7UxOOXcp+552vT1lC2JWAqULbJnZCCVFX7HQGqjcJL7v68BijazXLLLZdV8cO84yDua37pIoJNGPhdciCI+ZmAHM59QXASAKVMznFAzR/z3e9+t/jGN75RbLTRRqW5Bni0nYkGoETrW8jNj8RnpX0A6Nxzzy1NO74kjvtTTz21BA5f7vEMbcwMFg2IyZZLAVC0ItqXA+C5DqBSDQoomXF0n1YGuABqWzJrxzw1Y5cCUfpb37uvvcoFzIDJNcCmHqMPqo3S078/rwGKQ5PZkPNBuM6M4NsYClC0BeZKk5/LvS222OImASjgAgyYoXEwOc3+EUphE3xFAEpYxwYbbFD6y7wH3JhLgGGdddYpBdh7puGdCTSnO1+cnSUe+9jHlsBgf6xcCoAy8yh/B9DhYAeiKUCZxTOL6L7n9JFBoS2dc845pYM/1++ACigxUU2MyN8gJSxCOwE0TbCuHaOTvI36k70/VYAK/wcBCAbA2OlIlv6miRjRPRtMiSHl0zd5r4sGtdJKK5XlDQUo2gOhbgIoo/JNoUFpEy3ATKPJguc///nFpptuWh7Pe97zyml99eJQpslwkptJFf8UCUAxlWmiz3zmMxfnIS/tdp1gA7GTTjqp3GmCs5wWgza0KdoP35E+CYDqMounzsIavK+Oji5OcoBMC6qabsFrTPudd9651CwBn6Ru+FSdxWMBojpf2ghQwRlL5jxVgCIgOhmD+3jCNtts06h2MxF8qsr0/fve975ydMeUmKdv8s7HPvaxcmYoN5K6zn8k9ikYtU852scHxVfTZOIJc+Bb6VvGTEw87wJ5wkozQQsCqM4OdOWnEV9Ee2G2VQFKHrRLsUxCE2hZ8b62mBkUBBszfYDN5n0c6xzxHNv6/YADDig1E+/0AShhDuK2xJwxJYUbCN5sSupsy+YAo+o5JkbMIno2Tf478I6jet+zI0ClFJv+74kCVHQwwSD0GJQQcHIyL2gSObDASO4RZlqW6WHR5GbYgBUgIGBdwcpzzAPLVnLgYSRlphjx5V3HkE1dQOD4ZrrM4tEYljRA0QbQX+Q7UzSlHc2IY1v8lxkvQMQh/sY3vrE02bQbPWi0Nge0BAQ4pcl/AOS+yHA0FE4BTGhmTDTA5j6TTvnuC8Y0aEWSj3I222yzMj91pTkZrMwqbrjhhqXPjNbWFqWtDIBYBab4r88BtlUOQ9IIUEOoNvydiQEUZsZoRmLMyISwdCQYY+gZQ5kdon3ZLYHQtQFJ1IVzuC3aW/42wOu7HEUZTFEmEQDMmRPuoYOp+6qAt3WbMmYSSc6PZKDI7TwKpNw3E+e3QSCARt2ijZzqNGH/0+Q/E07clHoGAAJiznham8P72u554GPWNDWfXGe6yYdJ6lm0RTPO9zh8ikyfNiXv2pAwx2/6g6/soosuasome28EqCxppnJjIgCFMTEY9X3zzTcvfRs0IcKfY5Su1wk+zYpWxZTwVRUMT/hyyT3rwcTQCCNoqof85c0nQSiqQpgrg6Axn5iITfnzTZnSB6whwLk8q9fVZSYA5X1lOuraFfcDPOJ/+mxcy9U9zT/ei3eAniPy1z730v/R5sgn6hrPAbv0yNUj8mkDKP0hBoxZOySNADWEasPfmTFAYRjCKnqY74HJlNMmuoJS03OmhTnTjYBh8oVAYGS+FU5bEc9mqbrUBQCa7fMBBUAinxCUIG1aBjAWS8R0zTnHow2AGlB6Rx59kudnAlB9ypovz7YBFDeDcIt0IqBP20eA6kOtmT87I4AKcOIjAhyEtQsghPAOOdNWCL2p4AsvvLAUfEzJ72WmiJ+C1oQRmzSbtGx1BlL8XrFdL9AFVEDCoQyamWlp8UJmr9raq3wgyXTyft80AlRfiv07eLbJxMM7fF1M0CFpBKghVBv+zmCAInC0lbe//e3lUg4Cngr9tH8DB1oPs5KPhbOWueV6V2Cq1tF7gA342H3BynxOXb4Q4Pe2t72t9Fdh8rb2Aj3PATza05A0AlR/quHLEaD60222vjEYoIATzYkDmGBPW3OqgkloPUITTPMDJqAx03pEvpyp8gRYDr/TMtrKQRM+M45ffpghaQSo/lQbAao/zWbzG70BitAwfT760Y+WMTSEtgoedf9D8GkVIplpPz79ZDmD9VZMRMF1XbSTNH/5toFF+vyS+A0oaXOHHHJI6Xhvc+zmGGQEqBxl8tdHgMrTZi7e6Q1QGIDJYyaEltFV4GkhNAqLTe07ZL8gjmbLEiwA3X///cu9f6yhElYw20Cnazs9B4DFHqW7Rg5hjhGg+lNtBKj+NJvNb/QGKLNKIo5pQG1CGz4dGpJFprZstb6JQ5tfhtPZTJyza2Jq+JPEO9lojvlGQ5sJWHkXkFo/ZgGsGRyO6zYfUlvb6u7LU9AmJ6xQiKGmXTDMCFBBie7nEaC602ouPNkLoAiMr7bY8KxNewIMzDWalnf4rLzfJTGJAJmtgiPQsi9IeR5AAjhOb8tnRE4Djpe97GUT9Z1FWTQnUdMCCru2tYkeI0A1Uaf+3ghQ9XSZq1c7AxTQsKDUFLtYJ8Jfp0W45p5naEHMwYhX6kokgqm8CB2w3ouJ2BWkPEeb4ddiagnKs5iV70xdgJ/1XXxg8s21o+t1YB17GaWR2F3bm3tuBKgcZfLXR4DK02Yu3ukMUMwVW3PYT7pNcGlOzBzBcBhmJtqEci2NsBwFEHQBKeAoett6LtHh6lBNzEnalPViIskBFVCTf1sZAYC0M+9a7+fjDH0i0av1qfs/AlQdVZqvjQDVTJ+5drczQImwtsaubZdCwiuK29c7gMtMwAkxvU/rsf91F98RwIhPBnkvB5A0NPXjC7v00kvLKHh7bTct/AXM2geAmY12ArAIWFBnlDVJBhgBqj81R4DqT7PZ/EZngLJI01YaTSYRDYSpY+/oWC4yqcYzL8308fM0aXC0LIF6gAcItSUgAKj4yJiCPixAS1xjjTVqD/cEX4piZzYCpi7ltNWj7v40AEpd9U2Xw7Pq0CV5Tp4mPAxmNrGj+fpai8Nv14C5Z+q0Wnm47sjVL0dr172nP+zIkOMR/GumWH1yZcgn1/ZJR5IrJ1eP9HpTnar9g46OGIBZCxZhWxSe9geZ4kaJwdU7aWrrD3WqvpO+P4nfnQFKw6w9A0K5zmda2UpW9PWkK47YTExfDcmVH9cxYJiXXYikrhglmDxljLrfOqYPw3SpQ90z6jXptXh2EQgmbTvHfuNtfem+AYHWTIDf+c53ljtSrr/++uVGeWLd/Bad7+MRNhIEEGiYJsBlkfdVV12VraOlRtWkfILGZLfzgb23gheqZ2a5jfds95Jrv/L5KfFcNU0SoNSbzzJXj/S6Opnhxo9tCR/bu8veWbaVoTCYGFq0aFEZd2iSy+QVIBfqoz8AmPfSpE/JUVN/GNinmToBFEaiMTCfmvwzPht0+OGHl8w66UojHuHaY489WiPXgZjPFdUx2KTrNc38MPCkAApjW39m76tnPetZjYc9mPgQfceQ4KtHNbmGL2hEwkdorcI4aLjMZIMVMDCg0Wr9ds09WrZwD7xiHyjApH+Bjy/G+PRVXR1dt9yomtRD2wyO3uOvrAJT/Fcf4Su29q0rwzVb6NjQLt0SJsqcFEDRWuxXtuOOO2brEfXTH3YJsfSqCupRL2d9DFj1mz23fOi02h/6Ag1oktEfgoptMGhgse2QukkGC1swKz/qkp71h5nxKrCldZrp704ABUkFU2pcdHTd2eZkHNNdUH5IxQmFTdUweNMsoi+ECAANQg8paza8MymAkg/zygZwZjbr+i69ZrG1ZzFoLmFKZr99zAlCk2ad5p3+JiSA0JIpg0kEAAOz9Ln4rQz7gmlPmrzrs1pi3Zr4IvJpOxNcWhitopomAVDqbw0pQFXnpvrEjLgNA8lhXZKf/qDx2oDQQvqmPHP3bA291VZblatEACGXB22rqT98WOMmByg+Bf6fJiakWfmOGrt2mhWmGfn8URNYIrRgTyPzXE4Yb6YaFEYzu8h/CJya+tA9ExH2xmJO1Gmg+tYApB98LMLz+qJJs84JREw4CPew86fRmBnSJBBzHaAMmpdddlkZL9f2UVF0pXEy0chgnVzhEXma6PFJeVZOk2zk+sJ1/e99Jvnxxx9f9nHTh289PysACoMzrVQo10BMxXncpIJOAiz4t2wB2+Ssp9baEyo34kyiHksij5kClL7gIBU8aqTOgYjrRmpgw1fRtGslYRBSYaYWM09CY5EH8LT3edMnvPDfXAUofRlaid1maak5WYr+SMGpjt8CnPjTaLFkMNfHubLqrgM4y82YiT4qkgO8WQVQ9gbPARSiYFaBmXUoX0fcodc47XyZxFR/HXFdEwrBFFzIAIV5DSzMCPTI9R16uQfAmAcR0FrtH/npW34Q4MQM0u+TEAh5qAMB06+5PD0zVwGKNmp7Zf6cNmDXTvQNzSk36Ltu4ohLw4A9icECP0R/qGcT6KnnrNGgugAU02DaAMUZym8xAtS/I/Yxkfi01N/GBDOLA3AAD0aqA/NgRM+Y+fThBEBUl+TJgWoQkl8ORKKcyBuDE544/HcMESblzjWAQk/ghHY0WcATNKqeg2Y0WUuzmmbI9IdJhdVXX70RRKIMedOE6vrD9bb+jHzS86wCqC4mHgfbtAFqNPGWWszghLwOoJhogASjeybHfO6ZcDD9bzYuN1IDLOBleRBtLJdfyryY3jpKHyggRHFYtuRz512c9Wl+fs9FgEJTIRWbbLJJq5aDZoKFgRPtv0mWzNbZPZYZ2KU/AJPZzbr+8Hmv0IirNG/6P2sAqo+T3NRsE2HrRuc+1zhnBUvqzBzxFqqT3Eht5g3g2EgQA+VohH4+v+Truvo3B040AKO1HUUJTxPdAR5NiT+ElmvPMNsdMxuZm84mUcwOWdPJqRuO4i5ClgModdduAmvqm98k12558K8o27N1B7PYlPtMwwxotWKZgBMAQJ+6emk7uqrXwQcfXPZHTib0h/baQdbzTX0c/SHoWFiHffx9yzD6Q5/oD7FjtkESJmLAa8ozrb/nZoWJB83f8573NDKnigszACAYehpJ53B+2+ol19nqwSY/++yz/8vsmUZ9pp2n9vaZxRNTJG6ly+e+xAL5SASGVU4uGWxoV2bZmsAJ3ZndeODUU09drAHIu+4gZOrrgxK0gKb+DKEgEHUmnrqrp5gtZpFYqninegagfJh2OtWuuiOiq+vo0jXMwLtmJQEDoa/WI/2v7WKRaE5Ara7c6B904+YAxm2grq0mlMRbkcm6fohr8hXoijYGjbR+ud+zBqBUXqBmmxpoRGYGTMM5jQH5VYz4OrSpc5gR4rHqpsmjo+fCGfN0ASgfsxSRHODUNAJS9a0htD8XH0bbYOK+iQmmYC5ffUEYgJMZvlxwZ0pzbcNX+lRduozcTQAl78iz657kIZzVc1rP6u8uACUAVVQ9v15oiHVCjm76w35pNCIzrurSlITOmACiPdXl6Rr5kO8WW2yxeDeRtnyVGY58MXBN9Y5yZw1AqTxVtS0gD4BRZ81WdCFIU0dU7yGe+BExUEGg3NmoVbeUoppn/FdXAOggNISy6fCMw/OTbmfUyVnebQCF5gYFcU5M2xxwu45xBfGJxmZ6dUlGdF/qbTJRMKp94YETmvRNtB7LLppm8PR1G0ApV790Bai+9fR8F4Ci5QGnJj+b/tAe4CRmL53kaKoX3xNttkkrA05mC5luQ/iT/HbR/GYVQHG8inMyUuaAQYWt8hd1TsCHECfXOfwBBMWMU65815khmN0o3kVY1BH48cPYaI7JIR7niU98YgmGsWgYMK611lrFuuuuW+ywww7FJZdcUvpVMFaXcnLtarreBlDB5AIdxX6hf4426EIYgBO/A0FuS8pHF85ueefAD7Dst8e9Wu0AACAASURBVN9+pbk0pM/xisBQtAaiuTaoQ87Ei7bclACFPuSDuSbOqak/PMcVYR0cM7MrD1188cWlBtxkbtOuhCjId0jC0zaZtBVRri9c175Z4YPSSIxKDe2y3QoBv+KKK0rBH8KwKVG9D0CYbDq+qdMRDYObXuc0pQ5j2Lo6YAiCwRwVS2J2Q8dGzFCdMAYg0CasOzQbZfErRtCpXYQ+bVvbb/Vu0qCCeerqmt7DzOrLFOQY7ZrQCB2BX+RXPaO3vGcyOaIc/WBhq7rm2jPbAapKm7r/6KWNzGGfhe8LIj6Qi//qaOSagzatP4byI74jOwYDQFpXlrbNKoACEtYPGeXqCJ9eM6LStoyKOYDoKiTK5QMBBk3Mm5aPqEb9k046qbjxxhtLIKqWx94XsmBGECh5R/4YKNchyggm0DneoWr7GMQFF1zQGEdULb/L/64Alba9+ls9ATvHdQB2l7I9g/balRuU0EJfmwGSd91A0LUs7+IvM4XqXG2H/67PZg2qrs7Va+hlfZtJHPTtqjmho2ctBM7RB++acDBD6tmZ9gdL6L73vW+2PPWYNRqUBpvxEQ/V5I/QIQhFcO2tZAFjXzMIYZXHTDMlzbTSsU3AkTKC59SBOWjpBA3JYlkMQZD89sFRzuKmESLNM/dbWWx+pq2lAWamtHcSCR26aFC5urmOBjSTPmaEuisbrcyI5fwdQWM+C7SdaeK0F7+lT+raNB8ASiwSnxPe7pP0h1g0bo6cHBhgWQLW5U0i0cLIHv7O9cesASgNRiTrfiwgRIy6Ssc1RAQqnHX2pWEier9LAk5AhDorpgWBcp0S5dWdCZB6Cli0Ol0IhKlfwBmhCkPyrZYlD2XxO3COmlDo2tYmeshjJgClXrQ7+/n09QkqG6hxlurHapv9Bxg0Hj4t+c80cZYfddRRpRaQK2+ua1B8mLFZXh96sUQAuGDoHM8CdnFd+mMSiczaO4tCkuuPWQVQGs1ksqWuaee6SqfXCC2iERIBaGxuwGP04HOgacThP7NLjAc1FohQL4eCU9RDZxIkqi9gteNCWxBjvNv3rBz+GtO7M/micDDXJAAKuAia1G+Av2tSNgYlUE0aDce7kXYSAKX/LdvRV3W0nw8aFHPbsjGzcX0S+nJ12GguB1D62kJkgZiTSPpDHFVOg9Yfsw6gIDnhW7RoUdY2rWMuxLMjpxgLMz5GSlO2Gij40ld47S1kCw+zGxpfl89cuEaTMtPH3JtJmilAoZVBAoMx1fqYYcqm0dh6o0nFF7YglmkSAGXgEhCc83nNB4DSBvwtlsngjM5dEvrymZpdbgMopuAkEoASEDqnAApBMfoZZ5xRakY55q0CCaIyt6iLgsCYBuxxWg0mp5HxlwCyPuBEAB25TqvWY0n8V3/tsckYZumjuaSMNQmAQhf1ETluUOjq+wiAWnXVVRs1qEkCFJPS9Ph8BqjoD7N4PgTS1V8JoGzo1wWg+szUpvxW/T0nASoaQfB80URw4E0BENHRBE9YAzOEILruGApEkS8wBb7ydfjt6FoGmvCfGfX6aC5BX+c+ANXWbnVXHyM3wJR3U3I/fBBNJh5tYDTx/rOAG9/pizaZQFMObctLusx0e4b7w3bEOf42uLu/oE28YGoEYwKIYm4LEhwKFk3vEThaivgoQaSm0QmgjgciTe/m7mEq73Og27jNFLtoXIeZkYMOOqic+eui5WEi2qKYLP61IakrQKm3OqFJjnld1zZgblazDTSVTaPhlG1yklreNDrJ/xug9AOzqGkiKfqMU9tESJuJbFCxBbEYp1wf698NNthgok5ye5A39f+s80GlgoZomNgG88y2JgHJgULf6wEioqdFuxJ+9TAlzonIuc4Riaih7bSVocM9y3fEoQyQqLeEmKA6MJCyrHnbbbfdShDDgDlmUaa6cshzUAP0vqkLQKm39p577rmlQ7utThzQpvLNCDVpUspGU77BnA9C+5jlue2B+7bX8pvdd9+9cdZwts/ioQmhFsBLQ2riQbyjP6xFJEf6I5f0B560EkAZdTxN/nwwxAA0iUQTW3vttcuBra48bZvVAIVoAVI0GE5wI3mT0NY1tM81QGhm6fzzzy8FKITMGYjwsdhWwuyD2KQmBolyPUMbM7vCfpdP5BsdHW2NMgSxRQhE5FN3Rg+Bc8BNHn2S55vCDNBZ/nxdzDHLIKyXbBu5+XgAj7ZqZy5pK80x5xNSvlHbImVgNtMkBIRTXn/U0dL12QxQ6GFAsliYb8mZhplrjzYCGyAlpKaNR/CDpTG5/pWXQdZSr768Vu077wt0tsYyV3/XZzVARaMwuRHA+jRxM8IDCE4O6euYL3dNpyOEUZxD1kJJGk6TQGAOWovtK8JH1pS/vH3+x2xU1441mmFADNnUTqOakRSANIFB0DI9q0sTQClX3WNHTX5BwMkv5B7a1bXbdX3kayrM9Fyb1Zf5TEvK5aVv+AFNmw/RErVXOYSTf6xJC1fWbAYoNOceMBmBpvocv6JfU38AnOWXX77cMQTvNvGJCPTIL9e3wlyGau3RH/ibe4Il0tT3cwKgNEqHYFBxTkcffXRpCwOHOiL2uaZjzfhtueWWxYknnliO+srKCVUIuLqw2ZmCuRFHPeQvotyasybGiHzjrHwqMB+C/HOd6B4TTLR1XwFWRh+AUv/YvoT2qG05WhN2GqDAW5pSjp4YdeWVV27MCxMbDAwauXyCbnVn5TOdxai11XmuAJR2ooUBAO/SNHM84rr+WG211Rbv3VRHJ9csBzLgNfG02fHTTjutBP1cPk3XuTZYIcrJ1RlfqfOcASgN1iGEhDYlVspIwtlMEKixRsc2BtSRtAKqqh0Edt111zI2hs/E6NJVyNXDnjxGplxnqgvhEn8l777CRbCMaNqWa5dONIkgvqdr3YN51KcPQHnewRdHkJnDOYDCePqDuQw8taUuocsRRxxR0inXRvQVjMtMwdx9gB5NaBqWUKFjm0DMJYBCT+0z+K233nqNA5l+ohnxgZr5zfEifkArMpLrWzIE7O2C2jT4VPtbmfqO7KpH0yLxJoBSpj4VFmELHis4ADXe6CsDnT7cWW1I1/8qStXkwLX2jepJKHKEZa9bZGw/H/Ew/B80gj4MH3XzjnKttAcSdWW6TrvBEDkBjfzqzohNY2QuNYEgc5efpm8ZGKYPQEUdlcOfYx9wbcwJvevqJhgvZ+rJi3aDTjk6BthxqPKDxeRC1KfuHMLAZ8iHxlTO1TP6TvlzDaC0E5+IeWIJ5EBeG91jdey9996ldl7H97RUprCBN+hSPaMjkAIyQhP0oXo0pagnRcCWQ22uEWXqj6oGJR8fUdUGfk51NTjzw9pNg0beVpe0nlMFKBVBZKMwoPEd+Cbkt0+00UZcDS0sRuM+DYrGKZdDMRzl1U4MAtPuwjEe73Y9K8NIYdYmB7zBLNT8JQVQQXPMYylKDjzRgFAYKc1+1jGPvPiHRKLn2igf7ZSPQEJ0Bzy59upPgmbxOeDmw8qBX9pvcxGg8JL2oi3/IBrlgNh1/WHAI9RkoJqAHdeFgRw9mvJihVgaY4DRh/qyLkUfWyNoJQdFQT1yeUefVAFKf9PaWCR4wBpQX7OxosJmk0ceeWRx4IEHlu3K1aVav6kCVFoYhrTGLjcjpNGCzLpWPM277rd8LKXhtMwxv+sipTmX+6qeylQGxtOpOeHVye5tvvnmWYGtq79rGHuIBhXvqpsRrMkERXd0AOSYJwaFtE7aidmawF4+0VagyLSn4hMMfR+H/3x3/JS27iFEbYKQCsRc06CCjvhLu2kV+AEARLuqZ/fNnlm7WqeN4gsWBi0qx9vRHzQpg7D1s7Tkuv7AJ/vuu2+5pREFoqluaV2VnWpQeFX7fJXYAGU2kdJhlw8DOdeDWMJwBQRtms7zGqC6aFAc5DSooQCF8OFfSDsvfofQLkkNKjocsBiFzVA2MZ46YjafH2IWA5M0EQjtJBRtfgl50diYjra8FXrCzyVA1Ac/7YXE7Ob7axPUoGGc1XGuAhQa6g9aCl7Q/mhX9Rz9wUS3yyuQqiagIojW4FN9P/0f/aE8ZpsBWT/oD19x0ed2+4j+8Hz6ftPvKkDxZdLs4kMcwIhT32wgs48lxQUgnAdYdknzGqCgO3U1Z+IgMEfykO0vEBeo8bHR0nJlGI10vk9B5UyeXEfNRIOKPNVRpHfs69PEgOppew1hHN5TfiR1ZypY7N0EdilDK0v70Rl9nP1vqkP6fvW39+cqQAUdCakYPgGVaNJEC/1BuPk5q/0BtPAtsOka0pP2B1pOoj9SDYovl9/LYCbRoOx9ZQsi2pM2ACxO/q574s9rgLLtcNMsng7TuRx4GKdvIrTU1SYTChPQOvgfbgqAAjIYw8Z/wgVyQAoM0INQbL/99mX8k/ciRT4+fU5jbDLVq8Ai3ziq99L/wItJ4tn0evyeDwAVdLR9dpvvDR3wp1lUmjANLJJ88JNvD9o7vKlfg35xjr7I0Tmea9Nw9UcKUEx6royYcLEHm9ldu5XQytUf/wAoA3uXNK8ByshDpUXoIHp61kGIzMyzyVydKp0jIuE1Clj7JP9cZ2McvptYFJrLr+46Jhzqg6rmxyTgA+SPCAZNaZH+FlVvFgb9MJV6ROLDsEaRpsV/hH7pu0N+y4MmaxZQDE8uT9fnugYVdOT33H///Uvtu0mr1GamMl8i2ldByjUgxZ9ncMnxYZ9+wc/2519//fVL3lW/uvfVLQUoWhINm1Mcz5iNp0UJFXKNX0rYgWuhZQU9cud5C1AIhCD8L0ahOgLHNSYLrUE0dCqMOaK5jsEslDY9HvnUnXU2X4IOSZmrKe+4py6TAihlc9LyC/BFNDEyhjS6+7ouYKvSRF5iW7bbbrvGWKs6etRdo2HyS5x11lmlUOQGlPkEUGjKV2M/9zZg0VcA4/TTT68dRGlSdq31ybcc7eronrtmuZQNJgEfn2EuzypAcSXQ9vgqaXzASJiD/0w7gzTQUteuysDUAEoHMJsIsoZiQKZBrrGIZYmGaWfqL4eb0YGmUhWQEOCms3cQAcIDoCaBRGhajvgPdn2TuSdPHWHK1NKbpvZoE3A0O0bF7dsOz2NimopyqgdzSHAfBmjrcHkBFu3j16CxVPNL/xMaexZFXFOV1mgkL7NxTAxmrveb6JwKhGeZiTQx2/ZQ+TGwkA39ldYlfqsTUGyiI36x+DbeqZ6VKR5POMuQZM0pulfz9d91sU5o0pa0QV1p7uisbXV5xjX1pmGKDay2X7/iLzOtwkGsZ5RfV7MvTGuDLZAzuWRg5NhWt6b+SL+FCCh9gwD9aYfu0cIFfpIXsm1m3aCnzl3SxAEqCA9cID4HGbOCIAGClEmrvzE3gTZ6r7POOiXaIhTh69qgtNHqIqYKkZXdJDzuMW022mijEtRoX8pF9DgIJb+WKXRT6TnVN9rlvpGPeju0/mYYhV+IZ6keooXt+W7mTR27JG0yM8RpX82v+l/edj+tzupFOeiL2UTsY0CO+BBewuFA9zj8J3D62AySlQaECl3lZd2fGBogVa2L/8CM1tqU0NlHIured41JTjvo6qStliXgMpe3/rAW1YDcJWmz/rD7QK6Poyx5287X4J3ra4An3tCggo7xURA0r+uLtD8s2WJGGnSiv2k/O++8c2N/6PuUt9XB7haA/LDDDit3/lAXcV2Wz9DitbtrmihAqSjiEQC+ArEcRlaEaBPmEGpAgaExMVPE+iSoW3USdm0g5rcq2wjUVgflqq9AObMjhNiCWh0njgSz6HRgq01R57qzdhjFbB8CrPt0Sto2HW4UEuFbPQTsMUuZj13z10eEghZYza/6X94GiJQB07r5HfnRlM3ycYKil0WyNGafobemy+e9bINMW7KHl2c5U/FL1D3qpV3VusR/DN6W5BvPV8/aRIiVNSThw2qe8V+99VVX/4ryg37qFfnUnaOv1T3oVa2/6/IDMJ7jEwIKeJjmqT/0hWPRokVlH3FgAxn5G2zwW+RPdvR/rj9cx9vVJA954THtMhjgD/m51ydNBKBSwlx44YWLPxPVBgh1gl29BgjEaey1116N0cm5RiMILcrnp4wkTVpUlO0ZdacNABkqLsAEYF3f9yyHL5V3qDDk2jRbrwcfaC/GxaTAwuF3aKWEKIRgtrZlPtSrrT/0kQFCf8zWNBGA0kAjC5OOUAYQdBHmAIXcWR6E3UwGhyIzoE/SSQTGSMI/IK9cWel15ToAVRxd2+N5oBpfHZ7NDNCHll2fDcEwOKTHCExdKTi55/TFXO6PGQOUxhsZreoXldpVy0jBoMtv+RJ6jjYglbPD67pWHam8diPk3wIgXcGmS93SZ+TLNGW7x3RrXZ3GayMFRgq0U2BGAEXwjZBWzrNr2/wyqSAP+U34aUGmKrsGegUJjN5sZr4kM3ZAakgdmt5RP/6p+C5eHxCNeo7nkQIjBf5DgRkBFHACFGYu+Gv6aCUAglbUV5sBgtZ3+exVH+dzgKkZBgsjhTTIq0+dc+AkD20BfJyRADt1/v6H3HP3V9Bvtpur6qmOeNPv+ZSibQvJVJ4RQPHt2OeJ1tCmkRBih+c4nAGE6f9VVlllcURyV7Dy3KabbloGgWHEPknnAlXb5IoXCWAdAlTRJkAnnOCAAw5YvOaoT53mwrMGg8svv7yMT5utTn8CzBdqyYWZ5D6zabO9D7RNe2xnYga0L9/P9vbl6jcYoBCIj8WHN9s0EYIMCICS6WdLLkw1iymyT4yALhGoVr2bNaON5LQV1+Vnga4tgDFknxSjkPgi0dC+0MJnFLN0TeWm94CkyQBBlBZI2hrDlOySHLm1BViYyvV7msm+PkIG9B+An3Z5Q9qC9sCJ/88mfEBqviQauaBOuxCI4+rL93OVDoMBSkyDiFmza6ngVn+HxmQjMzNphLhq/tBqjA4iTgV1ddkwC+CJS5qJsGBo9RGda8M2JhqgkncEtwHfOFxzeEYkNtPW5IC4lZtCq0A3Amm/nSpNJ82QwiXQRUCf9oaZ4bwkQTnaFQON8qMuaEDDwBc0czFZ8yWRN8tFbFVjEa7QjYWQBgEU5jArRuMhrFVQSv9jaqiPqQWQYeZqCmYj5AgvWpjJBBjSvNLfgI9pCdSCQav5tv1XrvrofCMSJ7pv7QFJkeyYAQA7bHlrIsDoLJxClC1QjTbJa0kn9LLWUECsmVR0mFaqAyjloZsYJ3VZkjQARmiv/Gj7CFDT6v2bLt/BAEXr4KzOgQgzzD1mnYjWPgxs/ZmoY+ZTCkrV37QZ4fQAZhLCQeAweQQZin5lCjr8BkhpsOFN123/3ouKw99Xa0S/+wQWgZ0EHeraVQWo0D5pK/ER1brBpy6vuKauIsMF0vbhD+/rB5H+yrb+TL8tSYAKcFZ/AD3NwUF7p6lB6Qe8oy0UhL79GP05jfNggLImiCmW8xcBKBqO9VZ9BQej2b/IMhf5VIEp/gNA67MmySA6y4HhdFR6uOZw/6ZONAfgbIEnLdVCUksKplW3OoAy8FgoTMO0QLQvyKCtrTdopX0/+2XAsNWy9nMf4LElCVDaGovgadTKnmaaJkCpO/+WbVFMHqHlbEmDAYpzuWkDeCaYvZjMOPTtPEKGSBbl0g5yIAWgbMI221B/SXQucGCG8pvxt4gPs65qWiN5HUABSZMbgmc50fuOvPgCwNGUrQfr8z7+sOpe2SY75OVYUj4o5VtIbd3m0A0P+/DJNAEK2Po+ooknkwv6dbakwQAlGDGnPdFw3BMTxFfVh/GCMN7x8UE7DOTKcR1RmWBDyoiy5toZgBvpCMfGG29cLsC1XlDoBW1yGlpUFaAmAYQEA7iqu9ncmfbhkgQoJqZN/QwMtumZttYxbYAyC202224eXBmzJQ0CKIxEMMLUqjsDD5ujaewQZvaObSgwQM7PpQyzaQAKcy6EhPZmLg0QHPfnnHNOufTHJmNCPoyEBH9IQnPvEj6hC3yBRlPXzBby+VVn8Qgmn13axwBSPV03S6p/qs+4L2/Lo0y02MbEf9flJQ9C6Zp3nZmwkY/+dt+hfp6vApRQlsjDJI33tc1zaX2j3ZGXOkRyTxsd6Xv42ta1BkimkTZ6Px0cIl91V76dDpSvvmn5UZZ3XZePgUYf8At5x3+zkn1n8VI6Kl9d0vKVJ3+bBdJk9S+lIp5xX9s9o17O7qtP0EMZaOY5dDDZZCcDfRX5RBvj7Hn31Ceel7drUY7fUwUoewQpNO20qGDbGWFsmGXtXBtAIRhiLYSk80TRx9c5mFYYwWCAeQmNTu+b0BtzYVQzg/ZksneSze1s12HfJv2QAhSGVJ5nUvr7bUpc+IPn7XVkeZJ+Cl7A4D5RREMGfHyJNBGxS5gXAIj32Wmnncr9jZThGTOs1mIq29pKO6HyV3pHuWHiAT7xdXYF9aURznztYRL6aAGaRV28C8y0275FBCOSez4syt1gnyX/JQvBDQjcHLTArbfeuryGjvJ11kb5+fqK8tHUlrh8Vnxonos6yFPe+lPw85Zbblm2155cfHTaoo5M+q5hBvJGE/GCkZ+zDxmgb9zXv7Zi4U4xqeUZ4TN4TZ323HPPst7kEf30KXoE3T2jb/Gg/d/sXaXPAbfJtJTW0WbPqxcry/Py1Jf2kWKy271EPQcBFOLbeS/nGwoTTyE6wvN9k3fETRG6JhOPg9YokwpI37Lm0vO0Gv4/ExQ+xIDRCJSgV2Bu07hLLrmkV5MwmBEvlgChuSh/W9TYmA/TEjB+xRSglM2HxFENMCLZ9IwDW6iIjemEQcgDYIXw4wtauH26AJ+F4L50YjvYqA9AYnbYIUNeZo3N7ioLCDNpadi0Rv0fAGUvbeXZanmFFVYofwMnoEXAbeQPuNQfn6mTPayUQfAMqpHcY/b4+AZBjvrbIZbGIbBYG9RDv8hPPfQTYNF2ZfIXooXfaAqw08BebUY3m9Ix3eVn4mPNNdcs60VDRlN06gpQ6koztWKCpqc/5W0DyfBXeka95cvU1hZ15FtEZ/fxAjlzVnd7ogEfGhkQM2BoH/5Db+FHtgrGo/rOBoJAKmhjQgQvyEtZ+gl/Rd3wgbzM0g4CKCgI7ajmOZDCzBiMOYL4fVIgOyIhjLxyZiQGwOx9y+hTn9nyLLoAHx2IWfhtYpQjEISGQIsjQw/Pd0nysCsnk5EQG/Wp3fLEfLSW2PAvAEr+JieAhpEXA0ayKR3mtDBbKISDcDBHlSU5Y1TMToOyKSE/F9CQt7J99BF40TysWqBdmHSRPEeYtddoT5ACoGzGZlAzi8yRHSaEttCGaG2Eg1aiHg5g77oRPdVA3VO+e9rlv6Q+ZED5tDuf6lIOmqOFcoGCmWiuCu0hC2b+XENrTn75EVw8TCDRGa0ACwAzcNBe0QKdaWxdAQrQUiTIkHKZuLQ3wG5AC8Bgfto2WtliFmlGykZP9cMTZooNRrQo/RD30Qp9uFpoe7Zt1lbmqVlmoAOE8IB+VSeDg0EQiKGBemmniR8bPMbSORrtYICy57DOyYGH6zqIyo15+iSEY25gNAyaA0H34oMEGj+fE8bHDDqdQNN2MIJRDhO5ZwkRJhbhTtgxWJfkXctYCC3zwn/vOvQdUwXjoHcXgDr00EPLegADzI8p5aOP9K2kPerOPKKFMAVCWD0TAEUgCb73HfF+E0AxVwAUJzbG9160B18xRQCO1QOEQ7l9AQqNADBBo4H4HzwoeJiwusfU1f4o33NCdGhITD+g6R6hd83XWQxCaZ39pq2gFa2tK0Api+YIoJhNzCo0d0Rdox+AvOeAflg97gVAKdcgAnzVVz/Ig9mJb2hOQMnz0VZ9RCOlYTPf3QNwNENaLH4NX5Z33EcPZr3+mxFAQWJqdM78Aio0LM5cgXhBkK4CY5te+efAiUZFUI14oT52yXuuPqMDg/GBEOGiOmOaOPhsfMiBqYJ+qVaTazcmBADypJoDhrSv3PffQOMZggd0XMtpUEZ/WyYzi9STcNB8UoBRH//rZvGUGQBl9CVY1dQEUEw8AMT0I0jyi6RMbfEMAOHzIhh9AQro5GbxaCOEkknHp4IeaODw+4QTTihjt2hRdr5QJzvR+s+HAyCqSXkEmlLQFaAAkQBeVgYA8VvbaXLKjOR3bhYPbWhQ2gNEU97wGwDRngCbz5EBrGgrn90xxxxTKirKx4+e0Te0z+CjqId+0l98U2gh78EalFkdSz+ofnXml2vAhbpmStzIlTJKVKp61miN1LkALpe360ZeDmPC2yXvallz6b/RkN8AM2g7DdXgkB6hzaKLUcho1JYwhL6k3mOylAHTdy3tMVJyfgZj5QCKMBFMJj6AwZAcrxgXw0ciGE0AxdShVfQFKE5XYGu0riZ8QnD5smhnnpk0QAECvE+oDRaAOj1c42Nh/gAM9fHlH4DJt6Ovq0kdaWNM564Apa1AgaZHQ8Y7wAawGuxCZroCFA0p3lE/vIIfYIC6N7WVKwDw+soSXuN4pz2l+UWbPcPnhocHAZSMZA7hFNYEIswCjG3GBZMjdHVUU0kgw9ltLZxGY54QuLr85cvZZ2SW33xO6AMU+BMwNucyk4vaXD10qtklNGcqYKI6Jgh6uecTX/oR3XNgzz9AyLpoUPpDP/NlMPP4PJj7Bh0TH5GmBVAcrswIwl9N6gYAaN7aHADFAQ5IXcfbkbSjzgfVpEEBKLzLemAyG6D5XdIjroWJ6R1Czg+VA6ghYQbaq640F5NWEdzLgU8e8UcXgKLR1AGUQY1zHR/SlqJdaVuPPfbYcoYTEAMfsg2gaMF1vMlXyQQcrEHpPIxMABC1yQwDLu57zlQsNZU97X3Ec0B5jkSORVqZBteBUnrNM0YGmtl8TjoQjdDaCEg7uOaaa2o1Hc8apYzCtE8zReFPyNHIOxiP+cYsIzDKS5P/Ir3RvIsPSp5xEAAAqE60aedI0wIo5htNQziBeqQJ3zHrqiYeswtA2fc+BShCxXHsHhADWFITQJlkoD0BO+YzrmLKLQAABkVJREFUGqRJnQw4XB9oiw6sBiDu0+F1Jh7QEtoAKPpoUNEPzuQMTTjcaW8c1No3E4ACdHxXlizJP6W339pnAkEZ/gNKbTCxQMOvo40ZVbOKg31QiK1gKj7VnTA0aTuAhSkCOWk9mEMFjRaITSMATDqIZtSWF8AzdWpECYZJGWA+/UZnzKmzML1RUJtTRkjb63lmL1UeTWk+hLIpEUgjK1+FmVPlyd/hXYMAk6jNSe55o6IRkCOYz8L7MYLTWLQj0rQAyuQK/6RZTYCrDuqGNoSfVsccURfgrB7MT4JD68HXnic8aMEXaoA18xUC1QRQZt04p9GTxuhZZcsTIBhsxGaJKQJU6kdYacdmtuI7h/GO/kZLM7dAvitAmSW1JRJQAB7qzv9E2+HL4qecCUCpH58abZ1JhtfQMuqtTAqJ/qB8aKfBwSSG2Vu+U7yHLg7vysPkAV6bEUBhMgVS43W2DFMNp+k3gAFqGNaonHO01+UBvIz2gvwIDmLM54TGfERojEG77HFk1DaTZ9Q3GrWBuPumoQ0QgJ9KzkmNwZgBBEle+ilMPHQnyNZC6scYPWkFgIFwUvn5j1xjnsrDzgORMKTy9Ge61AWzKp8PitDW+aAw9oYbbliCNkCUF1ox2SLMAM2YEkBI/QgncCIcnLba7Lr3xCDxd/GJ8fUBWmBGwI3m2hPCpP7e0xbvaC9Bj+Q52qu6a58lW0DKdc5wvjm05nfStqClmXFasgEcqKCvcvS5NqETWncFKJoLs1qbgCKwVT4Q5AZQhr5HO6BoAKQsqGck972v71g++iaS32jkHVqUOkY53DU0ToMkMEQD5aArvuAuwM8meuShnSwDoIQ25HzGAIWwMqYec8y2aT4p4ACp9EjvNf0GbAhilFJ+SrAg3Hw661RCxtlcNT9y7SQsmMCMHueoPmpK6AjsCSNGxKgE0qhIyJRtVNPHfA4A0DuYjQASqhBQ1zEjDY5GwpfgfXliYJpAJMBAWExh2044tBN9KjyAoKpHnRlP2PCB+hIudPK+ARMAAE6OcqZMAI+zehAOMU2h2aiz/MzkASP1Rjvvep6AmYZX30jaSyuQl/5JBwH1UGfAru3ykxd6qq8ymEZiqeSpvd6J2CpleieAlPam7raUJrx2NUX7tqR9fJXeUa7y/VY+MASA2o52ucXC7gEzdaCNVuVN/cVEMYPlq71oR+vUBm2xogToKUs7DT7cM8xwz9DA8JH/2sx/qDw0GuwkD+IoFFpyzkaAFeBpApkh94Cf2QKIbEo0BCLqMV/P2mm1PNPO6IRh2hImwExipsTopCNi7l2Mh+lFcjO/AYzlNDQfJqPJCAKXzsiqG02BXymtF8EwUjOXMKtoaPVgcqTPqadtWryfTnaoizpzMGs38KgmZQMZ2ovBSl54kakEnAmzLURokJz/ZpG4F/hBtbEK2soksJy4tE/CDDyZYkIBPC//SNqBD9XvzDPP/C/w8oz81JuGYJIAYAJrUelMGzIjP89FIuy0FJoHX5/6CurUH0wjvjxLiwwA1fpHHukZTTzHd8WEVz7QpyEDlSjbc2iIlkIkUtmKPlIuTSfeqZYDkAGRwUG98Y56862hQ0o7eeA1dONz8zwQ9JtW6x08P3ipS1o5vxEWg+n8AKkhINT0Ds1Jo6nfmKOOUNV6zYf/2olJ0LjK0Ln2ecez3nF0pVW8g740glD/Ix/X1SXyc457cU2d5OO5NB/PVevvnWhb+r48mu6l972f5pu+F3VL6+F31KVKv1z7o4z0eeVEO92v1t+zufxy5Uee7gf90z5QThx15aX18zvNL2hQ1/54ri5v94KOuTJd926u3uhQTU20kY96ynPGGlQQQqZiK9iN1F5Oyj4mXw6c+D3Y3tS+IR9JqBJm/D9SYKTA3KHARAAqmgsVqdgc2LQdWk8OeLpcZyqy/80UpivJo7zxPFJgpMD8psBEASpURQ5Ojks+C3Yv56pZvjbflPvha+I8M1XLn2ChIVU3p2LO7y4aWzdSYOFSYKIAlZKRNiXGw4pxsxwcpWZ7ABWzrXq4DshM/9pWQrAbJyeH3QhMKWXH3yMFFg4FpgZQSMjJRfMxYyCWh3ce8Ni+wyJS04gOe8OITzGVa7bCVDQvP7/WCE4LhxnHlo4UqFLg/wGtWdtoLLClJgAAAABJRU5ErkJggg==;" vertex="1" parent="1">
          <mxGeometry x="77" y="305.51" width="66" height="28.99" as="geometry" />
        </mxCell>
        <mxCell id="VdugXz_NpYzOVKXepFqS-14" value="" style="shape=image;verticalLabelPosition=bottom;labelBackgroundColor=#ffffff;verticalAlign=top;aspect=fixed;imageAspect=0;image=data:image/png,iVBORw0KGgoAAAANSUhEUgAAAKYAAAC0CAYAAAAellfnAAAgAElEQVR4AeydB3hUZfb/p9cUktAJpJPQVEDsiooFEFCKYKG6KlhA6brr7rruuruurooCNsReACmG3hFQ14oFUHpNA9KT6TPf//M9976TSQgu6j4/3P2Lz/HOTCbJ5N7PPee8p70GnKF/EQBhACFd+FgJv3bSP76ovikcASihMBAKAaGgJuEQIMLnASDkF4mEfEDYDyAAwI9w2IdQ2I9QJIgQwgghEpVwJAJKhKJ+T+wxxN/bQGK/Hta+j9+v/Sz9o8rfGUEQmvDvlr8/AviDIXj9QRF/MIxgWPua+nPlzwxHEAqrz3bS2dFfUCdJfac6o40d1XtP9bPO7OuGM/Xr1alTYKoLxVPY6ClTL0bqoIwEA4gECGAQCMdI0I+w34OAtwZ+T5VI0F8DhL0CJiKElIgQSf7XyO+MfVE9buz6xn5g9b4GmMR+m3YTaDckXyfjhNHjC6LG40Ot1y/PG8IZ+2t4H/A0nPxPfQAeY39rY4/Ve0/+Kb+EV844mEFB5GTN2fh5168Ir0woBA1MasVADJgBIOgTMIPeagQ8VSIhXw0Q8gIRHwTMCLWnutyNXAp13X7M8Qd+jEIjFkzejEGCGQK8gRBqvQHU+gJRMAmtKONYzMRQaNrzZDgb+7DqN8ce1fsa+cC/kJfOKJhyYXQwCei/15o6mBHaulgTrrQlAfVrImbcBwS9mtCcU1NGfIiEPBDzHuFv5EVq8E9dtx97bPBj+FT9iDAioCjXgfraHw7DH4oInAQ0ENZEeQqBUASBEE07QdQ8l2AoAn8giEAwKK5C/V+pftvpHut/9y/p2S8OTAWnOrV1JysGSoJJqJQ/KWacUOpgEkACGvIhEvAg5K2Gr6YCNRUnUH6iCMeKDqOo4BCKCo6gqLAARYWFUSkuLERxwamkCMUFsVL3PvUzCgsLIVJUgMKiAhQoKS7A0eKjUTlSVICDR4/icEERio6V4kR5FSprvGLSCaiAKmBGQBhp2gmnBmYIgWBItGnd+VGP1Jk7naP6nl/e8RcL5slGVj/RCkoBk5pSAamOCkovwr4aeKvKUFZSgCMH9uC77dvwxSdbsWXjWqxbvQKrli/FimUxsnQpVkRlGVYsjZXlWLG0MdHes3zZMlCWLVuKZcvrZOnyfIisyEf+ivd1ycf7y5diybKlWL5qNTZ8sBWfffEVdu09gKJjJ1Dt8Yn2JJzUnuoYNca6iVfoNY6V+uoPHRv/zl/Cq78oMJU5j9WadSeJJ5iaUteWER1KmmxlvsN+0ZD+6nKUlRzFwT3fYdtnH2P96uV47903Mef5mXjq8b/h0T/9Hn/47XQ8OG0Kpk+ZjOlTeDyVTMX0KUqmYfrkaZg+RZNpU6YiKlOnYGpUJmPqtMmYIjIJU6ZNwpTpkzB5+kRdJmHytMmYNG0qpv/2d/jjI4/iyRkz8eY787F+0xYBtLSiCr5AWFu564skZeIbQ63uPMU+auydsa/FvveX9fi/D0x6okpbKj9SgRnxw19TjoIDu/Hph5sw781X8dhfHsbdd9yGQQP64opLLkSPrmfhnE556JzXHp0ouZTcU0geOuXmoWNuB106omNurHRAx7wO6JCXp0suOnSgtEeeSA7yOuQgr2MOcjtm65KlH9sjt2MH5HXqjA6dz8YFF1+KQTfehAcf+iMWLsnH9u92o7yqNrq2ptb0BUMSWiKgsXipxyejpb5yquPJ3/FLeeWMgUmzRM2oVuU8BrgAoPmKWTTIieLyM6opCaYeo1QLm7AfYV81Kk8UYdf2bVi+ZAFmPPE3jB93O/r3uRpdz+qIdq2bIyneBafVBKvRALPBAEtjYlSvG2ExUEwwi5hhNjQQoxlmERPMJhMsZooRJpNBE7MBJrMBxlOJxQSD2QqDyQpnXBNk5OTh6t7XYfL03+Lt+e9h/6GjmhnXV+++QAiU0weTZ++/D0p+6jMKJp18Px16HUpPIAJPICwXg6dT/kmgmwudIEDzTQnRZHsR8deKcJFDKD//eDNeeXEW7rp9FHpddhE652UjtWUzNEtKQGKcC/EuO1w2SxRMwvnDYoTZQDHBJGKGyVAnZqNFwOTXCKbNaoHNaoaZYBp1OE0GGBuIwWQAxWgmmBYB0+JwI6lZK6RltUeXrufi9rH3YOu/PpUwkviYjMByRR6KnBJMhaA6df/NxzMOpi8IeAJArT+MWl9IA5NupDqrAqaeyVGrboZ+gh6B0lNxHEf378KW9avwzD//jttG3oTuZ3dE8+QExDmtsFuMsJmNsFtMcNoscBIes6Y1G2rMkyHVoFQaU4PSApNBE4vJCsKpwLTbrLDbLFEwCaiZWlOH1GwxwGLRXqMWNZiNMJgsMBitMFocsLsT4IxvApsrAZdecRXeW7IUx0or4PFrWjIQAiixPriCseFRnb7/1uMZA5MnkieYWvJERS1OlNfA4wtJWESyHnpaMGrCqTGjPiVTjD4JBxHKd994GZPGj0Ovyy5EVlorpCS6BMrEOCfiXQ7YLCaYaaKNRljNZjisVjgIqMko2pOmXYlFf5/FaILFaNbFAotoR4Koi8kKi8kGwqnAdNhtcNqtsJgNAieP8pg/02yA02GE22WEw26ExVofTIPZBqPVCZPNJZB2O+9CzH5hDnZ8vwflVTWySvcF6zSmilo0BDL2+X8rlPzcZxRMnlyvP4LSihqUVlSL/ySZDsbPw2GEQkFEmNURE06/UtOUCNSitvI4Du//HsuXzMeEu36DC889G82S3FHTbDMbkOB2ISHODZvFApPRKGIxmWG32gROalIFJI8alBrAsWBqJptmOwZMI8GM0ZhGE+wE3maBhZqSsJs04WN+njinEfFuowAqYIpJpym3w2DWxWQTDdqhS1c88uhj+ODDf6H4eJmAyQwRRWnMfwfnr2D+hDPA9Qw1oz9IOMPw+Rk0rku1hUMh+H0eBHy1WjiIC54wA+Y18NeWYfeObXhtzmzcfeconN+tM5onx8Flo+nV/EZC4XLY4XY6YbPaYDFbYDFTm1lhNhEyTYuq96ujyWBAnRhFGxoNZtSJBUYDpc7XNBr4PiMsJhOs1JZqcaVgN2hguh1GxDnoVmj+p8FIX9MqmpLaUuA0WQXMrNxOuH/KdCxeuhKHC0vE76avSSGQDSVWUzZ8/BMuzxn/ljOnMbV0N4IhDVCtUCiCMJecrKIJBeH31kohhpbj1tKJtVXHsW/X11g473WM/c1w9DinA5oluUTzKY1HyKi1ZDFis8FqscFiscFqdcBiccDEVbDThVYtWiAzLRWZaW3kmJHWFhlp7UTS09KQnpaO9LQMXTKRnkbJ0iUTGWlZyOBr7dKR3i4NWemUdtrPa9cKWWktkZXWAlntmqF9enN0zGmF3MxmSG0ZjyYJDlisZlmVG2m+bS4dTBsMJhsycjrgzrsn4K15C3HgSKFoSWrKWG35vwznGQOTtyS1JqvW/IEQAoFQFEqmGmnCwwEvwgGPVnzByqCIFwWHdmP+23Nx/72347xuHdG0iQNOq1HMsDKdBNRM020ywWSywMgFitkGi80Fq80Ni9WJNm3aok/vazF61K0YM+oWOY4eNRyjR43AqFEjdRmFUSNHY9TIMRgpchtGjrwNo0behtGjbsOY0b/BmFG3YcStIzDy1uG4bdRI3DZqBEYPvxmjbx2K20YMxW9GDMFtwwfh9hGDMHb0EIwa1hd9el2ALp2ykZAQp2tMDUwugKg1ecxo3xG3j7sXr7+zAPsP1wfzVIA21JQNn59xNfgjPsAZBZNLb4Yng/4Qgv4AwlSf0fpKVU/JRY4X3upSFBzchTXLF2H6pLtxxaU90KpZPGzUjGYDbBaDmFHx7yRcY4TRaILBYIbBQD/OBpPFBYs9HnZnAs46uxsefPBBvDL3Jbw690U58vErc+dg7tyXMXfuXMyd+wrmzn0Vc+e+FiOvY+7c1/HK3Nfx2qtv4NW5r2HOi3Mw54UX8drLc/D63Dl49aXn8OqLs/D6nFl4Y86zeOOlGXjjpafw1pynMPufD2P6fbejX58r0apVC01jWpyaObc4BEqa9czcTrj9rvF4QwczNiumTHpj2rMhjLHPfwQXZ/ytZw5MnjFli0IRRIIhhPx+hPxc4KhSNs18i6Y8uAvz33oZk+8biysv7YGMts2QFG+F225EvMsMt9MMK323aPzQBKMeijEYuaCww2DiqjcBrvimuPKq3pi/YAEOHNiDAwd268c92H9gL/Yf2If9+/dj//4D2L//IPbtP6TLYezbfxj79x/Ggf2HcfDAYRzYdxB7d+/F3l27cXDvHhzau1tSoYf37MDRvTtQsPdbHN3zFY7s+hKHv/8MX25ZgbdfnoHx48YgJycTXI0bzNSUmrbkkWBm5XXGuPET8fb8Rdh3uEASDyoZ4QsBFD5Xp7DhMRbIho/POHWn8QHOIJiEkeqSS3Da9DDCBNPnRSRAOLWQUKC2HMVH9mLt8kWYeO/tuOyCc5DWOgnxLqNAyQVFYrwN8W76kgYYjbqYzTBZ7XKRDWanQGkwUjMlwpXQAtcNGIzNWz+UQjStsl0VDrM4rX7xsEQKVG2kKnJSV5sfn24IC5aDMRmpEF2QWiBUDQQrEPGXIuIpwfH9X2Htkjfxu6nj0bljHoxWrsYd2spcVufUmgSzC+65bwrmLXwf+w4VwKcnIghjFMxTLIQUpOojNnY8DTbO6FvOHJgMB9F8+/w6nKzrCiIS8CPi04LnNOHFh/ci/7238MCke3DxeV3QMtmFeK5sab5NBjisDMFYEOe2SvDaYDCAq12TxQqbMw42VyJMtngYLW4YzHEw2prAEd8cffoPwgdRMOsaHrSqyfpgnvLC8gtMBgTDiAQZZ9UTAQxrsSg5CmYlEChDxHsMx/d+ieXz5mDqhLHo0ikPFjvjlrxxqNHrJDO3M8ZPmoYFi5cJmF4G1/UULrNllMZMuYKSx8Y+t3rtjFJ3Gr/8jIJJDUkwtYuqpx2ZbvR7UFt+DIf3fofVS9/DA5PuxlWX9UDbFglwmLVguGRtGB+0MCxkhNtpgd1uhsVCE26EyWKTTIrdnQSTPQFGS5wOZhLs8S3Qm2B+SI1JDam0JevLNY0Ze4FjH9e7sOqJlP3o/rHUhtIViQEzVAkEyxHxn8CJvV8i/60XMOnu29C5Yy6sDncjYNqggTkd772/HPsOFyIWTNYTqDRl7Gdr+Fh9vMaOp8HGGX3LmQNTX5ITSvbtRJRfqWd3juz7Hm+98jzG3zkKF53bWaBs3sSORGZOdDipNRkTJJzMpsTHO+GOc8FsscBoscHmTIDV1QRGazwMJjcMJmrMJDgSWqLPgMH44MOPwMKyWDD5nK80vMixz9WFFpWkvsB4lypclr8hBswgwawQrVm2bxuWvvk8Jo4bg455OTDbGL+MMeW61szI7Yx7qTHfX479R4vhJ4wxhS+nWpmrj8Oj+pyNHc8odafxy88smGHao5AGZsCHiN8LX2Upig7uxer8hZgwdgwu6NoBzRPtcJgMSHQaBUwnYdTNuMNmFDCTmril3KxDxzw0SU6B1eGC1ZkAsz1RNKXBSDDjYbSnwJHYGn2uH4JNH34krQ5hBKEJGx80MNWFb3hUF14utrri8iIdPs0dkdQpc/mBGkQClYgECGW5gFmx/ysse/N53D92NDrkZMFoaeBjKjDbd8Ld90/F/MXLcOBoSdSMqwWQ+lzq8zR2VB+vseNpsHFG3/J/BGYjp4ZxoqhPplULhT3VOLR7Jxa+/Tqm3X8PLj2/K1qlxMFt01KH1JAOi6YlqSmdNqNuxs1on5OOW2+9CcNHDEfHzl0Q3yRFwBTfUmlLSxMYnc0FzN4DhmCjDmZIwNS6cTQwVUuv5scpCNSREKi/KPqALygwg3RHahHxViLiKUPEV4aIvwwIlKJy/1dY/tbzmDh2FHKzMrQ4JsNF4mfqmtNoR3pOJ4wbPxnvLMwXMBWQPMaWBzYGZOznU59THc8obT/il/8sMKX3moDpVyciNZN6lbm8pp82FvY2FFYKRU2eF96KEzi4aweWLpqPyRPuxuWXXIDWLVJEGzLFp9KEkoPmwsdqgN1mRHJSHPJyszBw4AA89dQ/8dhjf8dlPS9HctMWsDlowp0wGF1iyrkiNzqawZbQCtf0G4wNWz/SvUulKZW+VH7mqU26utA8ngwn24o9pwBzWxTM9pnpMBjpdsSAybCW0Y607I64856JeGv+Euw/UlzPjP8QmLGfSz7bj4Dhx7xVfo8eoWj4fQoDOS/qiz/yg/1kMAllKBhEiCESfpJwCKGAX0RqJ7lmFBjZAqG3PzDfLTlvPmc4SPPDIoFqHNm7E+++wYzOOFx8wblo2bwpnE671DJKTpl5ZcktG6WO0cyiXIsJmZnpGDH8Vsx89hl8+OFWLFq4EP369UdKsxaw2uO0+KVRwan5mCZXM1zZ5was30wwqRXVkqfh2VPP1dmtzyC/KreeukDq7TwfUjNag4ifK/IKWfwgSI35JZa/9Rwm3jkSCkyDiZpSF6MDBqMDaVkdcftd9+GNdxdi78GCaN2q0to86rd9vWP0I5wc9GrwHeqddX/bj3nEEJo0yYU4hKHuO/mnB1lTGwgJFuqmFUSCYYQlPFj3/lM9MqiP9++ODX8AtSOhDPh9CPi8CPg8CPq8CDEGKX3eMc1hKnwiMOpAhhnjq4G/shhH923Hqvz5mHL/3eh5yQUCJcEzmChmrWbRzJpFpuvok9ngik9ERmY2Bgy4HjNmzMDWLVul0/GDjZswcOAgJKc0k/SjwcDgOi+2rjVtTWByN0OvvgOxfvPH9Va32t+ozkTDyx5z9nUlyXcQEFkhE87Yk8TVedADBBnHrNIWPwrMN2dj4tiRyMumKWdunDeOBqQ8NjmRkdMZY0VjLsa+Q4WnAaYWfdVusTA06xWLsXqs3YpRrFle2EDp/9BzdSNqYDKdHBYJBFgNpiXu+JhwEsboD6fuIpgS8w0josrwY89ZzOOfDKb8xkgYfp8XFWWlqCg7IXBGR7MwQF4PSGpHBp09QJhHapMKHN37NRa8+SKm3j8OvS6/COntWsPtdsJoMsFoqYOR2RCzMx5mB2OSDrTLyMGoMbdj9nMvYOuWD3H48BFUVVaBYA7oPwAJCUmSEzcYWK3D+CDjhfEwOlNgT2yNawcMxYYtn0TBrIOKj2KhVBdUneU6fPkKvyr+nx7sjv4cqbRnT3s1EKoCQtSa1JhfYMWbszF53GjpO2L+3mB21QOTfnFOh3MwYdIDeG/JChw6eixqyuX36XkJqXeRT9sAyqi10q1W3adUn1asWSQcQlgkrJUZMrZModLRR9JoR30aDw1BrHBYQyCMyqpaVFTWwOsNIBiICKACpTplMac0TJA9fvi9fkT4w07x77TAbPx7qSLCoi0VmEEfodMKeiNBL8JcAASoGVVhLzVILRCogbeiGId2f40Vi9/C1PvuxFU9z0dmWivEuR0wsxfGZGwEzDjEp7RAu6xc9L9hCJ5/6WV8/vmXKCwoQk11DbweDzau34B+fa9DfFwCrCwli0lHMpZJMJ1JbdD7+mHYuPUXBiY1p5k3kBvtBczpeG/Jchw6qpW9qVtEJcz4XLv2Ckwe+QpFvVsd5fapA5MOTKQ+mFIDq+D8N2BSY5I3lipWVXnqwGT3i/ahoj2D4WBEHvMj8bECM/xTwWwcSP1VDo0KBREM+HVTrpnxCBc0YcYlvfDXViJQyxieV/czWU9Zi5CnHPu/+wpvvfIcJt37G1zV8zwpEZNSMIvWD2Mw6m0HkkvWimipKdtm5WI4NeWLL+OLr75GWVk5vF4vAn4/PDU1WLdmDa7r0wcJ8YlwONwws2KHIRiaSmpNWxPYE1ri2v43nlGNOUk35UYpDNZSpkarGyIWFzJzOmHsPffjrXmLsO/gUa1AWNfKCkj9+uvWkpgoaQzOk8EUgP+NKVc/qeEx+ps4PSQYQSBWU2o6S8y53xuEjxrSE5BiHWpMmvSfZcpPB0z6mRGpNA9KkFwDk/6VD/7aKoFTfC1ZAPngqyrFoT07sHTh25gwbozkvjPbNkOC2yor8LqFDsGkf8kuQjtscUlok5mD6wYOwcwX5uDTL7/CifIK7VJEIggGAqipqsLqlSvQr08fJCU2gcsVBysD2AIm4WSuPAG2+Ba4tt8QbNjyrzNmyrn4yZVVOV2N+mAy4J6e3QF3jBuPN95egL0HjtTr9YmFRAGidGbjbghRVmCqxKbCW1N9dT+nDm/1Wuzv42O+rnxM+pXMlfBFHqMRs0AEAX8Yfm8IPk9AJOALIkQwWbSjftApIDulKT/F+2Ne1m4LQskFT92ip66TkbWUnLomGlPMuR9Fh/dh8fy3MG3iPbjk/HPQqmkcElxmLSzEVgO1+mbJGquDqFHMDqRm5eLWMXdg5otz8a8vvkLxiTJ4vH7NJwoF4fN6UVlWhlXLl2HAddehWUoK4uPiYbPTX7VBLYIIpj2++RkHc9KdI5GXlaF9NvqYqtCEq3PGMbM7YOzd9+GdeYtwQK/HVIBIBlTXnur6CpgRLno0E60d9WtBf7cRMBsz5TTnmmjdBHW+Zn3/kguc2lofamv9Eo4WKJnPZ1NhrR+eWr/4m9ERAIEIgn66fiEQ0OiqPYao2IeNghn7hsYfq3uJZ4dhIg1MSStKJ2PMkCuJVfrhrS7H0YN7sW7lUjw0fTKuvfJSpLZMlgyO6pFhm6vW2qqgtMIal4TWmbnoO3AoZr30Cj7Z9g0Kj5dJWysHToVCIYSDrHb3oKq8DGtWLMfA/v3QomlTxLnjYLM6YKTW1RdBRlsCnAkt0GfAjdh4BjUmTXnH7EyYpNeHEQP6w1oMk8fMnI4Yd89EvDN/MfYfKpCeHwWkOipQtavBmZ4NwaQ6I5yxGlNBqnxMBWJjx4Zw1g33YmF3ba1X4AzSh9QzsvXBrPM36fYyn6Jp0SAC/qA2f7RxwFAPzFO8p8HLMVDyt+m3BKEM+b0iMk9ITkjdHXv04D7Me+t1TJ04Htf26omcjLZIjLNrDVt6N6GAaa5bjTMs1CqjPYaOvB0znn8Zn3y1HSVlVaiQ4VMBbbAUbQlXlgHCX4mNa1Zh8PX90SIlBS6HAyajXiisg8mCjrjk1ug/8CZsOpOLn7Gj0Kl9FixW1mHWh5LPs3M74657J+Ktdxdi156DqPUG4Q/qw7V0bRl7JRScuqHVF0AKXR4JpwJUmXFd3zb4QQ2eRj1XakUlWjY5gmCQYUOuN/Rwtg4gw9sBP12sOjgFXh3OgF+PczagSz39kWDGfGT1W7gKFzgDCAV0MKOdjSH4aqtReOQgVi3Px/3j78ZlF3H13QZsrbVbjdLmarUYJVgucUuzWQownInJYr5733Ajnpw9B1s+3YbCExVSZcOhCGxeC0nhhJ5pYky1thofrFuNGwlmchKcVhvYKCZV7Eb6qg6YHYmIT26F/gOHnUEwZ4Eas1NOJszRXDkXZ1yVMwvkQk5uF9w9fhLenrcQu/bGgKn3lkuxPyEgpCIMdFPrcaUdPIUEEI5oEokEdQ2rT0/W26W1bF5jr9VBqeAkRASU2tPvpxYMg9pTallYyKyXqEb9Sc3A6q/rfqYiscExCmaD1xt5GgMlNSX/+IBPJKohJc2oUo1a223BkYNYtOBdTJl4Hy44rzuapyQhTvV66xMrzBaWqXGho4vZitSs9rj1N2PxzIuv4oNPtmF/4XEcq6hFFVd50k2pnG4Fph9BTzU2r1uNIQP6oXlSEzit7Pk2wmgwSechWyusziZwJbIeczA2bqkLsPOv0/7xUWOaRtcuDd6ldJDqXoz+nB+MY87CpDtHIC8rXauyZ9W6xQWzLQ4WexxMVrdoTII5b8ESHDhUoI0h5AidEGTAK6cPczw2+6U4L9MfCMAf8MPv98HPYpiTxAO/X5eAB4GAD8FgQFqktQxeUHvMNQNFsnqxxxBC7DIQDakvYKRnKwKPx4eqqlpUVtagutoLv4/v04utiEqsqOpAtWhSp73B8TTBbABlLJh+BpG1EJH4MxLHDKC2qgKHD+7DymX5mDzxPlx2yUWS0bGwVpJV5izoZausySDdgmarVcal2NzxaJ2ehT43DMGsOa/h4207cKikHOWeICo8AVT7gvDpY1I0u6LVcXJkTKC2CpvXrsKQAdeheZNEHUz+LhOM7Am3EsxE2N3JuLrv9djAlCRPrr7S/L8HM006NpkrJ4yE0mKLk9x5dvtOuGf8JMx/bwkOHi6UyW+VVR4UFh3Hd7v24rPPt+GDzVuxdv0GTdatx9p1a7F27RqsWbu6EVmFNWs1Wbt2NdauWyPvX7duLdatW6cLH59C1q7DuhhZv249Nm7YiPXrN2DVqtVYvmwF8vOXY+XKNdiy5WN88813OHqkBBUVvBkawKmDGr2JG0DJp6cBZiNQ8lLq5luNlWZHoxRlEMxwUKB8+43XMP6eu3B+j+5o2bwZmiTEw+mwQ9KNCkyzETaHHVYHtYZVoBw6YjSefm4O/vXVDhRVeFDuDaGGo2Q4EpoSDMPPibp6dRKhDHlr4Ksqx6Y1KzCkf180TyKYHN9SH0yzndmjBFx5zXVY/8GHZwzMybopl5ZiuxtmW0zBsNGGrJyOuGf8RMxbsBj7DhzGibJKfPf9XmzYuBmvvf4W/vjwIxh286246upr0evqa9DrqqvR66qrcGWvXriy15W4stcVDeRyXNlLyRW44srL0fPynujZ8zL07KmOfNyIXHYZLj9JeuKKnpfjisuvELm85xW49JKeuPaaPhgxYgwefvhRLF68HNt37EF5hUfTmlG3Q3M/fgaYPwAlwaS50mdSMixEOD3VFSg8cghrVi7H/RPuxYXnn4eU5CSZhEYonU4nrASGixyzSUy4xWFHQnIK2mW3R98bhgiUWz//CgWl1fBEIOJl+ouDpWQcXwyYUmLmQdBTBW9lKTatXo4bB/RFi6REuKwWGYAgAwl0jWmxJ8DiSMSV1/Q742B2bp8Jm1Eju0AAACAASURBVM0Bi80NE7NUEm/V+srTM9tj1Jg7MOPZ2Vixci1Wr9mAOS+/ij8+/Bfcfsc4XNnrGrRu0xZWu0MTmx0WG1uUrbBYLbqYxRqxf72hMLvGSn9pRdGVROxjWrRYUdVdsUd+nRNOrBarCBeaLlc80tKy0KtXb0yd+ju88eZ8bNu2E8eOV8PLBGAMnD8RzB+Csm61Ha0WCnoR9NXi0P69eH/RAjz04HRceXlPpLZpBZfTIU1iZrMZVqsVdrsDNocDFrsNZhsnUViRlp2D4bfdgVlzXsW/vtouUJ6oDaAqoIHp4ziZsKYxOSWOW5VEtTbjpRxnXVWKD9Ysx9Drr0OrlCYngcmecpsrCY64prim7w3YeAZN+eSxI9ApO10mg2gTOLTRMIzbmtn33jYDvfv2x223j8Xd99yHkaNuw2U9e6Fjp7OQnpmDZs1bweF0i49qNJlRJwROS+kyrasmy8Ueo9PnpHGPbc6UmEY+/bF0nMZMJlHTStRRg9SoTznRppOYWWDjSkDr1mnofu5FGD6C9Qyv4MOPv0TJ8WrNQhHOeu7Tybb8FKZcC55rKStSoMcloyEgvXxNytjoQGhxysMH9mL1iqX43QPT0Puaq5CR3k6g5NxI/vEmM+9cG2wCphMWux3uxES0zchA3xsGYtZLcyUkVFxRK1qSUFZxhAw7AzmAS8y4NoZP+1P42bj08yLiq0Gwphxb163ETQP7oXXTJBk5yJMoGpNzhqxu2JxJcCU0R59+XPz8ZzM/Kggjny1m8RPxs9+nFAic0Is4ZkHAzCGY2rQ36X3X+98JZnLTluhyVjdccOGl6N7jAuS07wB3XKLeJ88QGHvmdWEygilcJQIkn8cmLBp/rEFZH0wBkjWwuigQGx6V9pTZoCYzTKwtNVqkj99icSI+oSnOOvs83DH2Psx9bR527yvQ2o5/DJh1apXLeC02qKKm4aAPEWmnbVhPqQ3gJxiFh/Yhf9EC/P6303H1lZcjvV2qDLSKhdLucMLudMHMtloOLDVb0DYjEzeNGIkZs1/Av778GsXl1ajwhVAb1k24DiXNuOZjKjD5ielOMAqgjyX0VeNfm9bi1sHXo02zZLhtVjHlnMbGxY+Ei9hXTjD7D8Gmrf+ShU/9u5c/94dX5bHviF2VS+hG3fzig7M2oBqR2uOI1BYj4j8mYK58azamjBuJs3KzZK6SZLcIJYUX1mSF1e5CQmIKklNaIDmlOeKlWopZIXOMEMhYIYwmmMwWPcpxCjhVIkM0ZX2NqWBURzWHSUGpRjeq51E4jWZYOe2Ek0R4ro3U/G60aJWOS3peg+m/+zM++WInavx1HZ51zKmTVneMaszom2gio2BqK96wBM5ZKaTSiyzK0CqGAjXs+96PDWtW4KEHpqL3VVcivW0bGWjF2UEW9nebzDBbrAKl3UlH3wF3QhOkZWbjuusH4ulZz2HrJ5+jqLQS9CWrA0B1jKYU31I35bIi11RSDJjsRa9F2FOBjzasws2D+qONrjHlxMnF004WG9OcBHMAwfzkZ4EZhZIJPxbOqjZ5iT7zhuFw2ar6YO77AsveeBaT7hyOLu0zYLNatbQkgYwKPytFe42ZK5NZE6MMeiWcsUAqWLXXCKb2vhgwBUaa9hg5FZinMN8KSh5PBtMEGxsArZwNxQyWlgZ2xjVFZvuzMHzMXVi94WMcrwwInKzC5+1/qn8GVb5U9wbdjMvihmBqM4SC3hqpFAp5WfTK8jYNzOMFB7Fm2RL86aEHcMWlF6J18xS4nXbYrRYx4y6XS3xKi80uAwjYFWh3xaF9x84Yc8c4zH5xDrZ+8hmOFB9HlS8kYFb6wqBQa9KEKzDZ9O/nwC35sLyV+PnYl+5B2FOJ2tJirF+2GEP6XYuWyQnRVbmYPLnQdjAl6WBKUjTmzwBTb6EVIPVMtExI5px0vx8sAYz4qhHxVSLWlJfv/QyL5z6Je0cPRV5Gqkwi5lwlCgGkMOhOUc8FTIsNVlko8XUCW2fGlX9ZD1b6mWLaYyr/LUxeMFYcA6y+8DnVQkcBqI6ngpPT8zi8jGDSjJvY+Wl0iOvUIjUbAwYPx/wlq7H/aDmOVwZRSw8sqg3r6FOPDEzS1309xrfk5Y8JCXFnMQ7eD9ay4JWlaxUglFs3rMajf/wd+ve+Cm1aNNVNJ+cImeB2u+COi4fdoZlvmiiHmz5lDgYMHILn58yVKqGjxcdQ5fWjxh9CpS+E41UeHK/yosIXFs3JUFFNIIxqrx/VHi+8PgZxtS35uOiJ+DX/sqL4CFYtWYDB/a6VxY+TCys58bwYLAZxwWjX+srZ87Nxy08Hk2abIFIk+yxb70W0PSG9Xvi9NRqYft7Iel+57xhKd30SBbN9Wmutl8lsAxcNAmAMmNSShJDCxyxIIZwCpu5f8rHVZpeFkCsuHu64BLjccXC63XDEiDPODXdCPFwJ8fK63eWC0+2Ci+LSxO1yQhOHJEHiXHbEOe2Id9qikuC0IcHJNmoHkuLdSHA7ZUIzR4JzxKPVYpc6WLNFK362OJoguUU6ru0/FK/PW4rvDxxDSUUgCmYdewpJ7WgIcjQLeeQqKcxyePptCkouetgi4Qe4kZOnUjQTwTxecABrli3CX/7wIPpc1ROZbVsh3ql8Ok7QNWl/sDtOfEopXzNa0ax1O1zb73r86dG/Y8vHn6DoeCnKq2tQUevF8YpqFJ4ox6HiEzhcXIqismocq/BIxqe4tBKFJcdRWFyCY8dKcOJYMU4UH0XViSIx4Vz4lBUeEjC5+GnXsjncDrssfETzMLPiSITZ1QwWd3P06jMQGzb/dB+TYHIeupohxLuf2+6x4snr8SLgVUXS3CqwShY/4eoClOz8CMtefxaT7xyODtSYNJuc2UkIxXRzhW2RKXVqUh39Sr5msdpFqCHVwsdstcEdn4BmLVoiPTMLWe1zkZ6VhXbpGUhNS9MkPQ1tM9LRLjNTFpqt27ZFq9RUpLZrh3ZpaSJpae1ASU9ri/R2bZHRLlUks10bxEpW2zagtM9IQ5e89shJT5MBufJ3yCx6TkRxyAAzlvMRzKTmGbim3zC8Pm8Zdh0qRWlNRMJ+9RMbpwKTzWWhIMKSdY8JoOuFv1xgUDNJS6q3Et9/8zme+OvDuKHv1chq2xJum0nGtnAyL/06s8moh4VYka2HQoxWtGqXiUHDbsVfHnsCS5atxIeffIrNH32M9Zu3YOW6jVi6eh3yV63F0tXrsXL9ZqzawNc/wPLV67F0+UosXbYcK1eswKoVy7Bq6WJsWJmPT7esF9m4Mh/PPvE3XHvFpWjVVC/ikDSnTarCTY4mMLtbwJbYGlf3Y6Hwpz/Zx1RgcsKv0pjcl8frD8DnY7UVEw70xVnBX4WI7wTClUdQsvNDrHr7OTxwzxh0ymqngamDyGGwCjgjd8OIAmtG9DnbTXQfkmNw4hISkZGVjfMvvAjXDxqMW0aMxE23DsfQm2/BkGHDMHjoMAweNgxDbroJQ2+5BTfefDMGDR2KQUNvxI3DhmHoTcMwjDJsGG4aNlTk5mE34uZhQ3ALZehg3NqIjBh2I0bdchP6974GORnpiHe5YeXNxfn0XABJYYoTZnsSmjTPwNX9huHVd5biu4MnUOaJSJ/8D4KptGU4HBHfiM1lEh6ScIe+6taLfNmvQzA95SXYvHY5fjN8KPIyU5EcZ5fpGC6bCU4Gc7kjAwHVCzKMUoWuBY6TWrTFZVf1xs0jx2DMnePwm7HjMHLMbbhl5CjcNGKUvM545sjbx2H0HXdj1O13YfjoO3DLyNG4ZfgI3Dp8OEaNoNyCkTffiDG33Ihxo2/BuDG34rZbh+I6au/UVnDbbbDbbDDzpqAzzgIJSzxMrhaIb5GFATeOwgcff/GTweR542JHxrXodTti2tk1KMlhbQKygBms1MCsPooT3/8L6+a/iN9NuB1dctIETEIn+XwV/uEOGTTRVppFuyweNT/ZLCtuCbk5nHC63GiXlo6rr+2NCfdPxAtzXsbi/KV4f9lyET5e+H4+Fr7/PhblL0X+ihXIX7lSju8vX478Zct0WYql3NFtab7I8qXvY/nSJViRv1hkZf4iKFmVvwiUpQvnY96br+FvjzyMftdeg6y0dMS54rTJy9LOQh+zDsxefYfipTeW4Nu9JThRexpgignniQ2H4aPv5vVKRbrAyTCRGpwqd78Xvopj2L/zK7z+4kxcden5aOKyyJQMm9EAAdOmgallEYwy/5ED7002DrVywJnYDO07d0XX8y5Cp7O7IqdDBzE9DBu1y8xCek4ucjp2QW6Xs9G+89nI7ngWMtt3REZ2e2Rm5yA7Jxt57XOQl5OJ9hltkZfRBp1z0kQ6ZLZFWosUxNm1LVMcjJdGh1ax5pE9P83hbp6F/jeOwqaPvhBt95PCRcyxE05Vgqs/j640wxx9w+1etEkc1JiRmkIc++4j5L86AxNvvxkdM9poYLLQhKO3OYKbPiX3EzJxFpMTDrtTN/OaNqUZ50KSYTf6kVk57XHjsJvwj38+ia0f/wtHCotQWHJM3J6jxSU4Ulgs+1UeKSpG4fHjKD5RqssJFB07hqKSEhSXlKCkpBglJUU4RikuxPHiApwQOYrS4iMoLYqVoyg6tB97dn6LJQvm4c4xo3FOly7SNaBpfda/2mEwOGGyJyOxeSau7HMjnn91Ib7aVYTj1T8TzLq9dDjqhL6SB8eP7MXyhW9j+n3jcHZeBlwcPmAwwGowaBPY9BnkAiZjalYHnPFJcMQna/0stjiBk01lcU2S4U5IgCtOd9Tj4uBMSERcUgrik5vC3SQFroRk2WLEFZ+AuIQEJCYmICUpASlN4pAU50BKnB0tm7jQookbKW474u1m2GUYvwluVxxc7kSY2F8uQ7USYLQ1hcndGldeNxTrt3z208HUo50EU6avsWomJgTCyitv1QkEKktkEoc27a0ER7/+AC899lvc3O8KZLRKjoJpMVngcrhEzFwAmSxw8rnTLWlLmnXN19SSFIST/mVqWjoGDh6Cfz49A99s34kar1+2lq71B1DjC6Da60NlrQeVtV55XhsIwkPxB+Bhn5TPJ4tJKiWfzwO/rzY6Ypzbage9VQh5NAl7qqAkWFMJT0UZPtm6GZMnjMd53bsjpUmy3FRSlN0AzMt734hZc9/DF98VoKQqIpGWHzTlSmOeZMqZ7WFGRfzKKoRl3EkFdn39KZ786x9xQ+8rkNYiSaBUYFJrctw0TblJ4mWcUemAI44r4WQYpXJGNVw56mJtKuDLzkiaf8b2LAyIq9geV9UMHDMkwd0hTDIqhvOLnCYDEuxGxNuNmubWdzuzmkxwOgl8IowyhjAeBo6IcbSApUkarrn+Fmz48PP/KJg05YST/xSYvopiiWOGK46g4uDX+DD/NTxw5zBcdk57tEx06mBysWiB2+kWURsYOBwu+RuYT1dgsjSQ7gmhpK/Zum073DB4CJ5+diZ27d13UmpA3TgMtaluH6XlCYZmLRp0V0qGj8kULaunQoNyZDKD6w5aU78XX3/6CabeNwE9unZDcmJSHZh6L7/JkYImLbJxRZ9hmPXKQnzxXeGPA1Mma9Rb/GgFGowRMh4XqC5F9fECbFmzFHeNvhlntU9DUzaQcUcGJfq2IdxXx8KJa+Kkc/8adie6NTAdiTC5mkiPuImhD4mr6S0VUtjBgfl6XSYXLpLpYO5XA5Nb4hF82QbFYBAYCWaiwww35xpxpwgJEDMFykWP1hJrMMfDaE2GKTENzbO6YdiY8djy2bc/HcwGppxQclXOLfU0H1M35Z4yhCqLULTrc2xc9Coef2As+p6fh7QkG+JZKK0XS3DrPztNtNUhm1qJKbc5xJxrK3Z9YWTU/EwufCht0zMwZNhNeHb289i970AUTEJHiQWTmp2AekNh+EJhBNiiyx7ymALjiIrCSEuMPudTBjcwuaJESwH7Ksvw0aYNuOv236BzXh4S4xI0H1P59CY3zM6mSG7VHr363YLnX1uCbbtKcKz6NDSmWvzUDxfplUN6uo9m3FNeLKOb33tjDgZcfSlaNXEiwWaEgzDqppywUIvZrVqxhpZ9oObTGsqkNbUemHaYpMpF9fowK6FBqB0JKVN0usY0aRXvvJiEj7+XGpMXOJ4Dtjh0i7+f8BJuCb8wIsCq8EQYXS2RnN4VF1wzFA888iS+3Ln/Z4GpgusEgGDWegOoZYOctHtoYHpKC3D4u8+xfvEb+Nu0cRh2VXd0bOFAgtEAh55B0dJ63ByLW/7ZQN843h2PZk2bIyW5qZhytVpnEJ3ntQ7MdFllz5g5C9/t2SuLMQKoFmUEk49ZlSWVWT8AZoR+8WmByUVwNWrLjmPz2tW4Y9RIdMjJETDphkiAnYNydTCTdDCfe20JvtxVghIdTH423cDUjxWxHlPFMbWvxGZ9WEGkryxDHlQfP4qvP/kAs574Cy49tzOaUEvZjYizGkVL0ceUrADNudkIVhIJUAoO3kXSNlBnyjXoGhYXMCuhAWqk1rXaYLJydc3YHvfT0ffx4WLLYhAt6eJIQv0G4exMBoVdTpfW6KWmcDhSYE/JRKeLrsM9Dz6Gd/I3YH9h2X8MTMJQXetDTa1Xa5DTfcz9O79E/jsv40+T7kSfCzsit6kZLa1GxFHb6+dMgclqe4fNgabJKcjMyMK53c9Fly5nISGhSTSMpMDUbnozWrZJxXUDrsffn/gnvt7xHWr9QUlE1LDVgVpdLc4IaIwQCn5NmXJ5pOLXypSraIwa7SPDaLUwGItmvBWl2LphLcbeNhqdc3PFlDPzY3ewEj8BBrMbNOWJLbJxeZ9heObl9/DpjgIUVUYko/cjwJQou7YbmfgSDB0xFudFWcF+bFi+EA9Pm4BueelwmzVNFQumwElTKj6mnstlmk1aB2hSdbMqA6TozPM9DcFUKTTWalphZshHwj7c3UyLkfIGsHODqRgw7boGjYLpcsHEQK8jAe6UVLTMPAt5Pa7CoDGT8cK7q/H59wU4VhX8WWDSnxRtRC0UDGsLD11jVleUYde3XyJ/3mt4aOJY9L+sG7KSLWhiNIjE6RpTczvUNDujrGzPPuts9OndB6NHjcHAGwbJ1i/i0jCcpGvMOjDboE+//vjrPx7HV1z8+AOo8vhkoUMNeSow66BUyoq6i5jqMWwFJ/1M8TW1FLTGA6M1tQhUl+PjD9bjrt+MEVOe3CRJUpI2uxsWW7wGpjMFiS1zcHnfYXhWwCw8PTAZcotVp8z8BPzckYwrcQaHtVlDRQe+x4LXXsSE227FWRmt4abG4smlhlQLDnY70jSrgVj0D812aRlg1biaMqFN0NXzvT8IpgUm9u1QW0rpnLbrGLdPkWnCRs2Uuy1GuK3apGECy634LOKDOdCkWRucfd5l6Dt4JMaM/y3+8dw7+PCbQ2JOmOrkXatpDXWBeFQXSc+AMTUbfRetipbG5feJCfdpJpy9N0FmzyJhHDqwF2+9+hLuGzsal53bCekpDqRYjEg0GpBkNCBB1/IamNruvlyZZ6Rl4JabbsYjf3oEL734Ev74+z+gS+cuMLPmUi+6YFGMVkFkRZu27dDv+hvwjyefwo5duyVC4JWMFOck14WzqC2VOWftQX2NGfM319OautVUcEZ8AIUaVK9P+GzLJtzzmzHoktseSfHx2m7EdN1E+ThhcjVFcptcXDVgOJ5/Ix9f7j5+eqZcy0XWXZRQJAifvxY+fzWCoVpEIh4g4sGRPTvw+qwZGHvjIHRp0wrxhELXUuLAs7jUaoE1Pg5JrVsjLScXXc45F+eddwkuuKAnzrugJ7qddwnO6nERupx7Ac7q3gPndO+Ort26olu3c9BVpKs879qtG7p1747u5/ZA9x490P3cc+V5t25dcW73rtKqcf653XBet7NxfrezcfF53XDx+d1xYY9uOP/crujRvSt69OiB8y+4GL373YC7JkzBo48/i5feWIg1W7fhSKkvWg1PP1HCPLF3p1ynBlVWUtRCUBWsGoDBUFBG1DB/zw5Fj6cWBUcPY9WKfNx/71hc1ONstExygRqdpttlMCDObNDCbFLvSBfFDrc7Ee3apqPPtX3xxD8eR/6S97F+zRo8+/TT6NGtKxhlUDu/0SKxBpLuEtOK1w8cJOGinbv3CnDKZJ8MJlOBYQQinJ+sgavdcvzjdeHfJ9pK15xRvAVtraSGcHJR7KnCl1s2YsJto3F2TjZS3G594ckCE64tnDC5myIpNRdXXT8CL7y5DF/vKcPxmtOIY4oiiFEZIYTgD/vgD3sQhBdhKdP1gvvWvP7M0xh3w0Cc3aKVOO88ydSWkrXgHW21Ij41Feddey3G3Hsf/vHkTMyd8yZenP0KZs2ag2dmvYinZ78g8szs5/Ds7NmYOWsmZsXIzFmzoGTW7NmIyqxZ8r7Zs2biudkz8dysmZg98xk8N/MZPE+Z9Syem/Usnp89Ey88/xxeeuklvPLq65i3YBFWr9uEjz/7Ctt37cfhojJU+TR/i+lEbkvN/SzZDsuKv+g/VjFxNnyA2S9GKGJNnFZDwBpV1qpKvSpXsZEgCgsO4f3FCzB96kRceH43NEuOg9thkkUhzxWFYTXCxYyPViMaj7T09hg0aBge+/vj2Lp5K77fsRMfbtqEJ//+N3Tv0km+h26Kmj8vuWmjAampqbhh4CA8+fQz2LFrj2hFIkQo1bEOUMLIackKzLrp8wKmlDyqO1W/CZV5bwgoNWZNBbZtWo/7R49Et+wsNHdrNyA/Gxee0mQX1xTxrbPRs9/NeO61fGzbVYrjVacDZqyVEg8jBD/88MGLAHwidFUP7dmJ159+Gnf3H4RuTVuLOXIbTLBKcSvDMg4Y7U4k5eXhuttux99mv4QPPvoS+3Ydwfdf78W3277D11/vxLbtO7Ftxw58vWMHvtmxA99u347tP0m+xfZvKd/g2290+fYbbN/+LXbu3IFdu3Zh3779OHzkKEqOHUd5RRXY8upn+ymVod4K6w8A3NHF748Zn0dAGZPUt3vh5gV1Mz9VcTRnrHNynebu+GrKUXhkH9atXoYHp09CrysuQauWKbIdNPcf4j7l7AiVFgYeGUqzOGUqSGpGJ1zbdxAee+xpbFi/GSWFJTheVIyPNm3E3//0B3Tr0F40Lhd5FEYjlG/apk1r3DBoEJ6c0TiYhJOXWBOWDGr/aXCGEdC3RhDnhGCqN1NZiR5VEzcJNP/TkSeY1eX4asNaTB45HD2yMtDK5RSLwJtPkgHc5johBe7WWbi07zDMejUf274vEzD5U/irYnVBVCnIttDqg8g7eAeFQEPnhRc+eeSTVwjmG0/PwD39BuPclDZINprgNlpgMzDk44bREQeTOwFNzzobA++dgGffnIdvvjuI6lI/qkpqUFZSiRMnKnG8vALHKspxoqIcZRUVKK+oQEX5TxB+ny7l5eUoKytDaWlpVPicX6+uqobHwxZSLYzDeK12wjU4uT2PzxeB1xuGXxr29ckR0rUR1LZ78dPZp2/FgDPVLSuHarSRikE+rsaRA7uwaMFbmD6VrcrnI7V1MyQmuOBwWGCzW2C2mmAwc49yzeUxO9ywuZORlnM2BgweiUf/PgNbtn6GYyWlMqbveGERNq1ehUcenIZzcjOjrgDdAQUmNVNqm9YyqFYDczd8vOFiNGYsmHVIEjBCGYZfjsRSLzEjD6RGB5MH7SVqWWJJnctiSoJZhm/Wr8WUkcNxXmY6WrsccOufjylWI4uGE1Lgap2FS2LAPFGpuRExhjqWSXlsiN4h/yEwm519DobcNxEvzFuMPQdLZEFHN1X8ZZpNiadFEGA1E0cZ/tsJEI1Nhaj/GgPajB0Gg0GRQCAAJXyNX68/YUIz23SlaMLZ9+zz6WDKmDxt17boVi8KTBV0jgHTI/umf4dVyxZh+uQJuLLnRdrseC7G7BY4HGyTIJg02wTTKC5PQopWM9B/8HD85bFnsHLNZhQVl2oqJBRGScFRbFy9Ao/8dhq6dcgWf55QquiD0phs9hs4aCCenDFDFj8/DGZ9jfm/C6bBAqs+SlqyOw43Ujp3waDx9+G5dxZiz6ESbaaT5n7JukE3BHI//NAdc9It9G9eqA+eVuFDIBsTjpbhzB1OLBMrHdvixFmPvgCCsmOb7lvq/evaZgYqG1KLsK8Kh/buxIJ3XsO0Sffi8ksvQNvWzeB22mT0jZl1A4zpWsySSFBtDYzPsliFlVPPPv8q1n3wCfYdLERNrR9MDQd8PhQdOSQxwsf//Htc1LUjEqxGOPVYrdKYjH/+CuYpTLmAaeBsdCeMdheSOnXGDfeMx+x33hMwSSBDYso00CwoU/NzwWwIY2Psxr5HQUowOepEAzPGt5QFN8fl+UWiM5tVJb/EdrV+JxZoHNyzA8sWa7Pjr7jsQqS2agaH1SQLG2niUlDqPfQGs0mqx5nf7t3vesx8YS4+/vxbHCosRbUnKNqbmt9bW4PCQ/vx8aZ1ePKvD+Pibp0ETIbmqDGZ7WK4jL/jx4HJy1Bn0DWNyYXI/5ApTzGaEGdkrlzr7YgFkz7mqcAkoz7Obg+HEfwZppyQ8SIqUdApEBuDlK9pX9dMOSMjoRAHjDJ2yyJp7pPOabf6gB0JEel3FlN10o2pZT6O7N+l77JxJy65oDvasNzOaYsWsVgtZjidDjicTonDMgvGhAGrgQYMHIy//uOf+OjTbThWXotquhH0abn2CAbgqamUkY0fblqDJ/7yEHp0yRFtqaBMdJqR4LLKdtg/HkzNnHOnDoaM/PgfBDPeaNPANGn71FBjJnfqrJlybgNy6Jh4zrEa80yD2RBYzgH3eX3weTiqmylYgkhKmOtWix7VXuKFt6oMJUcPyJzPSePvwsUXdEfr5smydSDjjNRiNosZDrtdWksETLMFTnecFFxc27cf/vrYE1i7cTMKjpWeZD1CIT98nioUHNqDLRtW4u8PP4BuHTNkwSO1AWYDEl0amFazAW3atMINp+FjdWm9LgAAIABJREFU0jppForaUdtg638SzNhVOQOp4mMSzM5dMHjC/Xhh/mLsPXwymP/XprwhiA2fs53EU1sDT201whwOpmtJxig57sZbVQ7WpVJbhn01KOB2gsuX4JHfP4hLLzwPzVMSEe+yw24xCpTShOdkU5cLNnaGso7SZEGbtmkYfONNePzJGdjy8acoKDmBSo9fqn3o2kShiXCcYy2Kj+7DprVL8ZeHJqNrXloUTFZPOfU9NHkT/ApmYz5m7OLHwg7EGDDnLRaNKSlX5sBIpB4mo9bk05/rYzaEjM+VKW/sWPd+rViF1TRBFlt4quFjV6MEyWmyuW96LTxVZSLcfYMTkQsO7ZP++Uf+8Fv06321+JSsP2UKlEJQrGYzXE4nnBzsYLZK92LLVqnodXVv/OOJp7Bpy8coOlYmOXYpQQtHxLUJRmhc9ds27MGxwv3YtOZ9/PmhiejWMV38Sqmc0kv+JNtmIJh1ccztu04dLmqoMdXWrv9zplw0psEMC1flMYufqCl/ZyF2H+T0CSDi1QqVVPw2FsyfEy6qA00DUvmZyu+MPaqvacDSPw1IC7DfV4MQt9ej/6gXKwR91fB7KsGWZUIZ9teg8PB+rF7+Pv78h9+iV8+LBcoEt0M0pSqO5ohFC1sfzBz0YJURg61at0WfvgPwpz//DZu3foLiY+WoqvVLd6WUoUXCqOEwMnah8vdLstSLEyUHsHn9Uvz1j1Nw/tnZUgwdx9I+q1GySFyRszW5TWosmHtOGcf8/wzMmHCRrMrdYspVuOjfgSlak3FM9rb/WNED5QpOAqfgiwVSPVZfU2CGBcxaKVaRihnmf0OcWFeDgLcSQW+lPPfVlOHIgd1Yt2opHvnDg+jX5yq0adlU8tYsJrFxGjJz1+Jfsm+HM3zMcLvj0a5dJq659jo88ue/Y+XqDSgsLpWsk6RC9e5KfySEal8NatjCwEoubUoTSo8dwJYNS/HXh6fg/HOypUJfgckNXrWUpgGtU1vj+kGD8M8Zz2D7rpPBjFUCMamF6GbY/5saU8/8aPvnuGF0upHS5SzNx2xoylmo0ogp/09pzFhAGzPjfK3uH005Y5R6WR9VeqgWAW8FAp5yhAPczUxLNRYe3oMl772NB6fej8svOR9tWqbA7dDGGxJGKayQAmYOpDUJlBaLDRnp2Rh203A8+eRMbPnwUxQWl6HWq81dkgJjvZHNHwmi2leNWl8lQsxESG1CLUpL9mPz+vfxl99PRLdOaVoBNCuSWADCNhIbK/QbB5N6l35rw7CclkPh/xky+h9dlddf/OitE7Fgxi5+eIZifMyGJ0wVtvyoYx1lP+qRACoVQtQl9DM8iASrEPJVwO8pRdBbBoSq4as5gaOHdmHNisV4YCozOheiZdNEaYVQq28pWiac3HCVM5qMJmkeS01NR58+/fHUUzPx4Yef4fiJKvnTaE6Zp1dgah5lAJ5ANbyBKoQjtQAo1ThRsk8D8w8TcU7HtlL8IQUgzJcTTHsMmIM1jfntrj0yYqcemHqDHHH8/wfMeosfBthjTHlsuEiBqfOpgcmgxamT+KdDW6xm/Hfv53uVOeck4gjz3lK+RQiPwVt9DGF/ubbvY7AKRw9+h/fmvYqpE+/CJRd0RctmCQIEobRZNBMu5puLH6tVWiI4hq9Vy1Rcd931+MtfHsNWHUoZWKov9ggmTTnjllrpWRD+iAfBcI0OZQ0QrsTx4j3Yuikff/vTZHTrnCbVRVKdpP9+FoZwzmUrmnIB81l8u2vvD4Kp3fiaxmTQ6H80XGSEWxY/Wg+xCrBz8cMA+3OxYFI5kcJGwPx3QP3Q138WmFyBhzklrhK+6hL4akpkxlDAcwLFR+lTLhIoL7uoO1qkxImm5EpYA9MINtxpfqVRwExI0Oopr7qqNx7589+wij5lkeZTEkapaNI1JsGUjkpZh7MF4hRgblyKv/1pSj0w+fsZv7SwGMRkQOu2qbh+8GD885mZ2L57n4Ap05f16np16unJ0I9XcVqCyTjA/6CPGQsmux21lGRyJy1X/vy7ixoNsOsBkdgClh9i7z/+tagpp8YMskq/AhFfKSKBciBcheOFjFMuwMMPTULPi7qhRYobbrtRgNRA1BYeXHyw1UMb92xGu7ZpGDJkGB5/4mls2foJCotOoLqGexFp9Z7cbSIWTln4yY0agC9YAz9NebhazLhmyvdi8/ol+PMfJqJrJ01jsnBDwLQYYLUaZDPYNiwUHnwj/vnMLOzYc0DArAlAhlap1gpZkVNDB7iLnZZE+P8ATG0/8JPAnLfolAH22JXif5y80/qBVB8amAhWyJbN/ppiFB/+Dh+sex+PPjwNA/pejrYtE6MNdgRCgamZcM4etyAhPgFp7ehTXofHH38KH3zwEUqOVUh6USqXGoBJOKNV86JBA/AFquHzV54E5qa1i/HIQ/ejW+eMaIFwVGOyvtNiQut27dB/0BA8PmMmduw9KGBW+YFqlvJx5a/7mKykCgWCCLMAldktPfvDPPn/VK482ag05n8rmLxArMerEp+u+PBOLJn/Cn437R70vfpitM9oiUS3ScCkCReRVgit2Je58Di3Gx06dMLw4aPw1NPPYvOWj3G08Bhqvax21DSkMuPqyHlHWtW8ZkpDEe7PUwO/X9eYkRogUo3jRXuxcc1i/Pn3E3HeOTmIs2vxS34O0dT6INaWbdqiz4CB+PuTz2D7noMSbJLBt74IavwReJkvYHGKuJb0KZhupRHXKtl/BTPGx/xlaEyCydlCZfBXFuDLj9bijw+MxzWX90B2u6ZIdNUFs5W2lHilXoXOgV0pKSm4+OJL8fs/PIxFi5di21fbcfBQIQ4eLsLhoyU4WngCBUWlOFJ4AocLjuPQ0WM4cLgY+w4UYP/Bwzh05AgOHzmIAwf34ODB3Th6ZA+Kju5BccEe7Pj6Yyx8dy6mTxyL7l2yEe80Sj6e2prRAK271ITmbdri2v4D8dcnZuDb3RqYtSHOEwWqvWHU+sJ1bSMCp14HEKkrFv5VY4pPVb9D77Qs73/8TbRvfkQCVagtPYwD332Gea/NwmCZJ5SIJLcGJX1Ll43pRm30DVfjFu7ixny104HWrdvgyl5X45FHHsU77y7A+/krkL9sFea/975I/rLVWLZyHd5fugqLlqzAgkVLMf+9fNntbP57i7Bg4UK8t3ABFrz3LhYufAfvL56HZfnzsXLpAsx7cw7+8ehDGH3LQHTMTkWcwwinlUMRNI2p9d5b0CKVQ1EH4a9PPINvdx+SvJHs8BGiOQ+L9qZbyQiZpsZDsn03i0WIJkvffgXzFwMmHS4fwt5yFB3YjvXL3sUjD07AeWdlyXQRFuSy9pEtwQpMakutd0fb4cHucKB5i5Y47/wLcefYu/HQHx7Bbx96GFOm/U52NLt7/ERMmvogpkx/CBMnP4AJE6dh/P1Tce99U3DvhEm4d8L9uHfCBIyfcC8mTLgH9993Dybffw+mTR6P3067DxPvvRPDh92Ayy/ujrYtuDWMUeY11YHJVg0bWrbNRO8BQ/DXJ57F198flPC8JDa5PxK3ovFxI1IFJk15SKqmgkG/tEr8CuYvypQTTC9CtWX4fttWPPvY73HTgF7Ia9cU8RatUpxVPDI1jgH0Bj4mzSgng3CkdIuWrdGh01k4p1sPdOx8DnLyOiMzp4NIdm4nec4jpX2HLsjt0AU5eZ1ke5TsnPbIyclB+5xs5LbPktGKnXKzcE7nXJzVIRvZaa3QqmkC4uwmmdWkXArZuJUzNc0OtGybjT7XD8OjT8zEFzv2RTdVYKxYxsTQcittKak3rZzvV43ZSAX7L8HH5NxPX+UxfLJxOe67/Wb06JiO1k3scHOCnF4pzoC2gpJ+nUwC4Zga9nRbtNHTNocLDlc87E5uTsoddNnsX7fjhNp5gtqNGyNQjNxxN2bAP3cXk5U+23vpJlg0V0KGN+gtvypUxH5yGYEtw3CdaNWuPfoPGY7Hnn4BX2zfhwofZFMFldMgk7LwUf4ld0Zmy3H4V1N+UmvFLwFM1lZWHT+KNYvfxqBrLkHLODMSqC31wQQsyo0Fk6th1lpKlsdu1wb1252w2BwCJKE02zmg1gmZoCzg6dPqOIyV1UacDmwllNqsS25XzUGnJg5q5fxy/UaQ1KP++9VjG0eHW60y28hud8Fic8nIndbpebhx+B2Y8fzr+HLnARkjzVU5d5HjedYNlfaANp37NTG5IIb8Vx8zeoYYQfslgOmpLMX+ndvw2qx/4tJzcqUfWkHJFgYlMpxADfIymyX1KDu7KShF+3E+kw1Wp1skqhFlSh23MCGU2nAwPiak2s4TnB5shZn7XBpYGFIfziiUbIk1mWG3cny3E3a7GzZHPKyOJsjpdC7GTnhABu/v2FeMcm8EldSa3MieZlwtHFm9FeCCT29Z1Ucf/Opj6mfolwLmsYJDWJP/Hn4/8S50zW5TD0y2yVI4E8ll1fw7MeUGrsi5oZa2vYnJwuGpNN0cXmCD3R0Hu5tzOHVTzekkNPl27pvJ7Jg2M9Qsu09woyYbzEY7bGYnbCYHLAYLLDJEwgyb0QybwQSbwShHq9EMi9EiEHOkjM2RgMSUVFzYsw/+/PgsrNvyJQ4fq5Vdiit8EZk2wngp46e04nQ0OUz2VzB/4ZmfA7t24vmn/oHh1/dGXutkGQvIkTdKa9LP5KrcbTNr8zYlfsjdajkmkTM8NRhlRw79cZ3GJKzaAFpqSO6ZabYTYi5YTDJD3Up/02SHmZs0md2wmZywGKwCp91ohcNkhd1ogV3gZKBfM/kmI+dPupDcNBVdul6MEbdPwBsLVuDbPYU4URPR9uD0Q8BkcJ0BfS24HtZ7mJTGpK781ZRHbcovRWNu//IzTJ9wFy45Ow+ZKW4kWbSZlQpOgsk2WS5EnDYLHNxi2sQ9KQklAeOIRPqMDtkAoSGo8h6Z70mANSDZV25kCwa3b+aUCqMdJoMDZoMLFjnaBE6HyQ6n2S5g2gzUnCzI5t7rFljNTsTHN0XHLj0wYsw9mPH8G/h42x4UV4SiK3IG2GnKCSbnMkWzPtxCW232IBHM4K9xTOXs/FLA/OLjrbjt5iHIa9MUqfE2JHMqMUcrxmhN+pncCSytTSvkZGUiIyMD6ekZyMjMRkZWDtKzcpCWlYN2WTlom5kdlXZZ2WjHTaC44VNmBlJlA6g0ZORkIjMnCxnZWUjPyEZaWg7S2+UiM60jstLykJGag6y2OcjNyENeRi5y2mUhu20mctKykJOeg+yMXHTqeA4uvrgXRoy+C8889zo2fPg1DpXUoiZUtyksq4u4+OHmWCwe0VbljGFShWrtx6wV4NCX/xIfU1urcXaRmlvEwVphDtXazaFaM3B3/8HonpKKpP/X3lnAR3FtDTyeQBIkSAsVqFOcQrHgDsXdvQIUqECLlGKvtK99ffXS4lLHijtJCK5JkABFkiBx3azL//udOzthoVB5AvR7SX+3Mzu7zN6d+c859557RHIXeflqmTi83N5FAUUpVaUaPcaO56sfV/OLREnK2FJodI8xPV+qsY8+OL+jWxeH9u6mf7dOVAgLoWyQD8V9vFTeHVHlAqSe7aJc2TK0btmSgQMGMHDgIAYNGcbQEc8zZPhI+kldokFDGDR8BENGPM9gtR3JsOdfYMiIEfQfPIg+A/rTd2B/Bg0bzIujX1Jt0NAh9Os/iAEDhjF44PMMHzKK4YNfZHD/4QzpP4wRg0cycvBIhvQfwpB+gxg+aBjPD3ueF0eOYsLrk/nww89ZsWojR+N+4Wq6iVxx2HDDKFtZ+VE+r253uwIwpeCDO82NS6Ix72lVftMUWdwPJNuboGlHbF1qHYGkc/Es+/hTXurUg1qlH6SEG8wArwC8JemBO4S39NPV6PWyBua5y2kaj0Kgm0J99+5BKU+AS5UB6dP5OcoXK0pJGUvewkwkEY9PPlmJ0WPG8tEnn/Pl1wuYv3gZi5Z9y8Kl3zB3wSLmLljIwqVLWbx8OYuWLWXxsmUs+2Y5S5YtZd7C+cyd9xVfzf+ahUsW8f1PP/Ddjz+wYNEivvp6PvPnL2bRguUsXfwdSxd9w8J5S1g4bzFLFy5j6cKlLPx6IQu/XsDShUtYvuQbvvvmB9at3cSBA8e4cPEqOQabMqIrY7pHYlbPW6pfbyU23fHyUoZR3ITvaTBVMgIPg5fKAuaSH6znAdN+dtK5Myz95FNe6NyTGmUepLiEEXjJ4DwAX5WNQwzHRSnzVFV6j9HAPHMlTWHtcXoNUBGbd5VMATOavl07U75ECMX9vG+Qkn6qkmwgRYKLUa9hEz78dC5R+w4TG3+ecwlXOZd4lV8Sr3DuUiLnLiVwITGBi6pd4lLiRRISL5GQeJGLl85z4eIvXLh4nosJF0m8LI4bSVy4dInzFy5x4WICly4mkXDpMgkXk7h0IZFLFxJIuJhIgrx34ZJqsp94KZGkhMtcu5pCZmYOhnxJqagpI1FInk0u7y0vsYhO96K57l2k32Xxz1T3RB9ryQnc59EO3eFsbyruWydH+e5JxlkbdnFy0EOaXDYunz3Dkk8+Y2SXnlQt+xChbjCDvGTAHqSqYElQ2n1PVqXvaAFzFaevpqoIFlEt8hXqT36w/NJbXjn9Q//97cG9e+jbvSvlSxYj1E/yfGqubT6qXJ5kaAsmuHgZGrd6joXfreJMYgpZZi2pvV6qWqnLgp8jt1b/cZ6Y3PhjCyTYf/An6uf03P726aWn93hoxa/BdGGX8Yd4eCucZFpnLwBzRNeeVLkJTH8PMO9/oir9RrnBvJaKRLJI7J/cRPWn7p0++NEP3vntATeY5UoWJ8RP4uM1MGUlxtsnAL/AUIoUv49GrTux4Ls1xCemkWl2ufMre4zj3GBeh1IeQc/23wfzz149AVhuwz0d8/PbYLpHLx4SUwczxENiXgezCBqY4zSJWQhmgTzVxy66VPuzMP0nP///DszFn3yGAvO+h7g9mFXoN2ocX/+4ktPXUm4jMWWtTF+S+E9e8j9+rkKJ+f9IYi7+VAOz8i3B1Gbm9z/xe2CKGtfBlGf37vwVgvmXB1Pir61cPhuPgDm8a09+H8yxvyExdTD1tbJCMO/0FfjLqHI1VpfRsBoUS350ffIjY0w3mOcEzE8Z3k3AfPAWqtxTYv4azOuzcjeYBRFSd/q2aN9XKDHvcYlZMIEsAFMzF2mz8l+DOaJbDw8wfRFzkTb50cAsp1T5jWBKqqgbwBTPgkIw784T6TYh3/OzckWMbtFQc0i3HVOlxPstML0p6nUTmN5FKADzh5XEX0tRdswbwFSB1YVg3jUq/zJg6rZgt8TUV37sN4EpS5KiyjWJ+QAh3jqY/vhLfkz36o+A2X/UWOYJmFeTC8G8aTWh0FyUxb9Q50cWZXSJaVGZbfQxpgbmJwxXqvxGMKUIlQZmEOWeqKyB+eMK4q/dCkx3cZ1CVX7XhOZfYvJTsMjqttyohX2XFbtLB1MW4CwknTvN4k9/DWYRL6lcIWAG4uWtg/ky824CUwSz+hMgJXeKbMWWeZf+Cic/9/rkRx9feoKJDqYG5c1gVrlPk5hSS7KIl5TtEw8jATOQck88Tf9RAuZPxF+7VqDKfw2mVH0qBPNuPJdy1e/9yc8NYEo+HXG3FzDNXHdZuFFi/utgiqlIMkGIW0whmHcDSvnOvxyYWmo6N5jKQdis1St3GEk4e4qlX3zGCz17U/X+B5W3d4i3L0W9/JXrm7cq3RdI+ScqM2D0WOb/tIIzHhJTmYukpqNdAu7ddZhVXez/0O2Rq32rdpvTa95F3SgfVoJiASL1xYnDW4XTensH4BsYUujE4ZasIruktOkdLXKq/DHlm9XSteY+KhVW7VIS2mlUeRut5mwuxsfx/fyvGTtwINXLi9ubN8W8/Qn1DrwBzAeerMzgl19h0crVnE3WJj/Ku0ii9ARKi1Vrqoije/XnVkD9zjHPpK0FmYJvUzvS87Mapy4O7t1Lvx7debBUGCWLBBIk1Sa8fLTa617++AQE3wRmaoF30a3c3gq9i/7D1XddYqp0FwNzuOSp0P+zamDa87gO5leMHTCQagpMLw8w/VES0yeQB5+qwuCXx7Pgp5WcvnIFSUWqg6mkZQGYos7vHpgy+enTrSsPlCpJWJEgikqYrZQy9vLBSwK//AXMsm63t9XEJxaCeUclphjYXTYXDrsDm5QYwab+E4UulcudmHA5RZWfZOkXn/J8z55Uub+8CneVyY94sUsUn49MgPyK8NBTVen/4mi+XP4txy9cIFsqj7lLK0lss6jxe0GV798TTc/OnbiveCglggIo4itx2wKmrwLT2z+YoGJlaNTq1/6YhRLzDtUrd9qkTLIdq1NCz/R4Hy0ITSvvYSbx3EkWffoRw7t1pcr95dQYM9hLN7IH4OcTpMr2lanwGM07d2PclLf4+tvvWLtzB5sjI9gVGcnuXbvYt2MH+7fvYO/OnUTv2kVURAQREZF3tEVGRPDlZ5/SrGEDSgUXIdTfjyAfSWygxW57efmr3xIYWobwVh01R+Gk647ChWDeYTBFiQuWJqcRizMfh1LCsqCogbnw038qMKuVf4DiKqOwBHH5EeJblCD/YCUxfUNLUKrCozxWoybPNGlCg9atCG/ZgqbNm9GyaRPaNmpEu0aNaNO4MS2bNKF506Y0a9bsjrbmzZrybK2aPFCmtIIy2NebQInz8fbF19sPBaZfUQJDStOw5XMKzDOFYN7ZyY8YtJx2yTqrRc0JmEZnPiaHATtGXMoSaSTxF1Hln/BCr57UePAhSuhgygTIL5gigSF4+UoYbyDegUXwDiqCTxHZBuLt74sE+0seIIlGlCYhshLOoLLjSobcP9m8vSVP5Z9v8j2S0F++W7KpFZVcmLLv7Y2/jy++KuGVvwqsCwgpRcMWOpjpBZMfvX6ZDM/F2qDNHcUyqM1ftaPyjv6uvCezueuGg9sYC+7IYenJvW/H1MF06mDaMGHC7DRgdRqwO/NwOQ0knT/FDwu/YuzA/gpMSQ6gQXZdYnr5BuItzT8Q7wABNADvQFGLvvj6+RIcGEAJfz+KSZYLd+y2778AlwApqQBvbr6+vtyqeX5O/VvJb+nOplaQPEslrvLDT9IIemtg+geH0aBFByUxz16+DqZev6wQzCzidm5nwuCB1H30Pzwr95SYmiq3YcaMBSNW13UwkxPPsvGnb5k86kWeqVCREA8wi6r8O0Xw8gnUJGZAEN6BAqYbTjeYIYEBlFRgaun+lO3wLoMpfZCmMqv5SHFSHcwiKDCb3x5MPVyvUGL+l8CUGbnVrs3I9SwcgqfMp51uVZ6Vksj+HVv4YOpk6j/xhAIzxEsbYwZJKj1lYJeZeZCqKelTNBif4GB8isikSCIPtQy9uioX9Skw3C1Vruei9ARTVLlfgSovBFPGFdcHKHfYwC7f7HA4sTpsWFxWzO48HGJgd2BW5iKxRJpyUrkQd4wf5n5B96bNqFi8JKX8gghWGcm0hE9KBUqyKAVliBtMkaKSwFQDUcDUcwT9O2D+O2NSyQysq/IbwJTJTwGYRTWJ+RuqvFBi/jdVuaz4qKJIDjeYkrXIghiORGI6VJyjlB3JxZyRwrFdO5g1/hXa1mvAo6XKEuotS5KeYAbiU0QkZVFNlftLTkjJkiYJ970p7uND6YAASgQEKBPNvzrG/LMTH89xpp8yDXkria3nKZKHRFZ+PGflavLT8jkWfv8zhWPMOy0xtcmiKhQsxnUZXcoY04oJG/nYMeASOFVNHCNp586wbskSpox+mbb1G1HpgYo8EHYfJULDKBJSHL9iJfAvWYqAkmH4FS+GX7EQAkKDCQ4OpmRwUe4PDubB0FDuDw2lZHCwKuIk7/27rWjRotyq6ecNCQlBWmhoKMVDQykWXJRgf/HA1ywEGpjeKu10gbkotDThLTv+CszCWfkdsGO6VMpZWenVliNFWpowYnIZsLjysLlycThywW4AmxFHRhqXY2PZ9tMKZk+cxMAuPWnRoCnVq9Sk4mNPct8jj3HfY49zv2qPUu6xR3jwUUnfV4HHHnqAJ8vdz+Nly/DIfWV55IHyVHjoIR5++OF/uz300EPo7cEHH0Sa/rpChQpUrFhRpRF89NFHefyxx6jw4AOULhZCqBtOAVN34pAlSc+VH5GYZ5Kuz8oFTFHjhbPy/6IqdzqciJODJ5j5rjzyHTlYXLkKTLsjB+x5CkyX0YAjM4urp+LZvvJnvv7HJ7w9cSqjXhjDgCHD6TFoMD2GDKXHkCH0GDyInpKKb/BABgzoz+C+vRnaozuDunSmf9cuDOjVi/59+9KvX79/qfXv3x+9yTn69u2rWp8+fZAmr+W4fGbgwIEMHjyYIUOGMGzoULo814GnHqlIyaBAivpoal0D88a18satOyuJWWhgv8Oq3OV2pBA0xRdTJGaePReDLRsrBjXGdLoMSmK6bEZcZiMuoxFHVg6ZiVe4eCKeo3sPERWxmx0RUWyN2s3WPXvYGh3NpsgINkXsZGvETnbt2snundvZu20re7duYffWrURu38auHTvYsWPnn247d8o5dxEREaG28nrHjh1s3779hibH5HORkZFER0ezZ88e9u/dy4KvvqJl40aUFpUu1ShukJiSzD+YosXvo3GbLgpMyV2U4ZG76GaJKUmq/oyB3T2CuiMG9Zu/5NYGdrf1X2xf0txrAvpnRXBp1Sdl0UBUuRGnIYvYXdt4ffAAnn1Ms2NK4lu5lpJ52VsmwqGlCC7/KI079OGLJes4fiaL9FzxYiv4ipu7p157qRrWiCemJjXFaGS052Oyy8qP5iysUkk5zSobrUsSzCtHX5nOu3BZHJjzjOTlGMg1GMkxmcm1Wsm1WMjMzyfTkEe2IQ+DIQ+zIQ9bXi72vFwseXmY8vIwqGbAkPcnm8FAfn5+QTMYDOTl5amWm5uLNHkt55XPmUwmLBYLVqsVu83GnshIenTqSNnQEEJ8xRHFW1UBiDKsAAAgAElEQVSN8PaSJUmpMBGigdm6c0FSrQyTq2CR9lZgipv1jas+N678yE3Wb7Rs7+aftvJzfTgir9Wfbh9yg6kf1nqu/z5Jma2BGROxjdeGDKDO4xW5PzhQLZzIsEiB6ReET0gYIfc/SpP2ffhy8TqOx18HU852u+vgdf0dDU6RmpIAWTK+ifDW2NYyviEZaaWksDj4qqLs8nS5cNoc2G0ObGIPdTqxulxqa3E4sDjsWB125STitNtw2a43p82Gw669J04kf7Y5HA6k/d6/EzutfE7323Q5neyPjqZXly7cX6y4AtPfDaaPOHB4BeLrH0pQaFnCW3Ri/jerOZ2QiieY4sjhOcYUiSmP9u3BvP4J/Z7f7qZch+G/t6fzp/8Gea3+9CdHDnh2VOXWFP9IKQ5rxWXNx2nI5HjENl4ZOoBnnqjAfcGBajIpYPqI07VvIH7BYRS771GatevDXB3MPC3B5W+DqXfIYyuX+Pqq7i32f+OK3uLTHme+d3YP7NlLn67dKFesBCE+EoLs7a4MoWVIVmCGlKVh847MW+4G03xdYv45MLUyzIKm3Axp+j2/W1dEvl/6ITL9V2pVbqIOpt5hVddaCqCLGrfgsmhgHo3cyrhh/an1ZAXKhojTuO4D4Y2PbyABRcMoUfYRmrftzdzFa4kRifmvgnm3Ltad/F4FZhcNzFAfifS8GcxiBN0Mpocq/6uDKex5gin7BfLmZjAVvWLs1ir33gBm1FbGDu9PzScrUCY0UI0vNeccDczAoiUpWeYRWrTtzVeLCsH8XcZvD6ao8iBNlXuCeUlT5ZoT4K8Tt15X1LoM0rdyy+VdmTxoyl4XRgUg/G5v//Mf+FfBxG69QWIecYNZ44+AKRLzTGahxPyt23lwzx76dOlKuWLFCfXRJj+y8qONMX8fzD87+dFG8Nc1pIDx/w3M0m6JKcu9MsYUVX6DxCwE87eQ1N7TwSxfAKZ7SdJz8uOWmPNljHkplUyTlur6Vh7smsT0VI43S0xt5O4pLf+aYLrHmO7Jj0jMl0f0p8ZTFVBguv0QpKLwr8H8uVBi/h6anmAW85HqYzqYUnjUPSsPKaMmP38MTEHz/ymY6mdpY8yCyc9twJSy1kpiKjADPCRmL75aLGBmFKry34LzOpjFuA6m2DJ1MEMIUmA+x/zlq/6AxPzrganPzLVRsMfQQh9neH5AZenTZ+XXzUWHo7bx8ogBVH+qAqVCA1W9dQ1ML3x8dTAr0qJtIZi/xWPBexqYXShf7GYwfVEJD/xvAjMh5XdU+f8AmJI9RZmLBEwjzvwsBMwxCsyKBWCKj614k2lglqBkGR3MNcScSVcSUwY68kDcbjjjVXCn/sd2bgRTW5LUSqroYAYTJMFozd0S8w+AeaMB5t4fY3oKRNkvgOR2ElOBqZX9KwBztweYxQLxU1WKbwazAi3a9uTrxWuIjU8nI+8PLEn+j/FY8HNVZbQuIjFDKebjCaYPUnrZV+LKFZgdmL98JfEKTKeq83OryY9mCLr9GFNuu9xvAUCHoACEgl7duR29L9Lj31TlBfTqKcoFTBsuqwlnfjaHdm9nzIiBVHuqImE6mN43gVm2EMw/eGfdJfu6dKZ8sRCK+Wgl+zTXN81k5KfALEV4czeYl5LJNEm5V82GqZuLrt9U/Q7qklLfXv+ELoj07R/s7H/lY38eTCFYhTv8CszRCsxHCCsWpEnM24K5mtgzaYUS8/Z39DqYDxQLUZV3ZSntRjCLEhQiYLbXJOZNYOprzNex+30wpT86lLK9m3/XwdRsCboUV33SOykH9Z8lP1RflnRINhUTjvxsDu7eweiRg6hayQ2mjxcSuqIiDNTkpwQlCyRmIZi/c891MDvxQLHgG8D0E8Owlx9+/kUpEhKmwFywfAXxl5LJcktMXVrqA3jtpup3UJeU+vY6utIp/Z7fG2AKlFrTfoPHZdPJ1X+WJ5hOAdOM3ZijwBzlBrNksSL4+mhq/Ndg9uDrxYVgelzhW+0KmLvp2+XWYIrJyM+/iBvMdmhgXiPLJP6qv/Ze14zr+h3UgdS3twbzVr26k8c07v4gmPLTCpp4ljkKwDwQvRMNzEfxBNNLwrJvkJgC5ipiz6QWqvLb32gXh/ZE079bZx4qEUIJSRHjVuWaA4IPfv5BFA0Jo0mrDiz9YQ0XrqSTbdFS2f5aYsrERgdTlLyu6D3h1CY/nhLzbklNrQ/SYwFTc//VHi73FdM7WQCjB5gqRbmYjaw4zQYO74tkzItDqVb5cUoW1ySmj0hNCUD0DSCgSDFKlH6I5m268fWiQjBvz6R6x8XhvXsY1LMbFUsVo6S7Xrk2xtTWef38AwkuFkbL9p1ZuX4rydn5GOw3Tnw0/OTmyu214xJfRan2oZrs603ec+KUEBYpve3RPHN33ql9p/TF/Z/0Xeu/+8G5GUqlwt1Td0917tCWJmOO7OPVsS9Qq3olSpYoqlS5n783vv5+ePn64xsYTEjJcjRt1YWvFq0k7kwqmYXmotvx6eLQ3mgGdO/Mw2GhhAVczwyibJmSxyggiOBiJWnQtCUffTmfXfsOs+/YCQ6diOfIqTMcO3WaYydOcOxELDFxx4mNO0Zc7FFOqHbEvT1KXKwcP05sbAyxsXHExJ4gJvak2srr2NjYu9Ji4mKIORFDzMnjxJyMIfZELLEn4oiLO0Fc7ElOqHaKkzFaOxVzklMxJzgVE8epmFhOxRznVMxRVv/4LUMH9aHK049RPDQIkZYCpp+/Hz5+AfgXCaVYqQdo1rorXy/WwFTlVOThvN3tAf5HDewuDuyOpOdzbSkXEkiZIB+KeUjNAD8/gorI5Kc4FZ54mg7dezNi9HheemUCY9+YwmtTpjHxrWlMnDqFN6ZM4s0pbzJp8htMnjyRKZMmMNXdpkyS19LeYPKkSUyaNJlJk6Z6tCnq2ORJk7mTbdLkSagm/Z6qt0lMnjKZyZOnMGXyVKZMfoupk6RNU9u3Jr3FW5Om8takKUybNJmpb77B5ImvMWLIABrWq8WD5UtTtIgsTniprCs+fr74BxUhuHgpypR/hDYderFg6WrizqSQniMRDtok/3Zs/s+CuX93BN3bt+a+YD9KB3orMPW0NYF+fgQGBhFQJJjQUmV56PFKPFWjNlXr1Kdm/UbUadSEuo2bUDc8nHrhDajfsB4NGtalYYO6hDd4lkbuFq5ey/F6NGzQgAYNGtKgQSPqN2hEgwbh7tdyTN67w61hfRqE16N+I601CJfXDWjYsCENG4bTsEEjwhs0Jrx+YxoVtEY0rh9O4/oNCa9XjwbP1qZm1UpUfOh+wkoEExDgrTKuSNYVGWP6BxUluHhpBWbrDj0VmCcKwbzdsyjHXRyMjqR3p3aUDw1QY0yJ7iuYAImHjK8v3n4B+AQFExBakpBSZQkr9xClHniYEveXp0TZ+yhRpjQlS4cRVrokpUqVoHSp4pQJK0bZsGKUCZP9EqqVDitJ6bBSlAorTamwMoSFlSWsVBlKlSpNqVKl7kLT+hxWWtaxi1OyTAn1G8JKh7n7UprSYWUoHVaW0mH3UaaktLKUKVmGMiVLUzasFGXkN5UsTqkSIZQsIYkrAvHz8yoAU9JO+viLP2ZxipUqT7PWXZi3eCUnzqZos/JCVX4rQF0cPbCHEf178VS5MEoHSGZkL4J9vSjq502Ar5bi0MtH8nr6qyahqL5FQ/ENDsU7IAgvXy3np0gH1dwJwsSzxrOJQ4NyalB5Ob3xUqm0JZ22xK/L6z+fG/Q/8m+k3z43NTmm+iPVO7S03xI1KnZdrfmqSFKJv9d/l5+PF0GBPgQG+uDj6z6frz4r91djzJJlH0Ik5pLv1nHmYiZZ+S7shWDeGsxTx48w5dUxNK5ZiQdD/Qn18aJsaBBli4cQWrQIgQEBePv64eUjTfJlBuIdFKw1vwA0aD1U1x8CU2AUKO8dML0VRB6A6qs2Xr4IlN5SwUO1G+HUwVQJynxFw2hjSzmfb4AvvgH+alZeJKQkDz/6NL37j2TNhkiSUszkGAvHmLeiUqnyi2dPMfef7zGgc2ueKleCYr7eHmAGERjgj7eSiprZQ4EZUERJS29fkaI3SkzJUiw3y1Nayr5+A+V9rSLGvQWm1y3AVMZxDzA1OK+D6aNCULTMzMq9TZYhfd2z8UAf/AL98FFg+lEsrCw16oQzevwkdkUfVwVO8y1gK5z83IpNJ+lXE9mxbiUzXh/Ns089rCRmiJ83Rf28CPD1xtdHpKGPkpgqQ7K/5PnUEtOKfe7Pg6mpR01aSlKFuyw1b6fKlTqXIYYu3TWpqUlPkaKi4uW3aGCKxJSxZWCQHyHFihIcWgS/QF81+ZFrVKbcw7Tp0I3Z733C0bgLGCxgEft8oSq/NZjGnAzOnzjCTws/Z1CX1lSucB+lQwJUXnaRdEoS+PniLSpdMiQrKEW9B+ClVPyflZg6mALlPQLmzXDKa9VuBFOy393cZ1kL9/WVFTKxWXoXgFk0tAg+AT74FwmiTLnyNGjcgtfenMaPqzZzISlTQSmmokIwb8WlLMZZjViyUzh7ZDeLPp7DyH7dqP7EwxQL8iVA1JKvN0FFixAQHKyB6SdQinoXaSnjTh9E5emTn9up8uvq/B4EU5/86JMW/bX6XSLR5QGScGZpIjmlia3SBz8/X4oUCaJI0UAFpo+fjC298QmQNXIvypS7n1btOjB52iw2bI3gfEIqOfna2NIsK2ji1vkba7L/o3ZMcUSwgs1AfvIFYqO3sPSLD3lxcB9aNq5P3WdqUKtmderUfZZaz9blqWo1eLxyVZ6sVoOnqtekUvWaPF29Ok9Xq0rlqpWpUuVpqlapRLUqT1G98pPuJvuVqF75aapVrkzVylWpWrkaVSrXcLfqVKlSjSpVqtyFVpkqVZ+mSrWnqFL9Sa1Vq0SVanKsClWqVqNK1epUqVqDqlVqejR5XZ2qVatRrXp1atWqSa1nqlOtRhWqVq9MtZpVqFG7OrXr1aZLj+7MmvMu6zZt49LlNEw2MDu0JvuFYN5GYmI34zJl48y+ijH5PAknDxO5aQ3fLZ7HZx99wHvvvsOcd99l+uy/MWHyVF6bNIXJM2by9jtzmPnue8ycM4cZs2cxY+YMZs6czqwZbzNrxjRmz3iLv02XNo2/TX+b2arNYNb0mcycPpuZM/7GjBnvMGPGbGbMmMWMGTPvfFN9fpuZs6cxc/ZUd5P96cycNZOZs2Yxc9ZsZs78GzNnznG3d5g5U5ocm8306dPVStGUqZOYMett3nl3Nn//4F0++fwjFi1bxLpNGzkWd4LLKenkiVeWA/KtIBOfwjHmLaGUgzLI0cB05afhMmfgzE8nLzWRpF9OE3vkAPv27CZ6TzQ7IiJZv2Ur6zZvZWtEFLv27CVy7z6i9u4lYncUEVERREbuIipyJ7sjdhB9Q9tJdMQuoiMi2B0RpVI1RkbsQWvRREbuJjIySqVIlDSJd65FEBm1k8jdO4iM3uZuO4jcvYvI3ZFERu0mMiqayKg9REXuJSpyn3sr+3uIiopm585dbNq8kU1bNhIRtZM9+3az7+AejsUe5ULiBdKyMjBabdhcYHVpklKBaf1/D6buBnO77W2p1N5w2sCWj8uShcuUjsuYgcuYiSU3nez0a6SlJJOWlk5yWiaXUzLUk381PZNrGZlcS0/nWlo6KWlppKalkZaaSnpqMhmp18hIvUKmalfJSEkmIyWFjJRU0lPSSUvNIDU1091kP139ezlHalqqamlpqaiWmqrOK+f+VZPPpKaSmpp2vbn7op1L65fad38mLVX6qfU1LS2FtLRk0uR3ZlxxN9lPIS09jbT0dNLSM0hLyyQtLYu0tGz3VvblmPyGNK4lXyM55Sqp6cmkpCdzJfkyyWnXyMnPwWg1Y7LZMNkcGK1OTAKkjC0d2tb2O+Xq74kx5m+MgW+iS4dQdxQUPyzd51G2mo+WyyVuZrKveYwrNzMZVrqb5vQqwVUShpqHy5SJy5wNdsk1b8JlN+Nw2JV7mv4NuoelbC0uLd2i3X0+l3RH/qfc3MzgMmmub5K2UTI226Uktkt9xNPlTUUqSDfEdOJy4nBKqkRJ+Sjp/txN0j7q+2prx+W043RKakX5Nze60alziU7QY8cK+uiuAqHSCUqH9V+mXz95/Vv+PjfdioKXmi+qw2XHZDGqZndJMTMXVocDs82OySpbkOsls3GB0n4vg6ljdvO24Df/akc+6XlRFSbgEhjcmdFdFux2EzabpcD/UUqjW+SJtYLVBg73vVCVgK35uMw5uCy54DC6z2V1p//WLqSYN0QdybdJ1lCLy4ZZisLaXUgOWw1M6ax8wgiq0ocF5AGxO7GabVgsNg0iHQlVKQSl6uwuFzanHavNgs1mxiUTMykkL1Jd/B4VrHqnrTjsZmxWCxarDatUThZjtTyi7nPKvgAqAMj7NlVd2U1wAZhyHfVrqe/L9f2zf9rdE7djh1TXk7ALPSLU5VL9UP1z2y3VN6kHURMat/u2uyoxdcyks9rPu74t6LD+hjqgX0gbDls+htxUkhLjOXwogsiITeyO2kJU5BZ27NjEzp3bVGrro0djOHcugavXssnJdWK2aDH7cu8dRguG1GQSTsdyKT6W3PSr2Mw52G1G7A7tosoKhcwmLU4dTAmvsCJJaa127VwiyCSXvcWcQ1rqL5yM28Ppk4fJy8nE6XBhkazLAqee2FZPbusef1mdIl0EMjM2ydTrMIHD4m5WDVDpsN2E05aPw2bEZjVjNlsxW10FkkipSXc/BWMNTJAH0yGDPRFZEhuupLAnjHKR762/uwamzpt+eW6Gs+Ay6R+UJ1094eqSY8hJ5dSJQ3y7/GtGDOtNyxb1aNM6nNatw2nRvCGtW7ega9eujB33KgsWfsOefce5es2gwBSJaTNDXkYOJw4dZMGn/2TeZx9y7FA06amJ5OSkYzRZsDq0pTOxuwmcmsSUSu42NYBQatOtAc1GC9euXmT7thW8+cYLTH97AqdOxqgnTViw2pwYTGbyTEaMNgtmp0NVvpAwDYuAKlmXnTYcDpGGBuxWAzjMmllLPOLtRiz5WZjzMxWYTgHZasfiVpHyAOVbXaqJdNelplL1IiyFR6sdl1XOJVJYhh73HpD6ff8LgSldvi4xU5MT2Lp5DVMnj6dGtUcpFRZE5acr8EytSlSr+gRVq1aiZs2atGrdlpdGjeejj+exfccBzp5LJzPTQX6unczkDI5GR/PxnFn8891ZHNizk9TkS2Rnp90AptjdTHYtCE1GT1JzU7/xcsOlW/l5Ri6cP8XyZZ/RulUdOnduRVTkDuw2p2JAxlT5ZosbTOuvwXQKmJLu24LVbMBmzgORnC4ZEoiYFzCzMefn4JSMvk5J8e3QxmsieZ1gMDvJMztVX0VAurum+JOyOQ6LFadFziXDhEIw9Yfghq0uCCUISpea+rEbnmPPg2owJ5fbTuLFMyxe8DkjhvWhRrXHqF3rKcaPG8l7777NtLcm8uqrYxkxcgTduvckvFELWrftyquvTWfxkp+JiblEenIuWSkZXDp9ih3rVrN9wxounTuphgcWi6FAlYvUFDOH0XYjmCK3RZXbZDgon3GDuWTxxzRuVJVWLRuwccPP5OYaNFUq8NgdmCUnvcuJFRcWl4xXtXzkNqcTi4wbzUas5nwcVm0ipk2kTOBZnEHiup1aDJF6QERty8NhcZFrcpEnKbndklRdW5GYMgGzSgYNGcPIhMo9Gbrhrtw7L+6yxNQi9XQ4PRksuESeB9XF1MC8dD6eeXM/VmA2rF+dzp1asnTxl+zdI+VUNrB69U8sXLSQaW/PoFNngbM1bdr24NXXZrFzxxFSrmYrVZ597SqXTsVy4XQsGSmJmPIzcDhMakJhFoOw2aUcDwxWyLPayLXkkWPO0SSf2YnVoqnJfIORixfiETAb1K9E0yZ1WL9ujRtMLQhNJidmu41ck5GM3BySMzNIycoi25hPvtmMyWzGYjFjt5px2QVGaQZc1mycVpGgVpxWK4acXLIys8jOySYnL5dco5Fco4Vsg43sfA1OMc/o69EqCM4haaolHlwsBaLXCyVmAWOeOxpv/wqYIgPsXE26wIoflzL5zXF06dSSF54fQMSujaSlJZKaksiVKwlcvHiB/QcOsXjpd7zy6hTqN2hD5y5D2LB+N5lp+dgMFlzGfKzZ6eRnJJOTfpW8nBSs1nzMFhvpmSZSM5wYzJoUEhvmhSsXOZtwloQrl8nJs6jhmkhMY76JxIRzSpULmM2b1WXH9s3YbGLW0bKr2J0ucvINnE9K4NjJOPYdOczB48c4e/ECyenpGM1mNVlyDwiR4rIuWyaGrCTyspJxWkwYc/P55cx5jh87TkxsDCfjT3Duwi9cunyVq6k5pOc41OqKcitzD36UTtJtZQpQt72mcIzpiaS2/++CmXzlEuvW/MCsGW/Sp1dHXhn3PEcOR2GXCm7KdCR2SAfpGVkcPHScD//5JXXrtaR5i+6sWbOTjNQ8TDn55KWkcD7uGPExh7maeI60lASuXLnE6fiz7Io8xLadxzh8PIEDR0/z86YtLPtxOQuXL2Dl2p+JPXGG1JR88g0u8nINJCX+wrfffKEkpoC5c8dW7HanGtIZzTbSMrOIO32K1evX8uWCebz/8Uf884vPWPbD92zbtUt9Z3paJjYR1apsiQGbKZmstF+4cukM58/Esz/6IN8s/ZHPPv2Cz7/4jLnzP2Phsvn8sHIVm3dEcyTmEikZdmXM1iSmGG9EdbslpNhVZRIkklOMnffo319QlWsS89rli6xe+Q3Tpr5G965tGDNqCPv37cRizsIpRnKXDZvdRmpaBocOx/DJZ/Np1rwT7Tv0Y83qnVxJTCMl6RqHoiJ57+0pvDdzKkcORHHx/El27drC1/MW8Orrb/HC6ClMnf4xE6bMpnvf/jRt05SGzRvSd+AA5n61iL17YkhMSCc9LYOkhHN8/91cGjTQVPnmTeuUJLVYnKSmZ3LwyFEWLl3C82NG0bJdG+o0rE+9JuF06t6Nsa+8ytyv5qulv4zUDGUqslsyMOUlkJ1+jrhj+1g8fwETxk+my3N9aBTehIbh9WjYpDaNW9SjY9cuvDhmAp9++T1HYy6TnedSM3ZJZ1BQVUfgtDtxWWw4ZTovZoV79O+vDeaKb5Qqb9e2MX16d+T7bxcQc3wfJ04c5uTJGE6ciCNqdzSLFn/DhInTaNm6K/0GjGLLlr0kX87gysUkNq9exeCeXRncpzvbN63hROxBvvtuKRPfnEyzFh2pVac1HToPoWvvIbTq8BwNm4dTu2FtWrRpzQsvjuXzz5dw7Eg8KcmpXLl8np9+nEd4w8o0aVybDRt+Jic7l+zsfE6cjOfrBQt5+ZXxdOjSiYZNGxPevAmNWjSlSavmPNe5C8OGv8BH//yCk3Gn1ezbnJ9MesoJTsbs4Pvl83hh+EiaNmzHM9UbKw+lylWf4onKD/DQo6V5vNKTNGzajnGvzSFi9xkyc5yYxbCuiojJzF6SL2irUA6TFbvZiirXWAjmjVfguiq/XmZEO3bTioDnQbUvEtOBqPK1q7/nzYkvE96gBnWfrcKYUUOZPWsK06dPYsbMt5jz7hxee30irds8R526jWneojOvT5jF4UNnMORYSL+Swraf1ygw+/fozNqV33Jg3y4WL57HmJfHUaV6Pco9VJ16jToyYNho5vzjQz6f/wXv/fNdxowfR5OmrenbZwTbtkSTlpJOanIia1YvplF4FQXmpo1ryczIIikpmXUbNjNwyFCatmzJwGFDmDrzbRYuX8L8ZQt5Y+pkevbpx7N1w+nVcxAb1m4m5WoihpwkzsVHMP+rmQwf3Ita1WpS+Ym6dGo/gGFDX+CFl4bTf0gnGrd8hpp1alHr2aYMHTmViN3nyJO4GhnbYsXhzMepbKKSc8iJLd+C1WhRq1I33pV759VdlJjaGqueqkTPnaNzWHCJ9AMFWzFzOEi+msD6n3/ijQljqFXjSSo+XJZWLRvSvVt7OnRoSfv2bejatQvNmrek/AMVKXt/RZ6t25yx494iMuIIqdeySE68oiRm384d6NmpLat+XMa+PTtYuPArXho1hqcq16biY3Xo0ecl3v3HF2zfHU1MfCx7Du/h488/o1btBtSv34pvlq3i0oUEBeb6dctp0riampVv2byBlOQ0jh07odR081atadC4MW//bSYbtm3mXMJ54i+cZeXaNbw55S3q1W9Csybt+ezjuRw+sIfUa/EcPrCa8S/3pFH96jxT7Rnat+zN9Cn/ZOGCZSz/ZhGffDmLl8YNoF2n9tSs05Te/V9n+66zHmBasDlysdvE/CRjSycOow2bSSSmXNR78+8eAFNP6ySg/saSpOebLqeSKBvWrmTi62Oo8vQjlCkVzDO1nqZReG1q165KjRpVqFGjOk9XrkqFik/wwIOP83DFyrRt15u5c5dzYO8RzsSd5ufvvuW5Fk14rlUTJTGPHo5WEnPsuFeoU68Zrdr2ZcGStcTFJyDeRZn5WaTmpPLzhg00b9mOZ59tzocffMn+fQeUKt+86TuaNqlOs6bPsn3bZpISL7N+/RZmznqHDh070X/wINZt3sgV8cIx55FtyiXh2mXWb9rCCy+Oo2vnAbw67g0WzZ/LmVN72bVjMV0716Z2jScYNXIU8z7/kf27z3DpwhUSkn7hcMw2Fn3zEWNfG0uDxu3o2mMcGzadICPbhdnmxO4yYrFlYbWKL4CMK91aXbcl3Ztc3r0UMdpCv5aM6nq+sT8KpouUq0kImJPeGM+ztStT6cmH6dGtA8+PHMjgQX3o1683vftI60fffoPp2LkXz9RpQpOmHRk/fipLFnzDsf2HWffD93Ro1oj2LRqzfs0PxB7fz9KlCxj/yms0bNyG3v1GE7Xv9A1r5bLyE7V3Dx06dqdOnWZMn/YeWzZt4eKF02ze9D0tmtdSBvadO7Zw/peLLFv2PRPemEyP3tum7+sAAA2aSURBVH14ZcLrHI45hhU7Fmyq2XAQdyqeGTPeo3/fFxg26EXmzJ7Owf0bWb/2U5o3fYzaNR7n/Xc+4EDUWTKSxWIu18pCatZpIvauZs4H79CkRWee6/wya9bGkJLmwGhxKDCt9kxsNrGDylKk24tEtveuwLybYIry1sG0uwvaXZeaBQ/yDZJSF6kukq8ksf7nlcyY9iadnmtF/77d+O7bhRw+FM2hg9EcOLCHffv2snffAfYdOMJPK9fz2uvT6NZ9MO3b9+SVsRPZFxnNzg3r6NG+NV3btWTT2hUKzCVL5jNu/Ks0aNSaXv1Gs3t/vFon19IPCpZ2du/bR+cuvaj7bHOmTJ7Nz2vWcuZ0DBs3fEu7tvXo0L4pAuaZ+LPMm7eY115/g8HDhvPWjOkKTIPFSJ4ln3y7UUaBnIg/y+zZ/2DQgFEMHzKKWdPfYuf2H/nhu3dp0fQxwutV5ctP5hJ3+ArZaS7lcGR3GknPiedw3DY+++pTmrfuRvuOo1mx+hhXU2wKTCcmnOSCSzynxLiubQrWKwsu9L21cxdVuQ6mVn5aM2v8UTAh+cplBebsmVPp16crr74yiqNH9uIQn0pxehAzifJx1Hz/Tpz6hXfmfESPnkNp0qQ9I4e9xJ5dkURu2kivju3o/lwbtqxfSVzMAQRMUeUNwlsriRl94EwBmFblwGFTHuwdO/WgTu1mTJ38N9auWcfpU8eQMWbbNnVp364J27ZuUmAuXfodb7w5hd79+jP21VfYFrGTq2nJZORlkWPOJdecz/5DR9UiQPcugxnz0mt8+tEH7I1ey8qf3qd1yyepX6cS7856j6jtJ0hOtGOT2Gy7gZSsU+w9soEPPn6fhk060Krt86xYdZRrKTbyzfLAmwADSFkDWQkoUOVu6/u9xWNBb+4RMAVOrXSyLiBVD/UXt9gKmOvWrGLWjKn07dWF8WNf5MD+SOV65pR1ZSUSXNgdTkxmO/sOHOXlcW/Qqk1XunTpx9RJb7Mvcjdbf15D93at6NahFVs3rFbmIpmVvzx2vJKYvfuPQcBU4QFOF2aXKGAbEdG7adWmIzVqhDNz+vts27KNc2fjWLd2Kc2a1lArP7JWLqp806btaozZqGkzWrVrx9eLFnD8VCzXMlPUmDUp5Sor16yjXfvu1K/bmrcmzWbD2lUkXjzKrh0Lea5dFSo/WZ5BfQfz5Uc/cOJYMkaD+IPmkXjtGKvWz2f8hHFUqlqfRk0HsXL1cVIzXBhMNmyypEleIZgFyP/mjkhGkZjyRAuUmtTUjnkMfW4BpD5DupaUxOoVPzLlzdfp0LYFfXp1YdmSeUqVx8YeJjb2GIePHGLP3r1s3xHB51/Mo1OXPjRv2YlXXpnMkoXLOH7wEBtX/ETXNi3o0q4lG37+kWNH9qhZ+Rg3mL36jSJyzynlsWNyOBWYVqzsjIqkRcv21KwRzpx3PmbXzgjOxMewauVCbVbe9Fk2rF9DUtIVjhyJ5Yu582jcrDk1aj/DmFfGMXfh16zftpEtEVv5buWPvDV9FvXqN6N500589cUSTsQcJS/7AseOruKlF9rToG5lWjZuxfCBE/j6s1Vs3riTHbs28v2qz5k0/UXad25HuYeeJrzxQNasjSUz26UkptWZp1S5y2XEaTPjtIjrm8c48zfv09178y5JTE8wrYivjcrIq2DV1Lm6JL8B5uWEBL5bvozRL42kRrVKVK70GP379WDihHFMnTKRiRNfZeTIEfTq04cOz3UmvHFznq5ciw4de7Fs2QpOxJziQvwZ1v34Pd3atqRTm+b89O0ioqO2Mm/eF5rEDG9N914vsGXHUbLznZjE6RdxWTOxPWIXrdt0VJOfD/7+ORE7I4k5fpDvvv1SzcpbtWrApo3ryEjP5OrVNDZs3ELfAQOpJiGvdevQpGUzevTrRY9+PWncshl1GzSicZM2vDzqTXbvOkBOZhpm42XOn9vBogXTeXFEH+rVqsdTFetT75kONG/alhatGtGwWSUq1bifcg/fT2jJh2jWchjrN54k1+DSQmQx4nDlYrXmYMjOJD87D5dZmzwVTn5+9eD9i2DKTNI9m7x2+Qo/r1rJpImv0yS8HpUrPU7jRvVo26YZ7dq1oFWr5jRqFE7D8HCaNhO3t4507tqHqdPe4ciRk+Rm5ZGSdIUd69cyeuhAXhjSn/Wrf1AG9u+/X8aMmbPp2XsIL708jYg9p8g2upD7KbNps8usJj/9Bw6jc6d+LFzwPYcPHubUyaPKwN6nTxsGDeyu/DENeUby863Exp3i7//4UC1lNmnZnFr16lC7wbPUql+b6rVr0rxVG8a8/DpLFv1EwoWrSrpZTddIvnqQA3tXMH/uPxg6YCjhdTpQ+YlwHnukEk8+VZHHny7Nw4+XoHyF8tz/YCU6dhnNxs0n1ZKkGNilMpGTPKyWXAWmUcAUd/zCWfmvqFRTa5mRa6rcU2LKsdtITB1K9wXNycji6CFxaFjMxNfH07d3Nzp2aE2LZpJ0tA5NmzaiZ88evPb668ybv5D1G7cSEbmf2JPnycwyYjHayE3PIO7gfua7PdhjDu/hwvkTREfv4vsfVvD+P77g64WrOP1LuocHu12NMeNOn2bW3/7O1Clz2LljP4kJSVy7eokD+7cw552J/P3vb3Mi7piK9ZHQhozMHI7FxvHzhvV88uXnvDZpopKYPQf0ZtK0KSxYvJSoqANcPH8NQ44ZuyUfk+EK2ZknuJp0iFOx+4nYFsGir1bwypjpDBo4nOdfHMrzo3rTf2gnOnbrRHjT9gwaNoUNm+NISbdhssryhXh+mnA5zTitFlyiysWZtBDM3wJTxpbyREuzuSvO/AEwnWDJN3E1MYkjB/ez6qfv+eyTD5n21puMG/sSzz8/lHHjxvDue+/y04oVnDp9huxcMTRr90NFEFqdmHPzuHbhFw7s2saBqO0kXz5PVsYVLlw4w5Gjx9m+cx979p8hJUN6pzkK67PypGvX+HntZlat3MK5M5fJy8kjPy+DSxePs2HDcjZtXMGVywnKg10cxi02hwqtuJySzKGYo6xct4a/f/QB73/yIeu3bOJk/BmysvKlGIQWgyYpbIzJZKbFcebULo4eiODwvkNsWRfNZx8t5W+z3+P9D95h5pwJjHl1KAOHDaJn3+FMmPQRu6LOkZqhzcrtLrm24tQiS5A2tfJTYCqSodI9+ncXx5ia18u/CqZEH1qMRnIy07l6OYHzZ0+rhPxHj+znyOH9HD9+hPgzp0m6fJmcXAMWPZpQL7ttdWI3mrBkZ5JzLYmc1MvYjFnYrbnk52eTmZXDtdQ85Y8p2SNkVm5yujC5zMjkx2A2cflqOpeTsjHkOrCL36XdSL7hCkmJsSpIzpifg8PuwmSyYzRZVSirwWImNSuDS1eSOHkunpO/xHPpahKpGZnkGcxYzJqNUqWwcWSTcGE/Sxb+nZnTJjB7+kzef+czvvhkCV99OZ9PP/+IqdNfoWvvdrTv9BwjXnyFTz7/kbhT6RjEk90ocBqw2gzYFOj52IxmDc5CiXmrR1Kk4r8Hpjz1Tpsdp8Q2SJiry4bLIbEwUiJK5Jtmx1Te227NJfdCAgUlhNdmceCyWHFZzCorhxb4JTE2YvcT6e0OgRXprOfcEdOT04xF4HQ6tXgbPcLWIXHjEnqbhd2Wis2arcJwHQ43mGYrNqdWddbqcqjYdPkWGchIuIXJasMkkZRmBw7l5Suu8XkkXjjM4vnvM2nCy4x9aRTjR09k+tQ5zJ41h7enT2X86y/Rb1APhj4/knc/+Jx1m/aTeNWsJj5ix8w352NVUZUmLEYBU5yP1eDTw/xxq3t0d4/dAxLTLLfGPRaSmGQxI3n8yQsh6qbmtDkx5uVhzMtVwVkq8YFeV0fV3LFjd9iwuRMX6KeRe2Iyu7CYJP5FVJvEwEiorACaj8uRr5S2fF4glkB98WCXvI4y+ZFZuclpwmSzYjQ7MRpdmPLlfBZsljwc9gxczkxwyXkkNgesVpeKkpTlaRUr5LZDaFGX2mNgc4nN1YXNKnHoFmxmA05rNjkZFzgZE8XaVd/y3uzZvDRiNN0696Jtm/Y817E9Q4b3Z/Z7M1n+ww9E7jlC/C9ppKt1cpR3kV2SKEh8uzhw6KEV8sNkPHPDhfa45vfA7l0GU8mLfwNMA8a8HBxWiY3Riz3J7ZZMHBJxaFXOwirM1s22gk1Us1nseZ5gmnBZDThseWo8JvdNPitBXblGLbTCIgFl7ln57cB0OjKBbJX4QBIXiCqXMaZESepg6pJSBaMpQ5m2HKDGvg4nNosOZi42Uyq5GQmcOXGENSt+5IN332fUC6MZOGAQI58fwfRZ01i1djXH4k6SdC2LLIMLg1l7oGRMbZNQCuW9rsWUK8916YzE9RaGVtz8COqq/HZgejzKuqi7SWLqqtxhtSgwBU6nJMoS6SdqXdKUOG2IxPAEU/ZVLJbNpYFpdatyuwmHJRebJUfFduvZIyTfji4xtUGCNivXJJwWoq18I9yqHHKQ5nLlY7HkYxanXC1TjFLl6t+pCEkHeRYzeRYLVqmYpvtUCCwqtYyocnlYsjHlJpOZmsSVhAucOXmS/Xv3sTtqNwcPHeR4XAynz0oMUooKRpMYeAnlFUmfa7CQl29SYb7iFGwzS2FSkxrCqCflHgbz/wBhN59uEbIPyAAAAABJRU5ErkJggg==;" vertex="1" parent="1">
          <mxGeometry x="89" y="395.4" width="47" height="50.96" as="geometry" />
        </mxCell>
        <mxCell id="VdugXz_NpYzOVKXepFqS-15" value="" style="rounded=0;whiteSpace=wrap;html=1;dashed=1;" vertex="1" parent="1">
          <mxGeometry x="220" y="60" width="660" height="420" as="geometry" />
        </mxCell>
        <mxCell id="VdugXz_NpYzOVKXepFqS-16" value="还呗大数据VPC&lt;br&gt;（10.1.0.0/16）" style="text;html=1;strokeColor=none;fillColor=none;align=center;verticalAlign=middle;whiteSpace=wrap;rounded=0;fontStyle=1" vertex="1" parent="1">
          <mxGeometry x="540" y="24" width="90" height="20" as="geometry" />
        </mxCell>
      </root>
    </mxGraphModel>
  </diagram>
</mxfile>
